<mxfile host="app.diagrams.net" modified="2023-04-14T09:55:06.412Z" agent="Mozilla/5.0 (Windows NT 10.0; Win64; x64) AppleWebKit/537.36 (KHTML, like Gecko) Chrome/111.0.0.0 Safari/537.36" etag="fS7gGPE6dYaaGJ9ocNsK" version="21.1.2" type="device">
  <diagram name="Страница 1" id="EiimEWNCMsljC-cE004A">
    <mxGraphModel dx="2049" dy="2210" grid="1" gridSize="10" guides="1" tooltips="1" connect="1" arrows="1" fold="1" page="1" pageScale="1" pageWidth="827" pageHeight="1169" math="0" shadow="0">
      <root>
        <mxCell id="0" />
        <mxCell id="1" parent="0" />
        <mxCell id="QvWTf6V_Tcqq188pRw3--57" value="&lt;i style=&quot;font-weight: normal;&quot;&gt;&amp;lt;&amp;lt;boundary&amp;gt;&amp;gt;&lt;/i&gt;&lt;br&gt;AudioPlayerForm" style="swimlane;fontStyle=1;align=center;verticalAlign=top;childLayout=stackLayout;horizontal=1;startSize=40;horizontalStack=0;resizeParent=1;resizeParentMax=0;resizeLast=0;collapsible=1;marginBottom=0;whiteSpace=wrap;html=1;" parent="1" vertex="1">
          <mxGeometry x="328" y="120" width="160" height="282" as="geometry" />
        </mxCell>
        <mxCell id="QvWTf6V_Tcqq188pRw3--58" value="&amp;nbsp;" style="text;strokeColor=none;fillColor=none;align=left;verticalAlign=top;spacingLeft=4;spacingRight=4;overflow=hidden;rotatable=0;points=[[0,0.5],[1,0.5]];portConstraint=eastwest;whiteSpace=wrap;html=1;" parent="QvWTf6V_Tcqq188pRw3--57" vertex="1">
          <mxGeometry y="40" width="160" height="26" as="geometry" />
        </mxCell>
        <mxCell id="QvWTf6V_Tcqq188pRw3--61" value="" style="line;strokeWidth=1;fillColor=none;align=left;verticalAlign=middle;spacingTop=-1;spacingLeft=3;spacingRight=3;rotatable=0;labelPosition=right;points=[];portConstraint=eastwest;strokeColor=inherit;" parent="QvWTf6V_Tcqq188pRw3--57" vertex="1">
          <mxGeometry y="66" width="160" height="8" as="geometry" />
        </mxCell>
        <mxCell id="QvWTf6V_Tcqq188pRw3--62" value="+ playSong()" style="text;strokeColor=none;fillColor=none;align=left;verticalAlign=top;spacingLeft=4;spacingRight=4;overflow=hidden;rotatable=0;points=[[0,0.5],[1,0.5]];portConstraint=eastwest;whiteSpace=wrap;html=1;" parent="QvWTf6V_Tcqq188pRw3--57" vertex="1">
          <mxGeometry y="74" width="160" height="26" as="geometry" />
        </mxCell>
        <mxCell id="QvWTf6V_Tcqq188pRw3--120" value="+ playPlaylist()" style="text;strokeColor=none;fillColor=none;align=left;verticalAlign=top;spacingLeft=4;spacingRight=4;overflow=hidden;rotatable=0;points=[[0,0.5],[1,0.5]];portConstraint=eastwest;whiteSpace=wrap;html=1;" parent="QvWTf6V_Tcqq188pRw3--57" vertex="1">
          <mxGeometry y="100" width="160" height="26" as="geometry" />
        </mxCell>
        <mxCell id="QvWTf6V_Tcqq188pRw3--121" value="+&amp;nbsp;deletePlaylist()" style="text;strokeColor=none;fillColor=none;align=left;verticalAlign=top;spacingLeft=4;spacingRight=4;overflow=hidden;rotatable=0;points=[[0,0.5],[1,0.5]];portConstraint=eastwest;whiteSpace=wrap;html=1;" parent="QvWTf6V_Tcqq188pRw3--57" vertex="1">
          <mxGeometry y="126" width="160" height="26" as="geometry" />
        </mxCell>
        <mxCell id="QvWTf6V_Tcqq188pRw3--126" value="+&amp;nbsp;editPlaylist()" style="text;strokeColor=none;fillColor=none;align=left;verticalAlign=top;spacingLeft=4;spacingRight=4;overflow=hidden;rotatable=0;points=[[0,0.5],[1,0.5]];portConstraint=eastwest;whiteSpace=wrap;html=1;" parent="QvWTf6V_Tcqq188pRw3--57" vertex="1">
          <mxGeometry y="152" width="160" height="26" as="geometry" />
        </mxCell>
        <mxCell id="QvWTf6V_Tcqq188pRw3--125" value="+&amp;nbsp;createPlaylist()" style="text;strokeColor=none;fillColor=none;align=left;verticalAlign=top;spacingLeft=4;spacingRight=4;overflow=hidden;rotatable=0;points=[[0,0.5],[1,0.5]];portConstraint=eastwest;whiteSpace=wrap;html=1;" parent="QvWTf6V_Tcqq188pRw3--57" vertex="1">
          <mxGeometry y="178" width="160" height="26" as="geometry" />
        </mxCell>
        <mxCell id="QvWTf6V_Tcqq188pRw3--124" value="+ uploadPlugin()" style="text;strokeColor=none;fillColor=none;align=left;verticalAlign=top;spacingLeft=4;spacingRight=4;overflow=hidden;rotatable=0;points=[[0,0.5],[1,0.5]];portConstraint=eastwest;whiteSpace=wrap;html=1;" parent="QvWTf6V_Tcqq188pRw3--57" vertex="1">
          <mxGeometry y="204" width="160" height="26" as="geometry" />
        </mxCell>
        <mxCell id="QvWTf6V_Tcqq188pRw3--145" value="+&amp;nbsp;deletePlugin()" style="text;strokeColor=none;fillColor=none;align=left;verticalAlign=top;spacingLeft=4;spacingRight=4;overflow=hidden;rotatable=0;points=[[0,0.5],[1,0.5]];portConstraint=eastwest;whiteSpace=wrap;html=1;" parent="QvWTf6V_Tcqq188pRw3--57" vertex="1">
          <mxGeometry y="230" width="160" height="26" as="geometry" />
        </mxCell>
        <mxCell id="QvWTf6V_Tcqq188pRw3--122" value="+&amp;nbsp;changeSong()" style="text;strokeColor=none;fillColor=none;align=left;verticalAlign=top;spacingLeft=4;spacingRight=4;overflow=hidden;rotatable=0;points=[[0,0.5],[1,0.5]];portConstraint=eastwest;whiteSpace=wrap;html=1;" parent="QvWTf6V_Tcqq188pRw3--57" vertex="1">
          <mxGeometry y="256" width="160" height="26" as="geometry" />
        </mxCell>
        <mxCell id="pPYnzA7_0HnfaAso4vko-1" value="" style="shape=image;verticalLabelPosition=bottom;labelBackgroundColor=default;verticalAlign=top;aspect=fixed;imageAspect=0;image=data:image/jpeg,/9j/4AAQSkZJRgABAQAAAQABAAD/4gHYSUNDX1BST0ZJTEUAAQEAAAHIAAAAAAQwAABtbnRyUkdCIFhZWiAAAAAAAAAAAAAAAABhY3NwAAAAAAAAAAAAAAAAAAAAAAAAAAAAAAAAAAAAAQAA9tYAAQAAAADTLQAAAAAAAAAAAAAAAAAAAAAAAAAAAAAAAAAAAAAAAAAAAAAAAAAAAAAAAAAAAAAAAAAAAAlkZXNjAAAA8AAAACRyWFlaAAABFAAAABRnWFlaAAABKAAAABRiWFlaAAABPAAAABR3dHB0AAABUAAAABRyVFJDAAABZAAAAChnVFJDAAABZAAAAChiVFJDAAABZAAAAChjcHJ0AAABjAAAADxtbHVjAAAAAAAAAAEAAAAMZW5VUwAAAAgAAAAcAHMAUgBHAEJYWVogAAAAAAAAb6IAADj1AAADkFhZWiAAAAAAAABimQAAt4UAABjaWFlaIAAAAAAAACSgAAAPhAAAts9YWVogAAAAAAAA9tYAAQAAAADTLXBhcmEAAAAAAAQAAAACZmYAAPKnAAANWQAAE9AAAApbAAAAAAAAAABtbHVjAAAAAAAAAAEAAAAMZW5VUwAAACAAAAAcAEcAbwBvAGcAbABlACAASQBuAGMALgAgADIAMAAxADb/2wBDAAMCAgICAgMCAgIDAwMDBAYEBAQEBAgGBgUGCQgKCgkICQkKDA8MCgsOCwkJDRENDg8QEBEQCgwSExIQEw8QEBD/2wBDAQMDAwQDBAgEBAgQCwkLEBAQEBAQEBAQEBAQEBAQEBAQEBAQEBAQEBAQEBAQEBAQEBAQEBAQEBAQEBAQEBAQEBD/wAARCAHrAesDASIAAhEBAxEB/8QAHQABAQEBAAMBAQEAAAAAAAAAAAcGBQMECAECCf/EAFcQAAEDAwMCAgMJDAcECAUFAQECAwQABQYHERITIQgxFBUiFxgyQVFYYXeBFiM3OEJxlZa1ttPVJDNDUmKRoSU0coMJJkRTgoSSk1Rjc6LBZHV2sbLx/8QAFAEBAAAAAAAAAAAAAAAAAAAAAP/EABQRAQAAAAAAAAAAAAAAAAAAAAD/2gAMAwEAAhEDEQA/AP8AVOlKUClKUClKUClKUClKUClKhVptOpOpWpOqbLOvua4rbcVyiJZLbbbJb7EphthVitcxSlKmW6Q8panprxJLm23EADagutKlXuN6i/Ox1V/RuK/yanuN6i/Ox1V/RuK/yagqtKlXuN6i/Ox1V/RuK/yanuN6i/Ox1V/RuK/yagqtKlXuN6i/Ox1V/RuK/wAmp7jeovzsdVf0biv8moKrSpV7jeovzsdVf0biv8mp7jeovzsdVf0biv8AJqCq0qVe43qL87HVX9G4r/JqxWAYhq1lWV6lWK4eKnUpuPh2UMWSCpm14uFuMLstsnFTpNoIK+rOdSCkJHBKBtuCpQfRVKlXuN6i/Ox1V/RuK/yanuN6i/Ox1V/RuK/yagqtKlXuN6i/Ox1V/RuK/wAmp7jeovzsdVf0biv8moKrSpV7jeovzsdVf0biv8mp7jeovzsdVf0biv8AJqCq0qVe43qL87HVX9G4r/Jqe43qL87HVX9G4r/JqCq0qVe43qL87HVX9G4r/Jqe43qL87HVX9G4r/JqCq0qVe43qL87HVX9G4r/ACanuN6i/Ox1V/RuK/yagqtKlXuN6i/Ox1V/RuK/yanuN6i/Ox1V/RuK/wAmoKrSpV7jeovzsdVf0biv8mp7jeovzsdVf0biv8moKrSpV7jeovzsdVf0biv8mp7jeovzsdVf0biv8moKrSpV7jeovzsdVf0biv8AJqe43qL87HVX9G4r/JqCq0qVe43qL87HVX9G4r/Jqe43qL87HVX9G4r/ACagqtKlXuN6i/Ox1V/RuK/yanuN6i/Ox1V/RuK/yagqtKlXuN6i/Ox1V/RuK/yanuN6i/Ox1V/RuK/yagqtKlXuN6i/Ox1V/RuK/wAmp7jeovzsdVf0biv8moKrSpV7jeovzsdVf0biv8mp7jeovzsdVf0biv8AJqCq0qVe43qL87HVX9G4r/Jqe43qL87HVX9G4r/JqCq0qVe43qL87HVX9G4r/Jqe43qL87HVX9G4r/JqCq0qVe43qL87HVX9G4r/ACanuN6i/Ox1V/RuK/yagqtKlXuN6i/Ox1V/RuK/yanuN6i/Ox1V/RuK/wAmoKrSp/4espvuc6BaaZrlM7029ZBh9mulxk9JDfXlPwmnHXOCAlCeS1qOyQEjfYADtVAoFKUoFKUoFKUoFKUoFKUoFSrRv8Iuu31gQ/3VsNVWpVo3+EXXb6wIf7q2Gg7Fz1WZtuqdv05NjdciS2Qh+7h773HnOIccjxSgJO5W0w8oqKk8dmxsoudumjVDBXIbM9F83ZffnxkbRnuQchdT0oKTw5J6fSWCSACQAN+Sd5Td/Dfe7xHyLOZGRTBqNMva73aVNZRdWrIyth1PoDb0JCxHc4sNNIWtUdatyojlsmuJkmL6jG66k33C8bcmqnluw2GHcGpMKPHm3AtIuspLnRW4qMkoacDyWSkkPEcgd6Ct4nrvprmkVcyzT70wlEuFC4XXHLla3VOSztGKW5bDS1IcIOzgBR2O6htX8XbX7Sez2p+8O5LImssXeRYejarVMuMp2dHBL7TUeM04890wCVqbQpKQCSQAakdzwDxBZffrzZpmPYnhkiYnHZsC5229TLxGjtQJSw8gqcgxf6R0nCptPccgCrtWlOiedYLMhZDpZFxmXKsl3muW+03a4yYkV2BJhR4+y5DTDym3kKjJX/VOBQJBUkq5ANdf/EdpHjrMGXJvN4nxLjbG701Ms2NXO6xm4LhIRIeehx3W2EHiru6pPZKj5A17d21304smXDCZ8m/+sPSYsNbzGL3R+Ay/J4dBt2c3HVFaUrqN9lup25p323FYmzeH/J7Lgt9xQXu1SpV2woWAP8Vst+nremOur4BKuDHKUAnYqVsO47d+25phmVyj5Iq4GyxX7rltnu8ZDMx15HoUFcPcrUWUFLq0xlngApIKkjmRuqg0Nu1x0vumTz8SjZKtubbkyVOPSYEmPCd9H/3kMTHW0xpJZ79UMuLLZCgsJKTtzYviS0ak2a5X5eUyoUS0vRGZQuFmnQngJSwiM6hl9lDjrDqjsh9CVNKIVss8TtI7X4Q716zvNhuz0YY+6zfEQbsvMr7OkE3FDqfYs7ribfCU2JDiVLbLocCfZQ0VnjzJWgGpWK4xMuKLBBdvjt1xiHBQnL8gygusxLk26p55y4qPorPcq6TTSukAtRdcGwSH05hOd4zqFZ1XvF5Upxhp9cV9qbb5EGVHeRtybejSUNvMrAIPFaEnZQPkQaxWjf4RddvrAh/urYa7OleJZTYTkmR5t6sZvmWXUXOVCtkpcqJCCI7Udtpt9xppb3sMBRWppHdRHHYbnjaN/hF12+sCH+6thoKrSlKBSlKBSlKBSlKBSlKBSlKBSlKBSlKBSlKBSlKBSlKBSlKBSlKBSlKBSlKBSlKBSlKBSlKBSlKCVeE78VjRv6v8e/ZzFVWpV4TvxWNG/q/x79nMVVaBSlKBSlKBSlKBSlKBSlKBUq0b/CLrt9YEP91bDVVr51xDRDRfUrVrXG+6jaQ4VlVyYziFEamXuwRJz7bCcXsaktJcebUoIClrUEg7brUfjNB9FUqVe9O8LHzadKv1Nt38GnvTvCx82nSr9Tbd/BoKrSpV707wsfNp0q/U23fwae9O8LHzadKv1Nt38GgqtKlXvTvCx82nSr9Tbd/Bp707wsfNp0q/U23fwaCq0qVe9O8LHzadKv1Nt38GnvTvCx82nSr9Tbd/BoKrUq0b/CLrt9YEP91bDT3p3hY+bTpV+ptu/g1tcK09wHTW1O2LTnB8fxW2vyFS3YdktjMFhx9SUpU6ptlKUlZShCSojfZCR8QoNBSlKBSlKBSlKBSlKBSlKBSlKBSlKBSlKBSlKBSlKBSlKBSlKBSlKBSlKBSlKBSlKBSlKBSlKBSlKCVeE78VjRv6v8e/ZzFVWpV4TvxWNG/q/wAe/ZzFVWgUpSgUpSgUpSgUpSgUpSgVKtG/wi67fWBD/dWw1ValWjf4RddvrAh/urYaCq0pSgUpSgUpSgUpSgUpSgVxctzXEMBtC7/m2T2uxW5CggybhKQw2VnyQCsjko+QSNyT2ANTyVqflmp9xmY3oQiEmBAkLiXTNLkwp23sOJPFbUBoFPpz6TuFK5JYbUCCtxSVNVN8Eu+KY7c4Ood40H1PyWbJnotidRMll2GY4OrJEcOstpuHVhsKc4/eo0VobbEt770FNTrjfMn7aU6N5dkbKvgXS6MpsNtP08pnGStJ+JbUZxJHcEgjf+hD8Ud99p++6ZYa2r4TMe3TsgdSPkS8t2Enf6SyR9FbSHqPp5cMm+4qBnmOyciDbr3qhm6MLm8Gl8HVdAK57IWClR22ChsdjX7ZdRdPskkXmLjud49dX8ccLN5bhXRh9dtcG+6ZAQolkjirsvY+yfkoMX7lusMz2rl4m8kjKPmLRjtmYSPzCRGkH/MmnuPako9pvxXanKV8jtrxhSf8k2hJ/wBa7j2u2iEbEY+fyNZMGaxeXIVEj3teQxEwHn077tIkFzpqWOKt0hW/Y9u1di1ah4BfbSu/WPOcfuNsahJuS5sS5sPMJiK58ZBcSopDR6bmy9+J4K79jQYr7gNfrd7Vl8QkKcoeQyHDY8lJ/P6G9EP+RFfhv3iWxz2rtp9hWZRk/CdsN6etkw/8ESW2to7/AOKWnb6d9xRUZLjjrjDLV/tq3JUpyCwhMtsl2S2lSnGUjf2nEhCypI7gJUSOxrjX7VjSzFW7W9lGpeKWdu+PGPa1T7zGjic6FBJQwVrHVUFEDZO53IFBmbf4isAbns2bPY1608ukhYbajZbB9BadcPYIampUuE8sntxafWry7dxvUEqSpIUlQII3BB7EVO3dbfDxk9wuOBP6uadXac0mQzcbKu/wX3UJa366Ho5cJARxVzCk+zsd9tq4qtFbzp4r1n4echax9lAJViNyW49jskdvZaQN3LcdhskxtmgSSphw0FfpWG071XtedTLhjNwtU3HMusiUG7Y/cdg+ylXZL7K0+xJjKIIQ+2Sk7FKuCwpCdzQKUpQKUr1bddLbd45l2m4xprCXXGS7HeS4gONrKHEbpJHJK0qSR5ggg9xQe1SvwkAbk7AV69tuVuvEFi6Wi4Rp0KSgOMSIzqXWnUHyUlaSQofSDQezSvUuF2tVoQw5dbnEhJkvtxWVSHkth15Z2Q2nkRyWo9gkdyfKvboFKUoFKUoFKUoFKwGUa+6M4dczYb5qLZvXCd/9kw3vTbh289okcLeP2IrkDXuTc9zhuhuqeQJPwFqsbdmSr6drs9EUB/4d/ooKtSpUNQdep3e2+HdiID5C85jFYUPz+jNyR/kTX6cl8UKu7WjWmIHyO6kT0q/+2yKH+tBVKVKzlfiYYHKTongLw+SFqHKcV9nVtLY/1r+fdU1ct5/214ZsnfQPhLsl/tEsJ+naRJjqI/Mkn6KCrUqUe+TwW27jNcezjD+Pwnb3ik5EVH/FMZbcip+12txiGf4LqDb/AFrgeZ2PIoY23ftVwalITv8AES2ogH6DQd+lKUClKUEq8J34rGjf1f49+zmKqtSrwnfisaN/V/j37OYqq0ClKUClKUClKUClKUClKUCpVo3+EXXb6wIf7q2GqrUq0b/CLrt9YEP91bDQVWlKUClKUClKUClKUCo/qDJuurGcOaKY/cX4OP2plqXnU+MtTbzjLwJj2phxJBQt5IK3lpPJDHEDZT6VJsFSfwwN+sNI4GoD55zdQ5UnMpLp81pnuF2Mn8zcX0ZlP+BlO+/nQU612q2WO2xbNZbfGgQILKI8WLGaS20w0gbJQhCQAlIAAAA2AqWt4JladE7TiJtX+1o10hSXY/Xb9ltu6IfWrly4nZoFWwO/xDv2quVmNQM9g6f2iPcX7NdLzMuExu32612tDSpU6UsEpab6q22k+ylaipxxCEpSSVCg+e8KxjLMsyKZZbNgS7dAgak3zIZOXF+L0VhJkRuglAd9K9JJUlJ3aDXST/WFX3uvSiaK6q3rF7fj6tPkY2/heGHGVOu3CIprJnhKjPEM9BaymOtMVzvIQ0vlKIKAOSqpiPE6iZMsMKy6IaiXRy/Sn7cOiqzMmFcI/UMqG+l+4NqDjQZWpSkBbShxLbjm4rvxddIDucPYhPwHKbbAakzIbeRylW/1a89FZLzyEhEpUobJSv2lMJSSgjfy3Di2xGa5XnWK36VoZPwyKzdplznyZU+2OPlKbeqM2ZaYr7m7q1OBLYbU+A00CtbZ4t1h5mE3qLkuC4IlMFq45C9cmspgGQlT6bG1cnJzT5COQKFL/o55FI/pqhvySUneRPE3j8mzz7s5p5mkUtwGbrZ40hiEh2/wnX0MNPxD6UUIClutexJWw4kOJK0JBruYnrVEyK5s2G8YFk+L3dy7Ls6oF2MBxxp0QzLC1LiSn2+CmvIpWVcjsUjzoJZd29WbBm9q9A8PmaX6DYc4vGQKuFuuVhQzLiymJKG+imRcWneQMhG4cQjbirYntvkM30s8QF7wyLjdkxG/2kXbDpcB5u2OY3zEtx990w7tIlh53ocVthHoBVstbpUtPsrT9NZTqdYcRORpuUS4OfcxYRkMzoNoPOMS8OLe6xu594X2Ow7p7+e3oNazYy80ki23ZMg3aTaDFUy31UrZjKkqdI57dIspSsK33++IBAJIAYnL9Os4uNu1R9XWV9T2Q4bbbZaw1Ijhx6Wy1KC209RfBKgXUbFzZBJ8yAa0uhQ1UTa7onUgZT0A+2LZ91fqb1vx4ffer6m/ofS5bdPb758Pn+TX8NeITGX7hCbjYvkTtofTb0zr4lEX0K1yJyG1xo8gF8PlxQeZ3LTTjaOonmtI3IqVBhdVNNDndvjXTH7kmx5nYVLk47fUt81Q3yPaadSCC7GdACHWSdlp7jZaULT7WlefnUTFRc51u9V3u3SXbVfbYV8zAuTB4vshX5aN9ltr/LaW2sdlCthUnt7f3LeJ25W+MeMXP8SF5caHwfTbVIajOvf8S2LhCbP0Rm/LvuFYqW6tWHVy6XGE/it0kSMYbSr1pZ7Pcm7TdJTfBXNDcl1l3qKVugIDb1vUggqMg7gIqVKCR5Nj2rj+bWy4Kl3K44S30edos14bts1pYW3wVI5tqclcFBS3Ft3COlTe6DHfO/Ujqmskz2UqHdtRs1hxYNkziclu15DLgrXJjXkIiuKcZcStQZQClKCSgpVxUlSdhX19Sg+W8czmy3jM7OrVXVK+2TJzFsTmJWqDeZDBvTL8FpyS56ub+9T0qeU+l1amnOghHIKZ48xhbZqr9w2l1wsE3NZlon3LTezv4xDExxlx+Ql6WmS5DTuOS0BTJdU33QngpewANfb1KD5A1AvNrn6sP23Js8un3aQs8sCrLjKrw8GDYwqOUSUwAQ0psvOPcpZQVBwBou7AN1yNDcs1ByjMblbshvy7xc5GPXBWW45ZNRLnMuyZodQGR6I8xHjY+8nd1CUNy2g4DuC70+oPtalBGLXjWtrGEXOHmtyuF6nPS0Ks7FrvbLc+GrrbtuvXBEeEyphA6ZWyYjyuKHAozOYbrb6W2zUm1YszF1Rv8K63YbffGOLriE7DcOyG2IzchXLchaIkYAEJ4EpK1bClApUc8RPiiwXwwfctdtT7Tem8XySY9bXr/CjiRHtclKEraTIbB6pDiA+QW0rI6KvZ771zcv1Tx/W6Fh+B6M59CuFt1AVMeud9sk8Kdh2aGhszAytB3akLckRI/fitoSVr7LQkUGgvmsN8yG8y8O0NxiPlNzgPGNcr3NkKj2G1OggLackISpcmQkHvHYSog+y4tncGvA3oJJyxKZOt+ot7zZ1QBVa4ri7PY0H40iFHXyeR3Psy3pH+g2pON41YMOsMDF8WtEW12m2MJjQ4cVsIaZbT5JSB/wD9J3J71Mcj8R2Baf6w3jT/AFQ1CwrEbbHsdvudtevV2ZgPSnXnZKHkhT7qUrSkNNdkp3HI7k7jYKRiuF4dglrRZMIxOzY9bm9uMS1QWojKdvLZDaUp/wBK7NRC1eJB5Oldg1Hlaf5Bk7FxtT16uEzF48cwYUJC1Drl2VJbS4OCeQbZU66QCQggjfy5rrH6mymBcYOWyGLG3eLfYZlmTYUSZVwkykNOsuRX+ujoNBEhJfLja/ZR7HTPdYWqlSC0eIlU+7Xu23fRnPLCxj8+Na5s6e7ZnGEypC2EstpEa4OuK5JlNucuHEJCgSFDidrhGpOO6gzcjiY6mWpOM3VVokvutBLT7yW0LUplQJ5oHPjy2HtJVtuBuQ1VKjlp8TNhktPXPJNPMvxaxi0zb3FvN09WuRpsSKUBxTaIst59JIcQUpcaQTvttv2r3oviDtK7dcvWen+X2rIIL0RhjGpbcL1hPVL5eilhTclcUhzpud1vo4dNfU6fE0FVrCZjoXpJnlw9d5HgtuVeUghF6hBcC6NA+fTnRi3Ib8h8FweQ+QV67GtVnFoulyvGJ5NZpNksLt/n264RWkSWWm3HkLa9l1Ta18mF7KQtTSgUqS4oHevBeNdLNBUqDZcPyTIbyqazBi2i3Jhoky1rholqUhUmQ0ylCGVgqU44juOKeRKQoOU9iWuem5ErAczRqDZmvh4/ljiWbglG43Ea6No9ogctkSmnCskAvtgb1r9PdUsc1FbmRoLM603y1KSi7WC7MiPcbctQ3T1WtyChQBKHUKW0sAlC1AGuxiWU2rNMeh5LZVO+izEq9h5HB1lxCihxpxPxLQtKkKG5G6TsT51idbMBn3W3t6l4FHba1Cw5h2VZHgooE9sDm7bJBHdceQE8CDvwWUOpHJAoKdSuPhuU2vOcQsebWRSlW7ILbFusNSvMsPtJcQT9PFYrsUEq8J34rGjf1f49+zmKqtSrwnfisaN/V/j37OYqq0ClKUClKUClKUClKUClKUCpVo3+EXXb6wIf7q2GqrUq0b/CLrt9YEP91bDQVWlKUClKUClKUClKzeoue2PTPD7hmWQKcVHhhDbMdkcn5klxYbYisp/LdddWhtCfjUsCgxes2Q3u/wB0tuhWCXJ6Df8AKWFSrtcmUkqstiQsIkSAofAfd3LEffvzUtwAhhYp4WViLoTi+IuezKwlhzDpbZ7KQ9a3FQjuPkUGErSfjStKhuCDXT0YwO94za7jl2d9FzOczfRc8hUy8XWYqwjizAjqP9hGb2bTsByV1HSAp1VZ7J5Z0M1Hl6gvNqGBZw8wjJXR2bsd1QhLLNxX8kd9tLTLy/JtTTCzslTqkhZqxup2Bz85ttrcsN+Yst9x+5t3e0zpMD01hqQhC2yHmA42pxtTbriSEuNq9rcKBFbEEKAUkgg9wR8dRf3yCHrFfsit2IJmRLBIdtTym7mkdS7G4GHGhJUW+PJRCXHFFQLQdbHFzl2DpY/orcsej47cpOW+tr5Zbvc8huEgwei1cp0xh5C0tt9Q+jtJU6OCSpwhKACpR3WcJY9IfEGr7kJ2a5Zh10hespku92mFjL0OYym5NPplbzDc3W1lovkJKGfaCRsK76/EffbFMh2HOdOYtrvTWSsWG8twr4ZcOIw/GMhqaw+uO0p9HHiFIU20pJDnmEgr8LXiPy2/XnIsdwzTC3yZ1sy5vF7W5d8hXBjXJsxXHnJaltRH1spCmXm0o6ayriFbpCuwcLCvBwzg0d2FYLpp7amFKgxQ7ZdOYtumSIEaUh/aXJaf6j8pfSaSXQW2ey1GOVEFOo1X8N/ukvy5XrDD5fpN/avnoGWYl69tp4W8ROm5G9JZ5nt1Er5jidvZO29eEeIHP5sK2W+w6T2m4ZQpq7zLvbvuoU1EiRrdLMV0sSTE5yHXHNumhTDKSOXNbew39xrxEyJWTY9EjYjBFhyuzG7Wl52+JF3fQInpKnjbkNK4RE7pZXIU8Cl5aU9MpUlag4138HOA5PjRs2YRrBkE6NiycetNwuWOsyV2d7qPr9IiBxSiylJeQENoUChLLY5nYEaCyaW3OXqvlWVToU2220WNmxW4vusLbmSVtJEm4NtNrUpALaIzOzhSsllfsBPFa/TZ8TEWXMEaDhzrzTdkttzfkmaA0mTKkRW1xEnhuotImNLUvYAlQSADy46fIdZIONZVIsFztbbMOJPjRJE9yXxS025BkSlOlPDySI5Ttv35b7jbYhjMZ8LbeEQIeGYXktoseDOvW2febLBx4MvS50QM/fGHkPhuM28qO0p1BYcUo8yHElW4vNfPyvF1Y4lstcm+4y3Z7jkCrnGslrnXZtqVPmR5zcViMlJT8N3qhxQHItJSrcK4k1T9O81yDJl3eyZnjMKxZFYJDbU6Lb7ku4Q1IdbDjTjMhbDC3AUnZQUygpWlQ9oAKUGyqEZrgGn+tXiQjWbPMHx/LLTgGGvKdi3q2MzozU27TGS2UoeSpIdS1alncDklL48gsb0zUvUS06Z4wu/XCLIuEt91MO1WqIAqXdZzm/SisJJ7rWQe52SlIUtRSlKlDnaQYNdsQsM265c+xJy7Kpy73kL7JKmkyloShMZpR7lmO020w2T3KWgojkpVB7mD6OaQ6ZSpM7TbSvD8TkzWwzJesdjiwFvoB3CVqZQkqAPfY9t69vONMtNtTYsaBqTp7jWWRoThejM3y0x56GFkbFSEvIUEkjtuO+1aWlBj8H0c0h0ylSZ2m2leH4nJmthmS9Y7HFgLfQDuErUyhJUAe+x7b17ecaZabamxY0DUnT3GssjQnC9GZvlpjz0MLI2KkJeQoJJHbcd9q0tKDH4Po5pDplKkztNtK8PxOTNbDMl6x2OLAW+gHcJWplCSoA99j23r2840y021NixoGpOnuNZZGhOF6MzfLTHnoYWRsVIS8hQSSO2477VpaUGPwfRzSHTKVJnabaV4ficma2GZL1jscWAt9AO4StTKElQB77HtvXt5xplptqbFjQNSdPcayyNCcL0Zm+WmPPQwsjYqQl5Cgkkdtx32rS0oMfg+jmkOmUqTO020rw/E5M1sMyXrHY4sBb6AdwlamUJKgD32PbevbzjTLTbU2LGgak6e41lkaE4XozN8tMeehhZGxUhLyFBJI7bjvtWlpQfKHiC/6PfSzWaFj+HYfacV0yxNucq4ZMnFsYiRLjd1NpCYrKX20pS2hHUkKPNLg5FshPbcdCHoTpj4M2sTzfSbF/VOJ2VUy35o4HnHn3IExLP+0n1KJU76O/GjlQ7Btl2SpISAUn6fr+HWm3m1svNpcbcSUrQobhQPYgg+YoPyNJjzI7UuI+2+w+hLjTragpC0KG4UkjsQQQQRWXtuB+r9Tr5qP616nrq0QLV6H0Nul6M5IX1Opy9rl6Rtx4jbj5nftiPc51A0fWqRoUqBdMX5c3MFusgx2ou53WbZM4qMYeZEZxKmd+yFRwSa6lj8ROncufHx7M3Z2n+RSSEN2fLmU2955z+5HeKjGlnse8Z10dj8hoJrnfguiZ3YrRjV0yfG58GBYJdjcN7w9q6OxlPOLWmZbus/04UkFeylqbe5hCBsnjvW0PhzZevt3yGbmDr8m4KtBitmEAzBEMxS8UJ57qU+YbQKir2AlIAPtFVl86UEtyrRKTkdpzq3Q80ftT+Z3iBdm5jENKnbeqMiKkBAUopWo+i7hRAAK+6Vce+kwHTq3afOXdq0Pj0G4OxVR43T29GbYiMx0oKtzzJDPIq2HdXx+Z11KCQ3Xw7WjIMLtuC36/Lk26JjVzxuTwhpBkImdLdwBSlJTx6XwFBYVy79uxzGK+FAYjZZSrFccAsOQt3OFdLXJxrTyNaLcw9FStKDIitPl6UVpdcC95KBsR0w135fQtKCF5f4WbHqnCmSNZ5GNZvfpOPPWeNcbhicZSLY+468vrw2lqWplKeqhKU9RTmzSSp1avarz3Dw4Lh5c5qhhF/sNqz1tbDUW93DHPTR6CmE3GchvpbkMuutKLfWSA8gIc2OytjyttcrJssxbCrQ7kGZZLarDa2P62bc5jcWO3/xOOEJHkfM0Hp4FiLeC4pCxpNxeuDjBdekzHkhKpEh1xTrznEdkhTi1kJHZIIHxVwtZ9Qn8DxJTGPtNTcxyBSrVitrK9lTbk4g9PfzKWm+7rrm2yG0LUfIA557W3JM5Ig6Dafzb+h3t9018bdtdhZG4BWhbifSJvYkpEdotq4kF5vzrvYDpM3jl5dzvM7+7lucS2DFevchgMNxY5IJiwo6SUxWNwCUgqWsgFxbhAIDR4Fi/wBxGC45hfrB6f6gtMO1+lPqKnJHQZS31FkkkqVx3JJJ3Nd6lKCVeE78VjRv6v8AHv2cxVVqVeE78VjRv6v8e/ZzFVWgUpSgUpSgUpSgUpSgUpSgVKtG/wAIuu31gQ/3VsNVWpVo3+EXXb6wIf7q2GgqtKUoFKUoFKUoFRjHOeuGqBzt/qKwXAZj8LHGjxUzeLwkFuTcx/ebj7uRmT5FZkudwGlV7+s2Q3u/3S26FYJcnoN/ylhUq7XJlJKrLYkLCJEgKHwH3dyxH3781LcAIYWKo+OY7Y8Qx+24rjNrj220WiK1Cgw46eLcdhtIShCR8QCQBQdGvDLiRZ8V6DOjNSY0ltTTzLqAtDiFDZSVJPYggkEHsQa81KCMxsaz7QbmnAoE7NcA5ck4310+tLA38Yt7jhAlRwN9orikrQOzS1JCGR6OG4folqxYLoxhuY3R5LyH493iIeES4Q5LkszWTKjraS/GkR3lrU0HEoICyFBYIq6Vi840c081Cmx71kFh6d8hILcO+W6Q5AukVJO/FqWwpDyU7gEo5cFbDkkjtQZljw34q7bJUXIcqybILlcpUmZcbzcXYolzHHYa4Y5JZYbYQltleyEtNIAKQohRKiro4zoNh+KSYEu33K8uuW+TCloMiQ2suORoS4iSs9ME8kOKUruCV9xsPZr0E4Xr7iHbDtWbZlsFHwIOaWsJlbfElNwg9MADy3cjOrI2JUTuT/Q1P1ksvsZZ4cbtM4/DfxPIrfcmE/SBMXCeUPzNE/RQft/8PNhu7cZdozjLsbmMu3TrTbTJjJekxbhIL8mI4HmHEBsuFJStCUvI4Di4klRV5joDYBdba41l+Tt49ZmkJtuLh+Mq2w3URTFQ80pTBlJIaUr731+lyJUWySTXh98RYY3a86Z6q25Y80/cLcpu32w2nkn7Cae+UwBXZnFtVXF/3fcryZH+q4AT/rQeCN4Z8ItmFQMIsd9yO2tWyzCzx57cll6YNpLMn0pa32nEuPl5hCiVpUg7qBRtttx2PDLIuWUTJmoGp+T5laXpVsuyBcjAjyFzYqX2y04IMOOhUZTTqAUdyohQV7JIV3vd6lzfZxvQrVW8LPwQbIzbAftuL8cD7SK/Dk/iQyP2LHpbiuIsK/7VkmQKmyW//Jwmy2v6f6Wn7d9wHv3DQbDbm3MRKm3YmWm47KS82FMuS5jcsutnh2W280hTZO4G3tBVY6yZjYNPrnecM06n5BrFqNPlda8yHX4qQw6lCUITcZcdluHAS22EhLKGw6pIKksuKKlHQHQ++5YeeserN/yhhfw7Nak+orOfoLUdRkupPxofkuoIABT570bG8YxvDrLFxzErBbrLaYSOnGg2+KiOwyn5ENoASkfmFBisE0ruULI16lam39vJMzdaUzGW20W7fY46wOca3skkpB2HN9ZLruw3KUBLaKRSlApSlApSlApSlApSlApSlApSlAr0rzZLNkVues+QWiFc4ElPF6LMjoeZcHyKQsFJH5xXu0oJOnwz6dWjY6dzsm0/KfgM4te34cJHybQFFcLt8X3j6PKv6Gn+vln3GO+ISLdEj4IyzD40xRHyFVvdgjf6eP2VVqUEqC/FPB7Kj6VXrb8oPXG18vs4ydv8zRWQ+KVsbJ0h0sf/AMXui3Fv/T1Ir/8AuqrSglfrrxSPjYaa6Vwd/wAr7t7jK2+z1S1v/nX8+rfFLcjs5mGl1gQfhdLHrhdFgf4VKmRhv9JSR9BqrUoJR7j2od63+7TxFZlIaV8KHYYkCzxz/wCNDK5Sf/DIH2+ddLG/D3o9jF3aySPhbF0vzA2bvV9kPXe5I8ieMuYt15O5AJCVAdh8gqi0oFKUoFKUoJV4TvxWNG/q/wAe/ZzFVWpV4TvxWNG/q/x79nMVVaBSlKBSlKBSlKBSlKBSlKBUq0b/AAi67fWBD/dWw1ValWjf4RddvrAh/urYaCq0pSgUpSgVm9Rc9semeH3DMsgU4qPDCG2Y7I5PzJLiw2xFZT+W666tDaE/GpYFaSoxjnPXDVA52/1FYLgMx+FjjR4qZvF4SC3JuY/vNx93IzJ8isyXO4DSqDRaMYHe8Ztdxy7O+i5nOZvoueQqZeLrMVYRxZgR1H+wjN7Np2A5K6jpAU6qqLSlApSlApXo3q+WXG7VJvuRXeFarbCbLsmZNkIYYYQPNS3FkJSPpJqajW2+5h970X0wu2UML+BfLq6bLZT8hS88hUh9J+JbEZ1BAPt+W4VilSn7itfcm9vKdZ7fi7K/+yYdYWi8gf3VS7j6QHP+JMdr8wPev33uGGTvbyvLdRMkcPwvWGa3NplX540Z5qOf/b/NQVWlSr3qvhwc7z9FcSuavjVc7cico/nL4WT9tPen+Fwd0eG/TBs/3m8SgIV/mloGgqtKlXvW9B2e9qwJFkV8SrHcZdrUn8xiutkfZT3CJ1p9rB9b9TLAU/AbkXpN8aP0K9atyXCPzLSr5FCgqtKlJV4lcQ9txGF6iwUeaWkvY/cgn6ApUiO+v85jJ/Nt36ONa6YdebzGxLJIl1wrJ5Z4MWTJY6Yj0lfxpjPJUuNLI7/7u65tsd9qCi0pSgUpSgUpSgUpSgUpSgUpSgUpSgUpSgUpSgUpSgUpSgUpSgUpSgUpSglXhO/FY0b+r/Hv2cxVVqVeE78VjRv6v8e/ZzFVWgUpSgUpSgUpSgUpSgUpSgVKtG/wi67fWBD/AHVsNVWpVo3+EXXb6wIf7q2GgqtKUoFKVm9Rc9semeH3DMsgU4qPDCG2Y7I5PzJLiw2xFZT+W666tDaE/GpYFBi9Zshvd/ult0KwS5PQb/lLCpV2uTKSVWWxIWESJAUPgPu7liPv35qW4AQwsVR8cx2x4hj9txXGbXHttotEVqFBhx08W47DaQlCEj4gEgCsXoxgd7xm13HLs76Lmc5m+i55Cpl4usxVhHFmBHUf7CM3s2nYDkrqOkBTqqotApSlArEal6nMYGLbZrVZX8hyvIXFsWSxRnA2uUpABcedcIIYjNBSS48oEJCkgBa1oQrb1IdAY5zFi769XY9efnEhwWgr9oQsfZdWiAy0dvZDqB6Wv5XJKhuQhGwe7j+i3rS6x811nuzeZ5Iw4JEOM41xs9lXt8GFEO45D/4h7m8e+ykJIbTzo3iKmSG411XoRqGxjsu4t25u/uP2IxPbkiOh4tpuRk9MuEf2PMA7lIqxVI28EytOidpxE2r/AGtGukKS7H67fstt3RD61cuXE7NAq2B3+Id+1Buoeo+nlwyb7ioGeY7JyINuveqGbowubwaXwdV0ArnshYKVHbYKGx2Nftl1F0+ySReYuO53j11fxxws3luFdGH121wb7pkBCiWSOKuy9j7J+SvnXCsYyzLMimWWzYEu3QIGpN8yGTlxfi9FYSZEboJQHfSvSSVJSd2g10k/1hV97r0omiuqt6xe34+rT5GNv4XhhxlTrtwiKayZ4SozxDPQWspjrTFc7yENL5SiCgDkqgv72u2iEbEY+fyNZMGaxeXIVEj3teQxEwHn077tIkFzpqWOKt0hW/Y9u1di1ah4BfbSu/WPOcfuNsahJuS5sS5sPMJiK58ZBcSopDR6bmy9+J4K79jU5tiM1yvOsVv0rQyfhkVm7TLnPkyp9scfKU29UZsy0xX3N3VqcCWw2p8BpoFa2zxbrDzMJvUXJcFwRKYLVxyF65NZTAMhKn02Nq5OTmnyEcgUKX/RzyKR/TVDfkkpIfRqMlxx1xhlq/21bkqU5BYQmW2S7JbSpTjKRv7TiQhZUkdwEqJHY1xr9qxpZirdreyjUvFLO3fHjHtap95jRxOdCgkoYK1jqqCiBsnc7kCohd29WbBm9q9A8PmaX6DYc4vGQKuFuuVhQzLiymJKG+imRcWneQMhG4cQjbirYntvkM30s8QF7wyLjdkxG/2kXbDpcB5u2OY3zEtx990w7tIlh53ocVthHoBVstbpUtPsrSH0ZE1+0IuF+lYrA1rwKTeoJfTKtrOSQ1ymCzv1gtoOc08OKuW4HHY77bVqMmxbGc2skjHctsNvvNqmJ2eiTWEvNLHxHioEbjzB8we4qQZfp1nFxt2qPq6yvqeyHDbbbLWGpEcOPS2WpQW2nqL4JUC6jYubIJPmQDWl0KGqibXdE6kDKegH2xbPur9Tet+PD771fU39D6XLbp7ffPh8/wAmg482Nmfh9Zcu9qlXrM9OmTyl2t9a5l3x5gbbuxXDu7NjIG5Uw4VPpG5bW4AGardnvFqyG0wr9YrjHn264x25USVHcC2n2VpCkLQodlJIIII+I17lSHTuOdN9X8k0mjHjj17g/djjkcdkwlKf6Vzitp29lpLzkaQkd9lTXUjZKUigr1KUoFKUoFKUoFKUoFKUoFKUoFKUoFKUoFKUoFKUoFKUoFKUoFKUoJV4TvxWNG/q/wAe/ZzFVWpV4TvxWNG/q/x79nMVVaBSlKBSlKBSlKBSlKBSlKBUq0b/AAi67fWBD/dWw1ValWjf4RddvrAh/urYaCq0pSgVGMc564aoHO3+orBcBmPwscaPFTN4vCQW5NzH95uPu5GZPkVmS53AaVXv6zZDe7/dLboVglyeg3/KWFSrtcmUkqstiQsIkSAofAfd3LEffvzUtwAhhYqj45jtjxDH7biuM2uPbbRaIrUKDDjp4tx2G0hKEJHxAJAFB0aUpQKV4J06FbIUi5XKYxEiRGlvyJD7gbbZbSCpS1qVsEpABJJ7ACou3OynxIPOMwU3DHNJT7KpgK41yy1HxpZ22ci29XkXPZefG/DptkLcD27pn2Q6zXGfhGit3XbrLBfchX7OWm0uNsOIPFyJbAoFD8oHdK3iC0wQR98cBbT7nhXcTF0HxPEHvZnYPE+464NqGykSrYTDWSP8fRDiT5KQ4lQ3CgTS7NZbRjlpiWGwWuLbbbb2Ux4sSKylplhpI2ShCEgBKQOwAFTDMrLkml2ZzNWsBsMi9Wm+Fr7s7BCRzlPKbQltu5w0f2khttKG3GR3eabb4buNJQ4FcpXJxbK8bzaxRcmxO9Rbra5qeTMmM5ySrY7FJ+NKkkEKSdlJIIIBBFdagntm1602v2TrxG3ysgE1LktlD8nFrrGgvuReXXSzNdjpjPKTwX2bcUTxVtvsa9bH/EZpPkkefMiXW9wY1ttpvDsi84xdLU07DCgnrMLmR2kyE7qSB0ivfknb4Q35L2l2cW2x2b1KLFNudluGQT0MSpz0Zh8zRK6CC6lhxSNjIRzPTVtsrYK2G/Hy3w8XzK8ItuJP3mGyqDhbNhU61IkNFU1mRFfQQtrg4homMUlxCkuJCgUgEdg2CNaLFluNLmaaT47t9duHqmJbcit9wtS/Tw2X/RpTTrAkxObKVKS4tkgBSVhLgISrnwPEZgsbE7NfL9cJVymXV2bHLWJY9dr4314jpbkhAjRVuqabXsjrLbQlZ2I25AVP7X4btQHLD01y7ZjdzuGSx7hcVpy295NIRb0Q3YrgRPuSg44+pDquGzTKG9xv1CndW3wnSPJsVyuEpMexR8etbN+EQRpTpeBnTEOMtdEshCENtNJ3UHCeR4hOw5ENS9rdpdGxx3LJWVNsWpmLbpi33Yr6NmpyuMTZCkBRU4ewQByB+EBXjvWuOnNhyOXik6fd3blCbWpxMHHrjMaW6houqjNvMMLadldMFYioUp8p7hsipMnwyZxLiPQrtf7E5EjYfarTboiC9xF3jtPMuyXVlH9Wlp0pbASTu4tR2ISKo2I4nqlh2aXS3W9GLOYXdb1Lvz1wfmSV3TlIHJURMUNhpIDncSDIV7I49Hc8gHe021awzVmDKuWFi/riw3Sy47dMauVpSpYUpKkt+msNdUpUhSVcOXEjZWx7VsqyOleI3LB8PRj92fjOyE3C4yyqOpSkcJEx55A3UkHcJcSD28wdtx3rXUCoHn2OXzUvxGwWsLzm54tP07xCSXrlBYafbMm7S4ymoshp1JQ8307Uta2wUrAdaUFIJQqt5qTqmrF5DWG4VaU5Nnlza52+ytu8UMNk8fS5rgB9GipPm4obqI4NpWshNe/pdp6nT6wyGp9y9bZDe5a7tkN3LXTVcbg4lKVuBG54NpQhtptvc8Gmm07nbch5cAm6mvR5lv1OsljjzYS0JYuNllLVFuSCCS4lh0dSMobAFtSnB37OK77aylTvMtNcok397OdNtRrnj1+dQhD8Kcpdwsk9KBslDsNax0T2ALsZbKz5qK/IhjwvU7A7vld5y3PtQcjiWFD18hW23We0LjXK381qEVo+ituJkNj72UKkbqCULB9pQTubHqwxebKb4/hORWxlcZEmIJRhLE3qbdNthxmQ40ta+SeKeffcVpMTk5TMx6I/m1pt9tvey0S49vmKlRgpK1JC23FobUUrSErAUgFPLidyNzLNQdKsmQqBD09bQxbo0p6TAZ9IKhb7lLWUOTuDnspajNLeW20jfd134KQkGgtIO4BII3+I/FX7UFw3Pb5jeVXHCMcN9zeAlaLfZkTJbJeCoSAi4yXJSwndlLjjDI5c1qeDgGydymkYlqhZsxucaz261XNmW5bTcpjb7aE+rvvxZSy+QsjqKW29x4ckkMrPLYpKg2VKUoFKUoFKUoFKUoFKUoFKUoFKUoFKUoFKUoFKUoJV4TvxWNG/q/x79nMVValXhO/FY0b+r/Hv2cxVVoFKUoFKUoFKUoFKUoFKUoFSrRv8Iuu31gQ/3VsNVWpVo3+EXXb6wIf7q2GgqtZvUXPbHpnh9wzLIFOKjwwhtmOyOT8yS4sNsRWU/luuurQ2hPxqWBWkqMY5z1w1QOdv9RWC4DMfhY40eKmbxeEgtybmP7zcfdyMyfIrMlzuA0qg0WjGB3vGbXccuzvouZzmb6LnkKmXi6zFWEcWYEdR/sIzezadgOSuo6QFOqqi0pQK4mY5pi+n+PycpzG9MWu2ROIcfd3JUtRCUNoQkFTjilEJShAKlKICQSQK5OpmqWO6X2qNKurMy43O6P8Aodmslua60+6yiNwyw3uN9h3UtRS22kFa1JSCazeJ6XXnJMkg6q61CLMyOCVO2OxsOF2240FJKd2twOvLKSUrlKAOxUhpLaCrmHMhYTlet92jZXq3b37PhkZaZFmwZ7bnKWkhTcu77EhawQFIhglts7FzqOABq0UpQKUpQTbI9F4qr7MzfTLI5ODZTPWHp0mEwl6BdXAAAqfCUQiQrYAdVJbf2AAdAG1egNUtScJ/o+q+lFwlRW/hX/C0Lu0Qj+85CAE5pR8+DbUhI2P3zy3rFKDGYdrNpTqBJVb8P1BsdxuDZ2etyJaUTWD/AHXYy9nmz9C0A1s6zmY6b6e6hxkw8+wXH8jZbGyEXW2sywj4/Z6iTxO/fcfHWN97TppD74xMzLGNvgt2LMbrDjp/NGTI9H/zb7UFVpUq9w/JI/a1eI/VWCkeSfSLTL2+2VAdJ+009xnUBXZ3xWaqrT/d9BxhP+qbOD/rQVWvFJkxobDkqZIbYZaSVOOOLCUoSPMknsBUv9wNUvtftbdVbqk/CT90Qt+/2wGmCPsIryRvDHoYl9uXeMCZyaQ0oLQ/lM2Tf3UqHkoLuDjygr6d96D+p/iR0mEt204pfX83urKumq34jEcvDiF/3HXI4UzHP0vuNp8tz3Feqoa9akjpuNR9KbC78PZ1i55C6g+aQU84UNWx+EDL8u3E7EVKDAg2yI1b7bCYiRWE8GmGGw222n5EpTsAPzV56DMYHpth+m8GTExa2Fp64PCTcp8h1cibcZG23WkyHCXHnNgButR2AAGwAA09KUClKUCpTL0pzPDLk9fNF83XDZkvqkS8YyFx2baH1LVussOEl+CokqV97K2tySWSTvVWpQZXK9PoOTzIt1i3y72C5xWXYqZ1pdbbdXGdUlTrKuohaeKlISeQSFpI3QpJJJkORW+dpXkcbK8yt98yGKgzL+49abc/KM69K2YhxlhAUWkMxtm21O7NqWvkpQUO94yDH7Hldkm43k1piXS1XFlUeXDltBxp5tXmlST2IrDYppll2n2QRGMS1DlzMKUVJkWHIErnvwk8Dw9BmqWHkoCghPSfLwCSeCkcQkhiIeteqmPYo9eLzhEXIG4NwFlkSmrkGJMq7uu9MR4kVLHBcdp9xEfqrdSshtxfFXHddmxW/wAW+W1KfXdnuNyhBMe6C2PhxpiWEjqN7clKRsd9kqPLbbesFqDohjd6fnXmw3q4WXIrjHnotrRu8hNv9ZPx1p9KETmWw+lPUPUbQF7KcUeR7jH4fp1kWBBVzjYVmCbfEtS8YhWS2zLYqXHjr4KMhEwvtKWy2WyGuqpT4Lq1HbfikPoelSrGNSspsWAqvOpOK3hg2WeINwuD0dDSnIewKbiWkKVskBSOqE9kkOqTulI3qbbiHUJdaWlaFgKSpJ3BB8iDQf1SlKBSlKBSlKBSlKBSlKBSlKBSlKBSlKCVeE78VjRv6v8AHv2cxVVqVeE78VjRv6v8e/ZzFVWgUpSgUpSgUpSgUpSgUpSgVKtG/wAIuu31gQ/3VsNVWoNj+e2PTO6+IbMsgU4qPDz6A2zHZHJ+ZJcxiwNsRWU/luuurQ2hPxqWBQaHWbIb3f7pbdCsEuT0G/5SwqVdrkyklVlsSFhEiQFD4D7u5Yj79+aluAEMLFUfHMdseIY/bcVxm1x7baLRFahQYcdPFuOw2kJQhI+IBIArF6MYHe8Ztdxy7O+i5nOZvoueQqZeLrMVYRxZgR1H+wjN7Np2A5K6jpAU6qqLQKn2pOqbuLS2MLwiyDKM8ujJegWVD/SbYZ34mZNeAPo0VKuxWQVLI4NpWv2a5mXaoXnIsinaV6KmJNyaEUt3u9SGy7bcaSpIUOtsR15ZSQpEVJB2IU4ptBBXo9M9Lse0wtUmNbH5lyut0e9LvN8uTgen3WVtsXX3NgOw7JQkJbbTslCUpAFBz9N9LXcZmv5rnF6Tk+eXNkMzrytjptx2d+QhwWiT6NFSe/AEqWRzcUtXcUGlKBSlKBSlepdbra7FbZV5vdyi2+3wmlPyZUp5LTLDaRupa1qICUgdySdhQe3XikyY8NhyVLfbYZaSVuOOKCUoSPMknsB9NSFGe6satEe5BZ42K4u55ZdksJxb8xG42Xb7buhSm1J34vyFtp+CpLTyDufdjeGzT24yG7nqc5dNSrmhQc6+XSRMjJWDuFNW9ITBZIPcFthKh27nYbB5ZniZ0TalvW6yZn91U5hRQ5ExO3yr+82v+6tMBt7gfl5bbfHsK8Xu15hchvi3hx1IuKFeUib6stbQ+kplzEPj/wBo1r8qvsXTjGWbpDsDZs9vdaRNRGKWUwIROy5CUAbKS3uFKSNvYCyNyAk8XJNaMaxO5XRF3i3Fy12lUOG7LttvlXJ924Sd1NxGosRl15xQb4OKKQdg4jt5kByxm3iIl94OguPRgfIXTOQyofn9HhPj/Imv37o/FJv20b0t4/TqVcd/8vUX/wCa9q5+InSi0Y9acnlXa9ORL0y/JjMxcZucmYhhhXF95+I1HVIjNtq9la3m0JQogKIJAryZN4gdL8SuLFtutwvj5fhxrgZNsxi6XGGzGkEhl16VFjuMsIVxUQXFp7Ak7DvQeicy8R0XvN0KxOQB5i256t1X2de3sj/Miv592PUC3bnJPDVn8dtPwpFsl2i4tD/wNzA+fsaNae4at6e2uRb4c3Ikok3a7yrFBjpjPLdkz47bjjzLaEoKlFKGXDuBxPHsSSN+JiniH0wzOS/Es72UMLjTmrY6q64deLW2mW4tKEMc5cVtJc5LTugHdIIJAHeg9RHid0cirQzlt9uOFurUEbZfZZtjb5E7AB6Y02yvv8aFqH01SrXdrVfIDV0styi3CFITyakxXkutOD5UrSSCPzGvZcbbdbU06hK0LBSpKhuFA+YI+MVMbr4btKJE96+YtZZGD3t5XUXdcRlLtD7jnlzeQxszKO3baQ26nsO3YbBUKVHXLxrrpQsvZNEGqWLI3K7haIKYuRQ0dvadhI+8TgO5UqP0XANghhw1S8Ty7Gc6sEXKMQvUW62uakqZkx17pJB2UlQ80rSQUqQoBSVAggEEUHXpSsxkup+nWHTm7Tk+b2S3XF9PJiA9NbEt8f8Ay2N+o4foSk0GnpXjS80tlL4VshaQoFQ49j5bg+X214bbc4F4iJn2yW3JjqWtsONndJUhZQofYpKh+cUHtUpSgzucaeYVqTaU2XN8ciXWM04HmC6Cl6M6PJ1h5BDjLg+JbakqHxGvQ0+wzJ8JM+2XTUS5ZRZT0jakXdlC7hC259RDstO3pKDu3wK0dRPFXNx3kCnY0oMZkWKaXZtkjlsvbNsl5FEhNuONMzCzcGYi1qCFHpLS6lsqDgBPskhQHx1pLDYrVjFkgY5Yogi262R24kVgLUvptISEpTyUSo7AAbkk1ns+0nwfUj0WTkdqWi6W7dVuvMB9cS5W9R+NiU0UuIG/cp34K8lJUO1dbD7JeMdx6NZr7ls7JZcYrSbnOYZafeRzPT6iWUIbKgjikqSlPIgq2G+wDtUri41mmI5kia5ieS227i2y3IMz0OSh0x5DailbbgSd0qBB7HzGxG4INdqgUpSgUpSgUpSgUpSgUpSgUpSgUpSglXhO/FY0b+r/AB79nMVValXhO/FY0b+r/Hv2cxVVoFKUoFKUoFKUoFKUoFKUoFfK+iFoiaveITVvUdu/MXLCsWzxKbNCaG7ci+ox+0xZExzcbLDCGihgj2SZDy++zahUNZshvd/ult0KwS5PQb/lLCpV2uTKSVWWxIWESJAUPgPu7liPv35qW4AQwsVxdD4uG6YXHW+DGFtxzF8ZzCCy2FLSxFgw2cSsAG6lEBKEpT5k/F3oLlUXm5xlWt12lYlpHOftGHRFqjXnOWduUlaSUuRLRvuFuDYpXLILbZ3DfUcBLXgXEyvxHvodlquGN6SkEpikLjXPLUfEXfJyJb1D+z9l58Ecum2eLtogQINrgx7ZbIbESHEaQxHjsNhtplpICUoQlOwSkAAAAbACg5WGYTi2nuPRsVw2zMWy2ReSkMtbkqWolS3HFqJU44tRKlOLJUpRJUSSTXcpSgUpSgUrJZzq1pppqWG85za02iTM7RIT0gKlyz39liOnd15XY+y2lR7Ht2rI+63qXmA4aVaJXb0Zzbhec0eNgiEH8pMYocnqIHfi5GaB3A5juUhW6jF1tTWtesVzxrIGUv4Vpm5CU9b1Elu6X95pMpHpCPJbUWO5FcQg7hTsgKUN2UV7nuSal5h7equtt29Gc352bC2TYIhB/JVJC3J6iB25NyWgdyeA7BPFwO02Lw/as3TT9qOLZieorrF0xx92S46n101GSxMhLW4VK6jjUdiQgqUS6r0r40HkF1pSlByMtTe3MbuLOOWW1Xe4usKbZg3WauJEf5dih11DLykJIJ8ml/Jt33qInBNUtO7fp5p/pzidkyZdpXKv97n3y/TbfHdlhJbS0mQmJLWo8pJKEuDl046Rv23rbZ/rm3gV/m2VOmOX3+NaYcafdbpal2xMWAy+taEKcTJmMvL26SyQ024dh8ZO1J2ujUHN3cTOmWXvW6PeY9gfyRtdsFtZmPIbUhJQqYJZH31sFSY5AJ+QE0EdXo9rtn2Hwsau8eLY2YLt9ttwgws4vVrYQ9IkqdZuDLsNhh24thDqkejvdFs7EhW5rfW7RzUB7E8psF3OPRn7hjNmx23LjXB99DhiMr6jz3KOgtbuOqSlKQ57KAokFRQnrwvEnicx2e47imUxLW3bZ91tN3ejxjEvseF/vBiFD6nElPYgSEMlYPJHJIJHJs2tsrFncwtWTXa453cscTbXWmrPY49vKkTXS1Gihb0vpOy9ykvLK2WhyTshvumgWbQfKY2cv5neb1apSmsyeu9rZbS4n0O1OJeWtvcg8pDjzwKiAlPBtpO5KN1fznmi2Z3rB8nsto9XS511zdnJorP3Rz7JyjIcYUWzOhtKkRndmle00lXxDfYnbT2DXiy3Jao2TYhkOHzGLhJt8uNelwVGIpiEJinHHIsl9rpllQIKVqO/Ygd69NjxF2K62Sx3nFsBzTIF3mM7cHIECFHE23wW3lMrkyGXn2yRzSQGmuo+rYhLSiFABpNIMZy3EsJYs+Z3D0iemQ+6hr1xJu3obClktx/TpSUyJfAduq6kLPxjsK2tTXF9Zbjk2o1y07Vo5m9qVaUIek3ae7aPQgy51Og4EtTlyNnekviOjyT25pRVKoFRjMbU1o9qZaNTcZZTGsub3mJYMwgJJSyuVKUGINyQgdhI9ILEZw9uo2+kq3LKKs9RbWoW7VjKLF4fYsePdIy50LIczaXspqJaIzofYZeHkVSpLLLYaPwmkyFHsnZQWmshetOocrI05pjV0kY/flqaTNkxUJU1cmEEfepTKvZd9nslY4uI/JWBuk8ax+HzTXFbxDvWIs5DYnITyXURbdktxagubH4DkLr+jLSfLZTZ+jbzrZZTAyG52GVBxXIWrHdXOBjz3YQmIaIWkq5MlSQsKSFJ+ECOW4O4oJjk+j6LZl0zUQWmBmjHVdufoOQMrnTLS+hsqQu1LKV8PbSNmOIO6t0OJACDiDH1OtWIXK83fK8sg3OxWLHbZbkuSXA1IvD2ynnVpcBD+7kltpQVuNkEfCSCKtjsLxCW+9xGMqyTT6+2Yr2kyINmm2uWlGx24tqkyULVvsD7SB3J2/JrYZTe5eOWGVeYOM3XIHo3Apt1r6HpTwK0pJR13GmzxBKyCsEhJ48lbJISGXqhmUXH7xqBNynHY1ujyr5EasTyOlILMBMhIU05yKlyStgLUgpCQ2ojYFPJXXwjUx6yYYzAv8OZNkWS7WvEjLXLLz0+W6zGDr6ysbji48vlupRIbUd9ztXq2PINHs1zCTCuuit+s2T5LGVBmS7vgclgzGEIKyy9ckMqYKQlB2Sp/vsAkE1o7xpJp6xdm8quU2dAZYvHrpUdd1W3AVOcaUwXFNKVw3V1PIbDnsoe0SSHIV4hLHJvdgiQrRPiWe8uTZIvVzaDEJ62xY7jj0tpwKOyAsNJHVDZUlfNIUn2q1cLVrTmbbJN4+6mNEiQnGWpS56Fw1MF1XFpS0vpQpCHD8BZASr8kmp5efDdNvePIxlzUJTtmtuPSbDY4qrcB6O24uOpC3nEOAvEJjhs8eHJCj5K3UffxTR/L7Wb1cV3O1We4XsMQpBVNuWRf0BsO/e0ruD4Q2VLdUoJSzwQCUkObhQCwhaVAFKgQobjY+Yr+qisnRO643iFvwjEmvujaZnuz2Lne76bXIsSyAEC3pgw+KEJBUAykNI4lSSVBRBp+F27KLTjEC3ZnkTN9vDDZRJuDUMRQ+dzxUW0kpCuOwJGwJBISkHiAzed6K4hm1zTlUZ2fjOXMt9KPk1heEW4oSB7KHCUqblND4mZCHWvj47962FzucPHLFLvN3lPqi2uI5JlPBlTrhbbQVLV02k7qVsknihO5PYDyFe/Sgz9t1BwS8YevUG2ZjZZOMNRXJrt4ROb9DaYbSVOOLe34IShIJUVEcdjvtsa7caTHmR2pkOQ2+w+hLjTrawpDiFDcKSR2IIIIIr5F8cOkWosnFbrJ8NmkDM3IM0ttzt2WXNnI2LPB9Cdj9Ja5sZx1tua8pDqy28r2miz3VxPBU3/AOjz1y1gwjTKXorqlp7f8tdxFbcXG7hiTka+R3Y3tBcN6cw8qIyphSQEh19B4r4gANUH+g9KlAy7xHZAN7Fo5jWMsK/tMnyjqSkf+WgMvNK+n+kj7fi/TifiUuZ5XLWbC7Sg/wBlZ8JeU4j/AJ0me4lX5+kn81BVqVKxpRqq/wB5vihzZknzFvslgaT9gegOn/U0Gjuoye6fFbqio/EF23FyP9LOD/rQVSlSo6aa1RO9s8Sd1kEeQu+MWx9J/P6O3HP+RFfht/ils6d2co0wypKfJt+zT7ItX0KdRJmJ3+kND81BVqVKFas6o46f+vvh8vgYT/WTsTuke+R0f8tfo8tQ/wCCMo/QK7+E626Xag3FdixrLY/rxlHUesk9l233VhPfu5CkpbkIHY91IA7H5KDcUpSgUpSglXhO/FY0b+r/AB79nMVValXhO/FY0b+r/Hv2cxVVoFKUoFKUoFK52Q5DY8SsNxyjJrpGttptMZyZOmSVhDUdhtJUtalHyAAJqZQdUdastiov+AaEwhYX0h2M5lmTLs1wlNHycRDahyS2FDulL62l7EckoO4AV6lYfTrVa257MuuOTLLcccyrH+l63sNzCPSI6HQrpPtrbUpt+O4UOBDzaiklC0nitKkJ3FArhZzl8HA8SumXXGJLltW1jqJiw2S7IkukhLbLSB8Jbi1JQkeW6huQO9d2lBGcVXb9DcGvOrWtt0YjZVlclmdf1R1LlcZKkhuJaYKEgreS0nZlpttPJ1wuOceTqqnOjGAv6z6m6q5tqpabjbbZBz2FMh4NNcacYamJx2yqZmTumSl90NejqSwSpthwLO7iwhaLHiel10kZT7pGq90iX/Jo63UWaPHbUm3WCMokcYiF91PrRsHJK/viu6U9Nv2K9PRv8Iuu31gQ/wB1bDQVWlZLOdWtNNNeg3nObWm0SZnaJCekAy5Z7+yxHTu68rsfZbSo9j27Vkfdb1LzD2NKtErt6M5twvOaPGwRCD+UmMUOT1EDvxcjNA7gcx3KQrdZLOdWtNNNeg3nObWm0SZnaJCekAy5Z7+yxHTu68rsfZbSo9j27Vkfck1LzAc9Vdbbt6M5vzs2FsmwRCD+SqSFuT1EDtybktA7k8B2Cddg2kummmpfcwbCbTaJMzvLmsxwqXLPb2n5Ct3Xldh7TilHsO/agyPut6l5h7GlWiV29Gc24XnNHjYIhB/KTGKHJ6iB34uRmgdwOY7lL3JNS8w9vVXW27ejOb87NhbJsEQg/kqkhbk9RA7cm5LQO5PAdgmt0oMlg2kummmvXcwbCbTaJMzvLmsxwZcs9vafkK3deV2HtOKUew79q1tKUCuJmWF4vqDj0rFcxs7NytkviXGXCUlK0qCkOIWkhTbiFAKStBCkqAKSCAa7dKCOIk626QERpNumarYi32alRlss5LAbBASl1tZQzcEpG5LiVtPbD+rfWSo6zCdatMdQJy7JjuWRhfGE8pFinoXBu0Yd9+rCkBEhA7HuUAHY7E7Vt6zea6b6fakQUW3P8KsmRRmlBbSLlBbkdFYO4W2VglCgQCFJIIIBBoOLlmlf3UO5g5699G+6u0w7Xt6Lz9G6Cnlc/hjny63l7O3HzO/b1Iukt0dYnm+ZTEky5+YMZQpyLbFMNpaZU0Go3BTyzy6bCEqd5bFRUoISNkD0R4fYtm3Onmq+o2HgfAYjXz1pFR/hSxdESm20/wCFsIHybedfv3J+JO0jjadZsOvLSfyb7hjofUP/AK0Sa0gf+yfsoMNjHg1sGKTcgVZ38JgR7jablarfLt+Bw495SJgILk6481OTCgEgdNMfn/aFw9607Xh1ft0aDCtGbJDYbtKLo9NtnXkT1RJzs150LQ62lt155wbnipKACAk7jj0xO8UsTsrGNK7rt+UL7cbfv9noj+3+Zocj8UoUEjRzSwj+97pNxH+nqOg8GU+H5nLMqZv03LZDMA5OMhmW9qInaaz6uRE9CcWpR+9qU2lxRABUN29gCSfXOhuX2OTCumnupcKx3T0aXbbjLl4+J3WhvTXZSegjroDMhtTywlxzrNnfdTKvKugbl4pZXYYXpXbN/wAo5PcZ232egMb/AOYr+fuc8Td03TcNVMAsjSvNFrw+VJfH5nn5/D/Ng0GvsmFKtGcX7M13dUlV7gW+EWVshKmzF63tlYOyivreQSkDj8e/bxZzqvpvpqhn7ucztdpfl9okN18KlzD39mPHTu6+rsfZbQo9j27VlDoPcb0B7oGuGpGRoPw40e6NWOPt/dAtbUd0p+hbqyfIkjtWowfSLTDTZb7+C4JZrPKlneVMjxU+lyj2G70g7uunsO61E9hQYxzL9Z9VFmFp5i8rT3H3Nw5k2TxE+s3E9u8K1q3KCQSOpM6ZQR/u7gNbrT/TjF9NbS9a8cjvqdmvmZcrhMeL825SlABciS8r2nHCABueyQAlISlISNRSgUpSgUpSgVzr/jmPZXa3bHlFit14tz+3Vhz4qJDDmx3HJCwUnY/KK6NKCf4voFo3g+QRsmwjT6143NilwtpsyVQY55oUhXKOyUsr7KPwkHY7EbEAjT5dZb1f7I7bsfy+fjM5S0LbuMKPHfcRxO5SUSG3G1JUOx9nfY9iD3rs0oJ/imPa3Wa+x/un1NxnI7BssPtnF3IVx34HgUvty1Mn2uO46A7b7Edq0Ga37JMdtLdwxfBpuVyS+ltyDDmxozqWilRLiVSFobUQQkcSob8t9+xrQUoP88fEd/0jeaeHHxEWGDf9Pr4jErvY2fW+J3YQEXS3vB90emxnojzza0rQQOC1lKiwQCjfkPqG2+KHG9R8fx9zQm2SMsv+VwDcIEOW07BYt0YOKaVKuK1oKo7IcbcQkJStbykKDQWAVp1/uCaMK1DuOrMnTSwTMwurjLki8zIiZMlKmmUMt9JTvLogNtoGzfEHYk7kkmLqkXuw+EO9ayxJctzMc7aiZbOmW6Y2JK1Sn2VR4jL6VpRwZjKajN7LCOKNyr2lKIUmF4fomUSW77rzkL2oVyCg6i2SGyxj0FXY8WLaFFtzYgEOSS+6DvstIPEVmPHjxI7USIw2ywyhLbbbaQlCEAbBKQOwAHYAV883vWjNmNRDcLvgORYDEteFXi4Ij5Zc4JgzH0SIYQ4pNrlTFexyKe6As9TigKKjtwbdrzc8nsF7sGqKos21xLxChT7gnEr1ibxhvQn5JU1EmvGU0825GHB9DmyiQUBKk7gPqilfL1kzLXC3adYynDZGG4qlWXP4o7b75abjfpDba5q0MvOSlXFlxx8I9p4rKy46pRCx5nVyddMwh5TEwluBZrhPj5ZGs93lNsOstMW9xLCA6lsuLIecfeVwSVFIQ24TyKPaC7UqSau5ZqxbsjTZdNb/AIlaW4eN3C/y13zH5N0U+phxpKGm+jOi9IHmrdR5/FsBt3zOR6pazqemX3Gr1hUKzWS0WG4zoE7HZcuVMXNUrqpakontIYACQE8mXSD3PLyoPoGlfNtr8SOfXjVORZbbi0qRjbd6uVhcYThN63ieipdAuC70Abe42p1koLACVJ6id3SpKkVycF1Odtz+Q5TiONw2m5uESsjlSZE6bJYXeWENOvMRWHH1Nx4iVyiFIa4cnervspJUoPqis5m+nWCakW1FpzvE7Ze4zK+owJbAWuO522cZX8NpY2Gy0FKhsNjUkRq5qhg02VC1NyHDLmyx9z8tU62WGTa248WdIfbfC0OzpPJSEsckrCkjv3Sdq8dl1p1Yzt9rFMfgY9jGRXO53RUJ+722TPjxLbFaiutofYbfYUqSsTGgrZ1CUEL2C+Oyg7q8a1W0XSZ+E3i66h4ex7T+OXiV173CZAA/2fOcIVK2Hfoy1KWrvxfHZBpGE5tjOomMw8uxG5JnWyclXBfBSFoWlRS4042oBTbiFpUhaFAKSpJSQCCKnEK+6+K1lt+H3XJ8Aj2R2yi9y4cfG5r0pAS6205HbmKnoQrdalKS6Yw7bAt7969202tWFeIqdb7O401Z8/x2Tf5cEOoSGrrAkRY7kpDe/Ld9mawlxQBTvFbJ2UvdQVelKUEq8J34rGjf1f49+zmKqtSrwnfisaN/V/j37OYqq0ClKUClKUEm8SnS+43HfWm3qL7tcd9dc/6v0T1izx6nxdLr9Dnv7PDly9neqzXOyHHrHlthuOL5Na41ytN2jOQ50OSgLakMOJKVoUk+YIJFQjJbPrVpJeMBwDANYoUyw5ffncdjHLLAu7XC1NN2qfPBRKblRy+AIHST10LXs4FKWspIUGvy3pe+X089VbesfubyD1p0/P1b1IXDq7f/AKnp9Pl/87j+XVZrD6daU23Apl1yOZerjkeVZB0vW9+uZR6RIQ0FdJhtDaUtsR2ytwoZbSEgrWo8lqUtW4oFKUoJVM1Q1QyKW/btMdFLiptpwteusvmCywDsSCptkJdmubbbgKYbSrcbLG5Il+lGlmdZtnms41I1cvMdCM3jNz7XhpNkhynDjdlUFl8KXPTxaU0397kthRQpfFPMJR9S1KtG/wAIuu31gQ/3VsNBqMG0l0001L7mDYTabRJmd5c1mOFS5Z7e0/IVu68rsPacUo9h37VraUoFKUoFKUoFKUoFKUoFKUoFKUoFKUoFKUoFKUoFKUoFKUoFK/h11phpb77iW220la1rOyUpHckk+Qoy8zJZbkR3UOtOpC0LQoKStJG4II7EEfHQf3Sp1qRrFjuIW+7wrPfLTKyW2R1yU2t1wqU70kddxn2SNniwFrSjfltsriUg1/E3WWD6uk3a1wC5GteQwLNcVPLA4sSkslqSgjfdB9JZPf4uXyUFEEiOp9UVL7ZeQgOKbChyCSSAojz2JB7/AEGuNled4XgkZmbm2VWqwxX1FLci5SkRmSRtuOoshIPceZr5cyDJM4vJg5TYM8VLzPMrTdscex9hLMdy2So6y+GG1tcHm+HRfZ6jq1KDkhKkrQFAVQ9IrBmN1hZDb7de8gsVruHoq/SnLFLtfo7oU4JDMSLcVuvocKA3zklSmlKVybRy5KoNtftb7HbrK1l+NWOVmGKFlb7+RWG72hdvjBBIVzcfmNE7bfkBfnt59q22O3tnJLFb7/GhTYjVxjtyUMTY5YkNpWNwlxtXdChv3B8q4MHTnTuK1a7FFtEZacce9PjxVyFucJDhJEp5ClHqulSVqDroUvnzUDy3NetnGa57ZbszYMF0juOTyHoyZCri/dItvtUclSkht15SlyOfs8iGo7gCSNyCQCHVzXUfT/TaLCn6h5vYsZi3GUIUWRd7g1EaefKFLDaVuKCeRShR23+KonhUzA7JHX4eszmxLvgt+mLcwi8sTN4Uxlb/AKQi0KfZUA3Ijr9lpPIdZhLfHkpLgroeIDT3PNVPC1qNimouDY3k2SzbXNdsVnsfUcbYlJY/ohS9IKC4829uvmEtck7ICN9+Ux8Fn/R1YNoDgNxc1TgwcqzDLbb6vvaHh1YUWGpaHDDaSey9lttqU4RvybTw4gbqD6nyzTfCs4cddymyJnKetkmzrJfdR/RH1NqdQOChsSplshY9tJSCkis9F8O+kEdpDT+LPXIifAui3btdZlxefmQioxX3nJLq1vLb5dlOFR2SgHcIQE8VrBNZdL1baXZbGy/HG/6vGsvlOiVFQANm4l1SlbhSADsiU2+okgdZCRtXnT4jsZsREfVfEsr07kJ7LevdsU7be3moXGIXoiU/GOo62sjuUjZQAbhen+IuMNxl2jdtq8/dAhPpDvaf1C51vhf3yTx+D8W23avUjaUaew7ldrxFxlhqdfbxGv8AcZCHHA5Jnx0NoZdWeW54JaQAj4HY+z3O/UxfNMOzeALrheWWa/wjsRJtc9qU0d/L221Ef612aDkXLE8fu89253G39WS9bnrStfVWneI6pKnG9gQO5Sn2tuQ27EVxYekeBQYl4gs2qW4xfvRRORIukt/kmOlKWG2y46ostoCQQhvincqO26lE7GlBhV6I6ZuZmrPnLDJXdVOOyAhV0lmCiS42W3JKIXV9FRIUgqSX0tB0hShy7nfxDQjStrFoeFw8Zcg2eBa3LLHjwbjKilMJxxDjjRcadStQWptJUSoqV7QUSFKB39KDH5PpFpxmalnKcWj3JLqrcpbbzjhbUYD6n4m6AriQ26pStttlb7K5AAV6+T6L6d5dHfZu1ruDLkie5clS7beZtumJkONJacKJMV5t5tK20ISpCFhCgBuk1/OW66aPYNN9VZPqPYot0JIRa25aX7g4R5hERrk8s/QlBrPHVjUnNfvGk2j10ajuD2b7moXZYSUn8pERSVT3FDz4LYYB3A6g77Bqrha9MdLbd93Nwbt2O2/G7N6rEpTpZjxLelaVBoI34fDSgDYcidkjffY5fSm333Nswumu2UWmbZ0XKAiy4xaJrXTkQ7SlwurkvoPtNvynOC1NHuhtiOkgL6grz43om5IvsLONYMtezvJbe6JFvS5GES0Wh3bblCghSglY77PPLefG5AcAO1VKgUpSglXhO/FY0b+r/Hv2cxVVqVeE78VjRv6v8e/ZzFVWgUpSgVz7/j1gyyzS8cymx2+82me2WZcC4RkSI8hH91xtYKVjsOxBFdClBKveneFj5tOlX6m27+DU01Y8Mnhtt2eaMQ7f4fNNYse6ZxKiTmmcTgIRKYGN3p4NOpDWy0B1lpwJVuObaFeaQR9QVKtZPwi6E/WBM/dW/UD3p3hY+bTpV+ptu/g1pcH0c0h0ylSZ2m2leH4nJmthmS9Y7HFgLfQDuErUyhJUAe+x7b1sKUClKUEtl4d4gbTLek4trRZLtGW4paYWUYslxYSSSEJkQXowRt2HJTTh2HcE96mGlGZ6345nms6rnoxEydas3iqnqxjIWA4h4Y3ZQENNTxHSpJaDSt1OjZS1p2IQFroXul5TpLekWLWtxuXjs+SUWvN40cMxWitX3uNc20+zFc3ISmQPvDnYHorIQr2dGiDqJrqQdwc/h/urYaD898jhts9jOMUzzDlj4S7xi0xUZHy8pkVD0VP2vd/i32NavDdWtLdRNxgWo+MZEobhSLXdmJK0EeYUlCiUkd9wQCNu9aysnmWkuluomxz3TjGMiUNild0tLElaCPIpUtJKSO2xBBG3ag1lKlHvbsNtnt4PleeYcsfBRZ8pmKjI+TjDlLeip+xnv8e+wp9w/iFsGxxzXS05A0j+yy7FWlvOD5OvbnYiEH/F0FD/AA/IFXpUo+7jxC2DcZHoXacgaR/a4jlTS3nB8vQuLURCD/h66h/i+R75HDbZ7GcYpnmHLHwl3jFpioyPl5TIqHoqfte7/FvsaCr0rJ4bq1pbqJuMC1HxjIlDcKRa7sxJWgjzCkoUSkjvuCARt3rWUClKnmp+ol+sdyten+nVpi3fNsgQ49GalqUIdshtkB2fMKTy6KSpKUoTsp1xQQkpHNaA0ma59hWnNnN/zvKLbY4HUSyh6bIS31XVHZLbYPdxxRICUJBUokAAmsH7rWpeY9tJtF7g5CX/AFd7zKSqww1j+83GLbs5XbuA5HaSrcALHcjr4RonjmMXpOcZJNk5hnC21IcyS8JS4+wle3NmG2B04TBI/qmQncAFZcVuo0SglAwDXnIt15ZrwzYWl/8AZcNxyOwpA/umRcDLK/8AiS22fkCT3r997hh84b5TmepGRL8yZub3NhpX52IjzLB/9uprlcyfmuVas6MWF19lufcPT8onMrU2qJaTaYiQwhaSCl6SpKm0lJBS2h5YIUEb+5aMtzPHE6byrZm0qRYJlqhWiXb2Y1vNugPm1pdbbfV7c4zXFlC2+PCOGgQ4AShSw348LHh3X/v2kWPXM/Gq6RzPUfzmQVk/bX771Hwtk8j4bdLSr+8cPtxP+fRqOYxrnqze3NKbEcqbVcGLqynNFGBHDt0jSoylwkBIRxZDiVdQqaCTuwUjYEiuRjOvOvUmz3LLrmi/Ro95xK7XuNHua8aEeLLjLQGhamo8gzXGhzUh301tRSoN8i0SUEL0fCt4cU/7lotiduPxKttuRCUPzFgII+yv597Xp/D3Vjd9z/HnPyTbM4u6Wk/+XckLYP2tmpvefEfmllyi4Tsqx2/YdaoFwsUVNlu4tbsqT6UxP9htcN+Qgl95qO2hPV580gBKeXtfkq5633zE7HcbnrTfMavDufP45PasFttCo/ozs5aUIHpkN9RWy2EtpWCOWxUpJJ7BSDplrNYAFYb4h7hPSjumLmGPw7k1t/dDkMQ3tv8AEpxZH0+VfwdRda8O/CHo0i9wEfCuuD3H05SUf33IElLL6e/5DCpKvI/Lt6OHawX225tdsEzLHsomwG8l9Q2zK3k2wQnXfQ2XEMLQw8mQHFK6pK/RQ3uduQTttaKDK4Hqnp/qYxKdwjJ4txdt6w1OhkLYmQXCNw3JjOhL0dexB4uISdj5Vqqw+oGjuFaiSo17uEeTasktyC3bcktDvot1gpJ3KW5ABKmyQCplwLaXt7aFDtXHwLOsvtOXK0k1aEVd9MZcyx32K30YuRRGyA4enuejLa5JLrIJSQoON+yVJbCoVhM01ThWDJIWAY/Hj3XLbi0JLcJ2SGGYsXlxMmQ6QeCNwQlKQpa1AhKdgtSd3WV1Gc0tgY6/d9WlYtHsUdPF+TkXo6YiAfiUp/2Bv8hoMflWa5g3nirdd7Bkdnw+1rbV6TbLK5dnb64pIJQRHQ6Y8ZJVsoFHUWQe7aB98nMDTibqZd5lozq0zLm5DtE+0W6fKZKmbNdYEpSY06OnbpxpDseQwsONhKvvJAOwIqsaf6tYBk0yFimmmPXt+yx2C2zcomPPw7LHbQn2ENPuobbcSQAE9Dmkdh2rT5tZ8vvtpbgYZmaMYlKkJU/O9WNzXOhxVyQ0lxQQhZUUELWlwAJI4HfcBO8YwvWSGldvdcsEG15HMYvV5fckKdnw3loZ9MgoZ6KmXm3ShxIe6qChLh2QopBrlZXp/pDptbrJAym15lkkiRDYtzVutMO4zk3QQgAwqTHigs8m0rSA49xT7KST7CeNCwfSqNht1dyKfnOZZTeX46orky+3hTjfTUpKlcIbIahtKJQn2m2Eq2G2+3atxQYXT2937JLpc71dtHJeFtPttBmVc5MJc+dtuPvrcVboQkDYp5ulXcgpQRtXuZ5pvB1CXCZu+UZTAgRQ4HoNmvL1tbm8uO3WdjlD5CeJACXEpIUrkFdttdSgy+C6YaeaZxpUbAcNtVj9PUlya7EjJS/MWnfit93+seWAogKcUo9z3rUUpQKUpQKUpQYHJ9AtEsynetsj0qxeXc9yRcRbWm5qSfPjIQA6n7FCuOfDhh0Q747mepVi2+CiHnV1dZT/AMLMh91pI+gIAqrUoJWNFMsY7W7xK6qRE/EN7LJ2+2RbnCftNfidG9Q9z1fFbqmtJ/J9X4un/VNnBqq0oJUdCLjK7XnXvVW4JPmBdosLf7YcZkj7CK/D4YNH5adsltt/yoH4SMmym6XdpX/KlSHGgPoCQPoqrUoODieBYLgUP1fg2F2LHYuwHQtNuZiN7DyHFpKRXepSgUpSgUpSglXhO/FY0b+r/Hv2cxVVqVeE78VjRv6v8e/ZzFVWgUpSgUpSgVANftQbdatR9P1xbbPucbTa8ry/L5EJsOIstrftlwtrbz/ffflOW/wSFL6MR9fHYDej6s6iSMBsDLWPWxu85dfXvV2NWZThR6dNKSr21AEtsNoCnXnNvYbbUe6uKT/emGmcLT/HJUOfJTd77fpC7nkt2daCVXW4OJSl1xSfJLYSlLbbfk2022gbhO5DYRpMeZHamQ5Db7D6EuNOtrCkOIUNwpJHYggggivLUXwYuaE5lG0dnISzgV7UfuFlqV7MCRspbtkWdtglKQpyLue7SXGf7FHO0UClKUHLgXHGc3x4TbbMtt9sl1YW2HGlokxpTR3QtJI3StJ9pJHf4wfjr5f0qtWX6EZzrGjTTF3cj09t2dRmZmOxluO3W2pVjtmdMiCpxZ9IbSHQ36GSkobZbDB7BpVGyRtHh0ym5alRVODTfJZfpGVRE7lFgnrIBu7afyY7h2EpI2CVbSP+/J6+i7jb2oOujzLiVtrz6EpKkncKBxWw7EH4xQb7EswxjPLBGyjD73FutrlglqRHVuOQOykKB7oWkgpUhQCkqBCgCCK7NSvL9JrxZ77O1L0PlwLFlk5aXrtb5QULTkfEAAS0IBLUjikJTLbBcSAAsOoARXc061ZsWfSJ2OyIkiw5fZUIVecbuBSJkLkSEuDiSl+OspPB9sqbXsRuFBSUhuKUpQKUpQZPMtJdLdRNjnunGMZEobFK7paWJK0EeRSpaSUkdtiCCNu1ZT3t2G2z28HyvPMOWPgos+UzFRkfJxhylvRU/Yz3+PfYVV6UEo+4fxC2DY45rpacgaR/ZZdirS3nB8nXtzsRCD/i6Ch/h+TlaEJv8zUzVq66hRrUzmTNytVscRbnXHY6LS3bWXovRW4lKy2p+RPUQUjZxTqRyCearZUv1JwzLbZlUTWLSqFGmZHEiJtl5s7zoZRkFrStS0MB1XstSGVuOrYWr2d3XULIS5zQFQpWS0+1Sw3UuJKcxu4OIn21YYulpmtKj3C2Pkb9KTHXsttXyHYpUPaQpSSFHW0Hos2OyxnrhIj2eE07dlhyetEdCVS1BAbCnSBu4QhKU7q39lIHkK4zel+mbWSR8ya07xhGQRIQtse6ptEcTGYgSUiOh7hzS0EkjgDx2O21RrWuzuXTJM9v6soy+DJxTHbVNtTVqyq526K08t6SVrcjRn22X+XTQD1ULBA28u1em6mBkGX3PUux51kk56FqVAsMYQcxuKrT0EpjNSI5hNyPQ17OKeSsKaKgsK32UnsF8j4PhUJ5EuJh9kZeaMdaHGre0laTHQUMEEJ3BbQpSUf3QSBsDWRwCD4fMxmZRkWnOP4XPmXV30LKJlvtTAelPjflHnLCApbqDvzad3WgnZSUk18v4VqDqXIueXSbnnkFm+R8XyGRk1ri51dLnOhSWwTFcXa1w0x7Gts+ygNvpDqVbp6xAWNldM0yW+G7ScnzS92WLmsLFmLHa03V+2yGmH7m60QyULQ8iU+whbqyghwJIT26dB9SScVxibOF0mY5a35ocYeEh2G2p0OM8uivmRvyRzXxO+6eatttzX9qxzHlIS0qxW4oRN9YpSYqNhL5cuuBt/W8iTz+Fud96+aJV8yHTDLW8Lwy75TdFyM3k2W0RrrebjePvjthaeR6Q9JdddMdtxS3jzXxTxPHY8RXLZyi2wLbi1m1r1myex2iPbbgq03pvIJMCbdr01c3mgjdkj059LSWyiEUuoXzI6KwAAH0nG0q0vh5q/qVE03xZjLpIKXr+3Z46bk6CgIIVJCOqr2UhPdXkAPIVqah2nmDWyFr7mE5rJc6lNwbbbJ8WJccxvEiI27LMrrn0J6QWEg8EbILYS3xAQlG21XGgVHfE63KaxfErvjzcVWWW/N7EccEklKFSXpSY76FKSCpLaoT0wOKSCQ2VkJVtxNCzfP8N03sisize/xrVB6iWW1O8lOPvK7JaZaQC486o9kttpUtR7AGsFiGP5bqZnEHVjUWxOWO1WIOHDsclbGVHcdbLblymhJKUSVNLW02yCei247yJW4pLYdjGcQ1kdvkTIM/1cilmMor9RY5YmokF3dJAQ+9KMiQ6Bvvu2tjdQB2A9k0F+PHkoDclht1AUlYStIUApJCknY/GCAQfiIBryUoFKUoFKUoFKUoFKUoFKUoFKUoFKUoFKUoFKUoFKUoFKUoFKUoJV4TvxWNG/q/x79nMVValXhO/FY0b+r/AB79nMVVaBSlKBXMybJrDhmPXDK8oujNutNqjrlTJTxPBppI3J7dyfkABJJAAJIFdOvXnW+Bc4xh3KExLYKkLLT7aXEFSFBSDsoEbhSUqB+IgHzFBMNJ8Wv2SX2RrnqXZVW/I7pHXBsVqf2K8fsqlhaWFDb2ZT5Sh2QfiUG2tylkFVXpSgzuoGBY7qZic3DsojuLhzODiHWV9N+LIbWHGZDDnm2804lDiFjulSEmsxpDnORXJVx051LMZrO8X4iYplHTau8FRUI10YT5BDoSoLQN+k8h1vyCVKpNeubfAVPRdFQmDNbZVHTJLaeqlpSgpSAvbcJJSkkb7EpB+Kg9ilKUHikxo8yO7DmR232H0KbdacQFIcQobFKgexBBIINfK/h/ukLRLWnVLSF22vx8KuebxouN3iRLLoYuJx20OC0uFQ+9oDCmURdyeQZW2TyDfOoaWTZWnmb3bQm+SHnIgQ7fsMlPuFRftS3B14QUSSpcN1xKO536D8bzIWa5mH4dj+oF88RGG5TC9Ktl0zqIy+gLKFp/6rWBSXELT7SHEKCVoWkhSVJSoEEA0FwrGajaWWPUNqLOVLl2TJLTyXZsithS3Ptrih7XBRBStpWwC2XAppwDZSTsCM9pZmN+sd7VojqhdjMyu2RFSrVd3EpQMltaFBIlAABIktlSESG0gALUhxICHUgVSglGLaq33Gcht+mOuEaNb8gnq6Nnv8NpTdnyFQHZLRUT6LLI7mK4ok7EtLdSFcavXLyfF8dzSwzcXyuzRbrabg30pMSS2FtuJ33Hb4iCAQRsQQCCCAakybrm3h3DUTJXrzmumyVEIvi+Uq74213O00Ddc2IkbD0lILzY/rQ4kKeSFtpXrWy5229W+Nd7PcI0+DMaS/GlRnUutPNqG6VoWkkKSQQQQdjXs0ClKUClKUGJz7RzA9RpkS9Xu3SId/tyC3b7/aZTkG6Q0khRQ3KZKXOmSAVNKKm17bKSodqzXqjxH4N7FiyXG9SrY38CPkKTZrsE/TMituRnjttsPRWtyDuvvumt0oJQNepVl3b1D0X1Gxso+HIjWb17FP8AiSu1qkOBP0uNoI+MCvYheJ7w8y30xHtY8VtstfZMO73FFtkk/J0ZJbc/+2qfXgmwYNyjqiXGGxKYX8Jp5sLQfzg9qDmWrNcNvqQuyZbZbglXkYs9p0H/ANKjXZCgRyBBB+OsLdNBdDL2orvWi+CT1K8zKxyG6T/6mzXGPhQ8Lal9RXht0tKvl+4+3/waCgXLKcYsqSu8ZHa4KU+ZkzG2gP8A1EViLl4l/D1anzCk614W7MH/AGOJeWJUo/mYaUpw/Ymvbt3h60Bs6gu0aHafwVJ8jGxmE0R/6WxW0tlntNlj+iWa1xIDH/dxmEtI/wAkgCgmh8Qtuu4CNP8AS7UjLlq7IXHxx21xyflEi6GK0pP+JClD5Nz2r+D75fNfYKcR0zty+xWla7/dij5UgpZix17/AC+lJ2Hl37VqlBPcM0OwnEb8MzmLueUZb01NfdHkUr02e2hW3NDG4DURtWw3bjNtIJ7lO/eqFSlApSlApSlApSlApSlApSlApSlApSlApSlApSlApSlApSlApSlApSlBKvCd+Kxo39X+Pfs5iqrUq8J34rGjf1f49+zmKqtBxM3kPxMLv8qK+4y8za5TjbjailSFBpRCgR3BB7gionZdPrVg69Ksrs+U6gPzbvNYauCbnnl8ukeShy2yHVhUaXLcZPtoSoexuCBttV/uECJdIEm2T2urGlsrYeRyKeTa0lKhuNiNwT3B3r0HMTx91iyxnLfu3jrqHranqr+8LQ0plJ8/a2bWpPtb+e/nsaD5998Fq1Dx9rL7jGxFdvy7G7pfcZjMwZKX7UuKEqQ1NKn/AOmBaHEkqbTH4KSU7K5BSe1K1k1I03uci16nz7LkSI12tLC5GLYdckvejTGJSilEJqTNfdcSuOj2kbjipW6O3Ia5Xhm0ZL9yfTjdxR60HBxtvILihphovB9xiM2l8IisuuJCnWWA227sA4lY7V38v0iwTODJcvsG5NvynYr65VsvU62yUuRg4GVNvRXm3GykPOj2FDkFkK3FBjM81kvrGN2TUXTqXa3sXckBq4IuNjuCprjnWDa47gJZFq6YS51H5YKW1JCFtpJ3rkq1q1IbyVu/Kj40rCpuUTsPjwPRZCLo1IjpeCZipCnuk42pyOsFhLCSELSsOq2KTqb3odonabFFmX+NKt1pxyO45IkSMmnx2X2OZedNycMgCcgrK1q9MLoJUsq35K3zGL3Hwb5nqHLy7DNTMGv2RoYk3J+Nbc2TLjsfeg3InCA3JVHad6fsrlJaS5xUQV7KO4ZTBvEznlwxC8XzKLrjweTYo91hPSsJvlhSw+66hvotxn1vv3cAuo4rhgJcWW2xsXkqT4bfrfr7klgel4/k2GRZFszCFi8l+8abXq3qlomCMW30wJVxZkRS311gpcLgd2SpKkA96JbtCfD1CcfwZuTNmy71aUGPBuGb3OdMZtzTyFocgdeWt2I2h0NEORi3spDXfdKNtdZdFdN7BAct1vskpTb9ziXl9yVdJcp+ROjBsMyHXnnVOOOANN7qWolfH2uXegkq/ENqSzqw5hDFgeu0KyXuDjt1bgYFfHEy1usMreuDVzbLkKI00XwTGdLi+LaiXUkpFeUav612iE7l16vGEzrNPiZK/b7bFxyXHlRVW4u9HqyVT3EvhQa2WEstEk9inyqp3zRHTXI8rGaXWyzF3LqNyFpZu8xiI9IbTxakuxG3Ux3ZDaQkIfW2XEcEcVDinb2GtINPm8bgYkbK+7bbZDlwY6X7jKdd6UpBTI5vLcLri1hSt3FqUvclXLfvQT7IL9A14xBu/wClip8TUHBH2L5aI97ss6yOmSW1bx3G5rLTvoktsvR1OpSUbKUQStrt4/C1nFn1IuWsObWIOoiXTOYbnReTxejOpxexIdYdT+S424lba0/EpCh8VUnAdLMO00RM+5dq7uPXDpiRKu99n3eUpDYIbbD81511Lad1FLYUEAqUQAVKJhWl+RTNN/E3q1ZZbEaPhWa52xBhKZZ4CFkP3N2mUvqqHbaYh1exP9rHCe6nhQXHU/TiLqJZoyY89dpyGyyBcsevTLYW7bJyUkJcAPZbakqU240fZcbWtB233Hq6SakS88tk615RZ02PMsbfEDIrQHOaWHyN0PsqPdyK8kdRpz40kpVstC0p3lTTVnAsjmXC26o6ZKZazfG0KbRHdWG2L7b1Hk7bJCviCj7bTh/qnQFfBU4lYUulZ3AM8x7UnGI2V4088Y76lsvR5DfTkw5Laih6M+2e7bza0qQtB8ik+Y2J0VBG7pprleks6VlugMCPJgTZKpV5waRIDEOWpSt3JFuWr2YUo7qUUHZh5R9oNqUXq3mn+pGKal2t644zNc60F70W5W6U0WJ1slAAqjymFe004Nx2I2IIUkqSQo6ip1qHpIMiuYzzA7yMSz+KwGI18aj9VqWynciLPY3SJUfcn2SQtBJU0ttRJIUWlTjA9XTdr/7m2oloTi+esMKfNuLpciXRlHZUq3PkD0hryKk7Jda3AcQndKlUegUpSgUpXikyY8NhyVLfbYZaSVuOOKCUoSPMknsB9NB5aVLpniZ0TalvW6yZn91U5hRQ5ExO3yr+82v+6tMBt7gfl5bbfHsK8Xu15hchvi3hx1IuKFeUib6stbQ+kplzEPj/ANo0FWpUqGbeIiX3g6C49GB8hdM5DKh+f0eE+P8AImv37o/FJv20b0t4/TqVcd/8vUX/AOaCqUqVnMvEdF7zdCsTkAeYtuerdV9nXt7I/wAyK/kax6g27c5J4as/jtp+FItku0XFof8AgbmB8/Y0aCrUqVI8TujkVaGctvtxwt1agjbL7LNsbfInYAPTGm2V9/jQtQ+mqVa7tar5AaulluUW4QpCeTUmK8l1pwfKlaSQR+Y0Ht0pSgUpSgUpSgUpSgUpSgUpSgUpSgUpSgUpSgUpSgUpSgUpSgUpSgUpSglXhO/FY0b+r/Hv2cxVVqVeE78VjRv6v8e/ZzFVWgUpSgUpSgwmu/4Gsz//AGaT/wD4NZDxA/1dr/8A47kv7NNWqlBEdCLu/bMmu2IZ6YozabbbfcmprDZZjXa1oYQ22qK0oqU0llzmlxkuOlK3eZXs8kC3UpQKUpQKg1hwS0al3HxFYXeluss3DO4RaksnZ6HJbxiwOMSWj8TrTqG3UH4lITV5qVaN/hF12+sCH+6thoOtoxnd2zLGZFszBhuLmOLS1WTJIyAEp9MbSkiS2n4mZDSm5DXyIeSD7SVAb+o7quDpVmlv19hKLdmLTVjzlodkerSsmNclfKqI64rkf/h5D5O/TSKsIII3B3BoI3qDa52jWTT9ccLtMiZZ7kWzndlhtFa32UJCE3aO2O6pLCEgOoSCXmE7AFbTYNbtd0t17tkS9WecxNgT2G5UWSwsLbfZWkKQtCh2UlSSCCPMGvaqJRw94dsyMZ51KNKMqmgRTtsjFbs+5/VE+SIMlxXseSWX1ceyHUhsLbSlKDN55p9i2pFj9RZTBU6hp1MmHKYdUxLgSU/AkRn0ELZdSfJaCD5juCQZ7b9Qcs0Xlw8U1vuC7tYH1pjW3PwwhpoqJAQzdkIARFeJ2AkJAjuHbcMqKUKs1eGZDh3GG/b7hEZlRZTamX2Hmwtt1tQIUhST2UkgkEHsQaDyggjcHcGvVut1tditsq83u5Rbfb4TSn5MqU8lplhtI3Uta1EBKQO5JOwqPfczmfh6SH9OLZcsu086hVJxcOl65WJBJJXa1LO78dO/+5KPJIGzCtglg8603fF/FJqE89DuMa96a4EqG6lhpRLN2yBxsP8AGU2R3RDaXHUGVjfrvHmkKYSKDtIz3VjVoj3ILPGxXF3PLLslhOLfmI3Gy7fbd0KU2pO/F+QttPwVJaeQdz7sbw2ae3GQ3c9TnLpqVc0KDnXy6SJkZKwdwpq3pCYLJB7gtsJUO3c7DarUoM1luSY9pZg83IZFvLVss0cdKFAZSlTiiQlthlHsp5LWpKEjcDdQ7jzrN2XUrNLSqU7rLglrxCA1b3roi6W++OXOCwwzxLiJjy4scRngFAhIDiFBK9nCU7HRal4V7oWEXPE0XJVukS0tuRJiUc/RpLTiXWXSjccwlxCCU7jcAjcb71gL9huu2qOMX7F88kYfisOZZ5ECO1ZJ0i6iZLXx4SX1PR4ymG0cD94QV8uod3PZAId2H4iNKJ2NSMoj3a89GLKahuQF41c27qXnEc20Jtqo4mL5tgrSUskKQlShulJI8mReIDS3Fk2d253W7vM3yCi5RX7djlyuDKIqlJSHn3IzDiIyOSgN3igDvv5HbF+59rnLZyjMLpZ8KGR5RFgWaTZIGVXOFGTbo6HwVtXhiKiUzIU5IUsKTH9lKAgHc9UYGXhHiQi4nlGKWbTzC7jDtmPRcajSpeQzbc66GEGQ4uPHbtjqX0lT4aSrqJKiySoBRIAXe8a7aZ2LLF4XOul1Xc2nRGWqLYLhKiJkloupimWywqOJKkAFMfqdVXJOyCVJB8GG+ILTLPJAjWF/JWlGf6rSq64jd7W2uZ983YSuXGaSpaek5ySCSkp2VtuN5rL0a1ZzTUq2ah3mchu3x77bchiNScwu6BHiobR1LeqzpQmClxtRcUJKua1nsUtk809fM9Ec3uWAO2G0pt06eM5mZOhhOUXCwByK88+tKBcITK5MdwB5O/TSQdlJ5cSTQXhxtt1tTTqErQsFKkqG4UD5gj4xUxuvhu0okT3r5i1lkYPe3ldRd1xGUu0PuOeXN5DGzMo7dtpDbqew7dhtoNJsdyvFMDt9jzO6em3NgvKV/tJ+4+jtKcUpqP6ZISl+V00FKOu6kLc48lAE1sKCOuXjXXShZeyaINUsWRuV3C0QUxciho7e07CR94nAdypUfouAbBDDhql4nl2M51YIuUYheot1tc1JUzJjr3SSDspKh5pWkgpUhQCkqBBAIIrr1GMxtTWj2pdo1NxllMay5veYlgzCAglLK5UpQYg3NCB2Ej0gsR3D26jb6SrcsooLPSlKBSlKBSlKBSlKBSlKBSlKBSlKBSlKBSlKBSlKBSlKBSlKBSlKCVeE78VjRv6v8e/ZzFVWpV4TvxWNG/q/x79nMVVaBSlKBSlKBSlKBSlKBSlKBUq0b/CLrt9YEP8AdWw1ValWjf4RddvrAh/urYaCmz4EK6wZNruURqVDmMrYkMPICkOtrBSpCknsQQSCD5g1K9EbhLw243Xw/ZDLkPy8PZbk49LkKUtdxx1xRTFUpxXdx6OpKozp7n7204r+uFVypnrfi1+k2+16l4JBVKy/A3nLhAio+Fc4a0gTbb37bvtJHDfsl9uOs9kUFMrn3+wWXKrHPxrI7XGuVqukZyJNhyWwtp9lxJStCknzBBIrw4llVjzjGLXmGNTUy7VeYjc2I8ntybWkEbjzSob7FJ7ggg9xXWoI9p3f7npflcTQXN58ubHfYccwm/S1KWu5RGhuuBIcPnNjo+Mnd5lIc7rQ9tYazWoeBWXUjGH8avK345K0SYM+KrhKt0xs8mJUdf5DrawFJPke4IKSQc7pJnuQXRc3TrUxMWNn2NIQZwjoLbF2hqJSzc4qT/ZO8SFI3JadStskgJUsKPSlKBUds81nSvXS/wBhvPSh2PVOQxeLHKJ4tG9tRUR5kI/EhxxmNHfb/wC8PpPxoPKxVxMywvF9QcelYrmNnZuVsl8S4y4SkpWlQUhxC0kKbcQoBSVoIUlQBSQQDQdulRxEnW3SAiNKt8zVbEW+zUqMtlnJYDYICUutrKGbglI3JcStp7Yf1b6yVHWYTrVpjqBOXZMdyyML4wnlIsU9C4N2jDvv1YUgIkIHY9ygA7HYnag4+f65t4Ff5tlTpjl9/jWmHGn3W6WpdsTFgMvrWhCnEyZjLy9ukskNNuHYfGTtSdro1Bzd3Ezpll71uj3mPYH8kbXbBbWZjyG1ISUKmCWR99bBUmOQCfkBNdHLNK/uodzBz176N91dph2vb0Xn6N0FPK5/DHPl1vL2duPmd+3qRdJbo6xPN8ymJJlz8wYyhTkW2KYbS0ypoNRuCnlnl02EJU7y2KipQQkbIAcyF4k8TmOz3HcUymJa27bPutpu70eMYl9jwv8AeDEKH1OJKexAkIZKweSOSQSOTZtbZWLO5hasmu1xzu5Y4m2utNWexx7eVImulqNFC3pfSdl7lJeWVstDknZDfdNcLGPBrYMUm5Aqzv4TAj3G03K1W+Xb8Dhx7ykTAQXJ1x5qcmFAJA6aY/P+0Lh71p2vDq/bo0GFaM2SGw3aUXR6bbOvInqiTnZrzoWh1tLbrzzg3PFSUAEBJ3HEO3YNeLLclqjZNiGQ4fMYuEm3y416XBUYimIQmKccciyX2umWVAgpWo79iB3r02PEXYrrZLHecWwHNMgXeYztwcgQIUcTbfBbeUyuTIZefbJHNJAaa6j6tiEtKIUB/GU+H5nLMqZv03LZDMA5OMhmW9qInaaz6uRE9CcWpR+9qU2lxRABUN29gCSfXOhuX2OTCumnupcKx3T0aXbbjLl4+J3WhvTXZSegjroDMhtTywlxzrNnfdTKvKg7WL6y3HJtRrlp2rRzN7Uq0oQ9Ju0920ehBlzqdBwJanLkbO9JfEdHkntzSiqVWYsmFKtGcX7M13dUlV7gW+EWVshKmzF63tlYOyivreQSkDj8e/bxZzqvpvpqhn7ucztdpfl9okN18KlzD39mPHTu6+rsfZbQo9j27UGsqR6n3t/M8/xbRzFJilSoV1gZTlLzDpT6ttsN4SI7ayP7STKZZbS2SOTSZCj2TsrwuZfrPqoswtPMXlae4+5uHMmyeIn1m4nt3hWtW5QSCR1JnTKCP93cBrdaf6cYvpraXrXjkd9Ts18zLlcJjxfm3KUoALkSXle044QANz2SAEpCUpCQGopSlApSlApSlApSlApSlApSlApSlApSlApSlApSlApSlApSlApSlBKvCd+Kxo39X+Pfs5iqrUq8J34rGjf1f49+zmKqtApSlApSlApSlApSlApSlAqVaN/hF12+sCH+6thqq1KtG/wi67fWBD/dWw0FVpSlBHMWKdHNW5OnjznSxPUF+TecY5bBuFd9i7cLcgDyS6Aua2P73pg7BKRVjrIarYA3qThUvHWp6rbc2nGp9muaE7uW65MLDkaQn5eLiU8k/loK0HsoivFpHqC5qPhrN3uNvFsvsB921X+2Ak+gXRg8JDIJ7qRy9ttf5bS21jsoUG0qf6saaS80bteUYlcWrRm+KOrl2C5OBXSJUAHYckJ7rivpAS4nuQQhxPttoIoFKDHaXalW3U7HnbkxAftV2tkpdtvlmlEGTarg2B1I7m3ZQ2UlSFj2XG1oWndKhWxqUapYvk2LX1GtellpVPvkRpuNkdjZPE5Ha0EngkeXpjAUtbCjty3WyohLgUig4plVgzfHLfluLXJqfarowmRFkN7gKSfiIPdKgd0qSQFJUCCAQRQdalKUCs3mum+n2pEFFtz/AAqyZFGaUFtIuUFuR0Vg7hbZWCUKBAIUkgggEGtJSglA8PsWzbnTzVfUbDwPgMRr560io/wpYuiJTbaf8LYQPk286/fuT8SdpHG06zYdeWk/k33DHQ+of/WiTWkD/wBk/ZVLul3tNjhruN6ukS3xG/hvyn0tNp/OpRAFTqZ4oPDtEkrgo1oxGdKbOy41tubc55J+QtxytQP0EUHiE7xSxOysY0ruu35Qvtxt+/2eiP7f5mhyPxShQSNHNLCP73uk3Ef6eo6/R4mNKnO8JObTx8SrfgF/lpP5izCUDQeJTTn8rH9UUAeZXpVlCQPtNv2oBuXilldhhelds3/KOT3Gdt9noDG/+Yr+fuc8Td03TcNVMAsjSvNFrw+VJfH5nn5/D/Ng1+nxQaKsd7nkd1tIHmq743c7ekfnMiOgD7a7WNa86IZk+IuJ6wYXd5BPEx4d9iuvJV8hbSvkD9BG9BwzoPcb0B7oGuGpGRoPw40e6NWOPt/dAtbUd0p+hbqyfIkjtWowfSLTDTZb7+C4JZrPKlneVMjxU+lyj2G70g7uunsO61E9hWvpQKUpQKUpQKUpQKUpQKUpQKUpQKUpQKUpQKUpQKUpQKUpQKUpQKUpQKUpQSrwnfisaN/V/j37OYqq1KvCd+Kxo39X+Pfs5iqrQKUpQKUpQKUpQKUpQKUpQKlWjf4RddvrAh/urYaqtSrRv8Iuu31gQ/3VsNBVaUpQKjubBekWqsLVaOoN4tmS4tgy5G3sxpu4bttzJ32SndXojx+NLkZRISyasVczJsbseY47c8Tya2s3C03iI7BnRXhuh5hxJStB/OCfpoOnSpdohkl5YZuukOb3N2bleCKajLmSCOrd7U4Feg3I7eZcQhbbhH9vHf8Ai471GgVEsmbHh3yq56nxVuDTjI5PpOWQx3RYZyyAbw2PyWF9hKSOyTtI+J8qtteORHjy47sSWw28w8hTbrTiQpC0EbFKgexBB2INB+tOtPtIeZcS424kKQtJ3SpJ7ggjzFfkiQxEYclSn22WWUFxxxxQSlCQNyok9gAO5JqNYlJl6EZjA0nu3NWn99c6OF3F1e4tcnYk2V5R/IIBMRR80gsE8kNdSeZbqBI1Wyqbesj06zTI9HcdefQI9sjRUW64KjPKbkXG4+kyGlzIqHGXulFjIf5pZLriFdWOkhTjrnd85fcg6CYK7l7CVFtWTT5Jt2PIUNu7UkoW7N8z3itONkpKS6g15E6TanZWQ/qbrneUtK7qtOGxkWOGAfyS+S7OUR5c0SGge54DcBOwkal6X2O92bCZueYxbb1emULs9mfubEeXMaI2T0I6lBaxsCBxSfI/JXpjW/RZUm7Qk6vYSZFhdLN1ZGQROcBwBaih9PU3aVs06dl7HZtf907BybV4adB7VLRcl6YWW7XFv4FyvrarvOH/AJmYXXu/x+33qjRIcO3x0Q4EVmMw2NkNMthCEj5AB2Fci155g98tybvZczsVwgqgJuqZUW4susmErlxkhaVFPRPBezm/E8Vd+xrwjUjTw3mdjgz3HTdrZBFznQPWjHpEWGRuJDrfLkhogg81AJ2PnQaOlZbKdVNMMHYelZrqPi2Psx0MLecul4jxEtpeKgyVFxYACy2sJJ+FwVtvsa9jEdRNP9QIibhgWdY9kkVaC4l+0XNiY2pAWUFQU0pQIC0qTv8AKkjzFBoa4eTYNhOaxzEzLD7JfmCOJaudvZlI2+TZxJFePNNQsB03tjd71EzjH8WtzroYbl3q5swWVukEhAW8pKSogE7b79jXFvOvOhuOWW05JkOs2C2u035tTtqnzcihsRp6E/CUw4twJdA3G5QSBvQcJXhk0utpLuBN3zAXx/VnE7zItsdH/k0KMRY+hbKhXjNp8RmB/fbRk9l1PtjY7w72wiz3jiPjTMjIMR5XyIMZgEju4N/Z2c/VPTG1XqzY3dNRsXh3fI20u2aBIvEduTckK+CqO0pYU8D8RQCDX5A1V0vumQT8TtmpGLS73anm40+2MXiO5LiPLVwQ26ylZW2pSiEhKgCT2Heg5OCa04rmt2XiU2FdMWy5hsuv43f2BGnBAA5OMkKU1LaG+xejuOtg9ioHtW/rDZpYdLtV4Zxi+XG2zJkOQ8uI9DnobuFsmMceb0Z1Cuow+0Vo5KSQU8wFdlbHg6K57eJ0y4aaZjkEa/XmyxI9zt1/ipQGMhssgrTHmp6f3vrBTa23ko9kKSlaQlLyEgKvSlKBSlKBSlKBSlKBSlKBSlKBSlKBSlKBSlKBSlKBSlKBSlKBSlKCVeE78VjRv6v8e/ZzFVWpV4TvxWNG/q/x79nMVVaBSlKBSlKBSlKBSlKBSlKBUq0b/CLrt9YEP91bDVVqVaN/hF12+sCH+6thoKrSlKBSlKCUa32q6449atdMSgOSrvhKXRdYTAPUulgcKTNjgDut1sITJZT5lxjgNg6qqZaLtbb9aoV9s01qZb7jHblxJLKuTbzLiQpC0n4wUkEH5DXt1HdMgdJdQLjodKPDH7omRkGELPwW45cBm2wE+ZYdcDraR5MPpSkbMKNBYqUpQcXMsPx/PsXuWHZTBEu13RksvthRQodwUrQse0hxCglaVpIUlSUqBBANfMGKoyDJ/Dzjuj6dGclyIY7bhjE92w5Mxbkw71b+UV9NyakSWFuRlqSh8JAloeac5LaUCgOfXNS/NNOsptGXP6s6Qy4rWQSWW2b3Ypzpbt+RNNDZvmtIUY0pCfZbkBKvZ2Q4laQkoCQ51ppr5fM1EMWy5rtqLhjNwdesyLBFs1yTDcjKkrll5s3NUpKkOltLZbZ6TbSQoHklXcz6x37FsO08izsLXe7jF1Jk3Nqztvx+pJSXLhIa6anHEshwoKFo5uISF8QpSO5FNwrXTDMqvKcMvKZeI5mEkuYzf0JjTV8QOSox3Lcxobj77HW4gbgEg7gUWg+T5mFX5m5Yvj0qLAst+1FvF6N1x1UltcqDjcmSmXI5BkrQVILaGnFIUWg7NIStRKSrS6kYRqHlOV3mJjumc63wWLTemm3jMtiLXcnpURbbb7PSWmZ6Ys9FCxJR0EoQriSoJWfoulB86W7R3P2LHqBPutpYkZHmmDIhyFMym1IVcdpYTDQtRSemy24w2laglJ2KuxKq8ep+Ma4W/MrHetM4OZtvJxaLbC7ZHcfMD0xt5agi5C5H0j0ccwSYQ6hSXNjy4V9H0oMblVhvl1yfA7mzFQ63Z7lIk3FaHEpS0lcF9oKAUQpQLjiRsAT33PYE1O8NwfOod4RDuOIy4keBjl/jCa5KiqZkSJ1yLrTLYQ6pwKDbYUorQlA6iQFE8gm7UoPkHK9Kderi/bMetuO3mNb40bEn3fVrmPNW2aILkdUpqe6+hy4OSW+m50uiUMlIQOoklVUrKcG1Qb02et2H2SI5kIz1V4ioly20MtxV3VTvpK1AncIaV1OmPbVx47AntdK9e4XG32mC/c7rOjwocZBdfkSHUttNIHmpSlEBIHyk0HzjafDzm9rvzUDHMryHEbfFm3qR65tSrY9KmekMwAFOpmMSEkvOtPrWoNhfJO5UkK9r3NEbVcLdqBheITrYhN0050yFqyJ8r5qYmT5ENbEUrbV0VKCLe+4oAEpDrRBSlz29M7rHf9VCuzeHiAifCdPTfzqewoWWIkge3DB4qujmx9non0ff4T24KDutN9O7NpnjnqG1Spk5+TIcn3K5znA5LuU1zbqyX1gAFatgNgAlKUpQkJSlKQGqpSlApSlApSlApSlApSlApSlApSlApSlApSlApSlApSlApSlApSlBKvCd+Kxo39X+Pfs5iqrUq8J34rGjf1f49+zmKqtApSlApSlApSlApSlApSlAqVaN/hF12+sCH+6thqq1KtG/wi67fWBD/dWw0FVpSlApSlArCayYBNzzFG145IYhZZjstF7xme6ndMa4shQSFfH0nULcYdHxtPuDz2rd0oMtpnn1v1Mwq3ZfBhvQXJIWzOt8ggv26a0styYj23YONOoW2rbtuncdiDWpqO3Llo7rKzfEbN4dqhLag3Ab7It2RhARGfAHkmY2gMLP/fMxvjeUasVApSlBw8vwfDdQLQqwZxi1rv1uWoL9GuEVD6ErHktIUDxWPMKGxB7gg1gU6I5Ni5CtKNasrsEdPwLTe1JyC2j5ABLPpaEjyCG5SEAdgOydq1SglAvHiex8cbjhOn2YtJ+FItV5lWaQr/hiyGZDf+cobfTX6dasxt54ZF4b9SoW3wnoZtVxZP8Aw+jzVOkfnbSfoqrUoJWPEXibXa44JqpDV8Y9zq9SNvtjxnAfsNfifErp4slLWN6prUPi9yrKE/6qt4H+tVWlBKj4g7dI7WbSfVW5KPkBh8qHv9swMgfaRX4dU9YLsnbGvDVf4pV8FzJsgtcBo/T/AEV6W6B+dsH6Kq1KCUKtHiayY8bll2CYNGX8JuywJF7mJ/4JUosND86oqt/kFeSB4c8GfmsXjUS4XzUe6R1h1p/LZglx2nR5ONQEJbgsr378m2Eq7Dv2G1TpQfyhCW0hCEhKUjYADYAfJX9UpQKUpQKUpQKUpQKUpQKUpQKUpQKUpQKUpQKUpQKUpQKUpQKUpQKUpQSrwnfisaN/V/j37OYqq1KvCd+Kxo39X+Pfs5iqrQKUpQKUpQKUpQKUpQKUpQKlWjf4RddvrAh/urYaqtSrRv8ACLrt9YEP91bDQVWlKUClKUClKUHBzvCrFqNh92wfJWnV228xlRniy4W3m9+6XWljuhxCglaFjulSUqHcVl9E80veQWOfiOcOoVmmFyhZ78UN9NMtQQFMTm0/91JZUh0bdkqLjfm2qqNUf1lYe05yO2eIWzxnHGLNHFqzJhlO6pNgUsq9J2+NUJxapHy9FUpI3KxQWCleNh9mUy3JjPIdZdSFtuIUFJWkjcEEdiCPjryUCleORIYiMOSpTzbLLKC4444oJShIG5USewAHck1LX/EppzPkuQNPWb7qJLaWppacRti58VC0nYoXO9mE2oHccVvpO4Pbsdgq1KlAy7xHZAN7Fo5jWMsK/tMnyjqSkf8AloDLzSvp/pI+34v04n4lLmeVy1mwu0oP9lZ8JeU4j/nSZ7iVfn6SfzUFWpUrGlGqr/eb4oc2ZJ8xb7JYGk/YHoDp/wBTQaO6jJ7p8VuqKj8QXbcXI/0s4P8ArQVSlSo6aa1RO9s8Sd1kEeQu+MWx9J/P6O3HP+RFfht/ils6d2co0wypKfJt+zT7ItX0KdRJmJ3+kND81BVqVKFas6o46f8Ar74fL4GE/wBZOxO6R75HR/y1+jy1D/gjKP0Cu/hOtul2oNxXYsay2P68ZR1HrJPZdt91YT37uQpKW5CB2PdSAOx+Sg3FKUoFKV6l1utrsVtlXm93KLb7fBaU/KlynktMsNJG6lrWohKUgDckkAUHt0rn3HILDZ4DV1u97gQYTzjLLUmTJQ00tx1QQ0lK1EAlalJSkA7qKgBuSKzE7WnS6xW1u6ZjnmN4wy9JkRmvW99gshxTL5YUUqDxQd1gDblyBUEqCV7pAbelZ+5ag4FZ8gteJXbNrDDvt8bW9arW/cmW5k9CQSpTDKlBboABJKQdgDXpYvqlhWU4szlrN6jW+Iu3tXR9qfJaaehxneQQ4+OZDaSULAUTseKtidjQa2lYfL9Z9O8LyC24hc8jgv5DdJcKM1Zo0xhU5Dcp3pNyVsKWFhjnuC4AR2O257V7zOq2l0iTkEJjUnFXJGJp539lF4jldoT37y0he8ceyr+s4+R+Sg1VK9C5X6x2aIzcLxeYMGLIeZjsvyZCGm3HXVBDSEqUQCpalJSkDuokAbk179ApSlApXjkSGIjDkqU82yyyguOOOKCUoSBuVEnsAB3JNS1/xKacz5LkDT1m+6iS2lqaWnEbYufFQtJ2KFzvZhNqB3HFb6TuD27HYKtSpQMu8R2QDexaOY1jLCv7TJ8o6kpH/loDLzSvp/pI+34v04n4lLmeVy1mwu0oP9lZ8JeU4j/nSZ7iVfn6SfzUFWpUrGlGqsjvN8UObMk+Yt9ksDSfsD0B0/6mg0d1GT3T4rdUVH4gu24uR/pZwf8AWgqlKlR001qid7Z4k7rII8hd8Ytj6T+f0duOf8iK/Db/ABS2dO7OUaYZUlPk2/Zp9kWr6FOokzE7/SGh+agq1KlCtWdUcdP/AF98Pl8DCf6ydid0j3yOj/lr9HlqH/BGUfoFd/CdbdLtQbiuxY1lsf14yjqPWSey7b7qwnv3chSUtyEDse6kAdj8lBuKUpQKUpQSrwnfisaN/V/j37OYqq1KvCd+Kxo39X+Pfs5iqrQKUpQKUpQKUpQKUpQKUpQKlWjf4RddvrAh/urYaqtSrRv8Iuu31gQ/3VsNBVaUpQKUpQKUpQK8b7DEphyNJZQ8y8gtuNuJCkrSRsUkHsQR22ryUoJBo0+/p1kVz8PV4kuOM2WObrhz7yt1SbApYT6Pv8aoTikxz8fRVFUdys13NQNVJFjv0fTnAbGnJM6uEb0pqAp4sxLdGKikTJ74CugzyCgkBKnHSlSW0K2UU/xrZhd7v9jgZfg7KFZphUo3iwpU500y1BBTIgOK/wC6kslbR37JWWnPNtNZ7w/Y791GiqM4udxlM5BqvE+6W53OJICZTPpjfOMy06jyTFjqZZb2JADW/cqUSHtQvD9EyiS3fdeche1CuQUHUWyQ2WMfgq7HixbQotubEAhyUX3Qd9lpB4isx48eJHaiRGG2WGUJbbbbSEoQgDYJSB2AA7ACoGrUnO7rb77ISXYt10st8li6B9h5mJdL8pnaMOKSnrRi0pD5SlRTvJaG4W0oJXbVvVHD8ayGBluUYc5kVtyCJZolwt+H3aQh1L0RuRs1aIsiTKmPJC1jgh5A4JU4SkIIIfQFK+c8V1g1k1Ix/FWcWu+J2S73D1/6xm3bELitp4W6UhhJbgOTY0iIpznyKHnFqRtxO571687xNZpFxBMuLZLJMyGRYLLeWWA26hhCH2luznnB1CrpoSgJbAO/NxtKlHluA+lKV8+5DqNrriWRajvXLJ8Fn2PCrKi9RokbEZzcx9L4kFppT3rFwEt9BPIpZ3c3PFLfaqzgepGLajRJMnHV3Rt2CtDcqJdbNNtUtkqTySVRpjTTwSob8VlHFWx2J2NBqaVBcY1L1kcu0C7ZHe8Ml2C+fdAIdvhY7KizIhgrcDPUlLnuoe3DftbMN7k7jj5VzLdrDrBjmOSb1qDlWASzOxGFkNuchYzcYSIj77yG+itpEuY9NVu4kIaZS2txYCBsVgpD6NrOZvp1gmpFtRac7xO2XuMyvqMCWwFrjudtnGV/DaWNhstBSobDY1C8K1s1kz5yLi1nvWMwrunKJFpfu11wC729D0Ru2pmDa1S5jMmO5urhyW8tJA5hOyht3Tr9lb2T2rGLfabTIUL/AHS3XuSUOJRGjs+miIltPM/fnDEKlbnYJSrsCpNB1V41qtoukz8JvF11Dw9j2n8cvErr3uEyAB/s+c4QqVsO/RlqUtXfi+OyDSMJzbGdRMZh5diNyTOtk5KuC+CkLQtKilxpxtQCm3ELSpC0KAUlSSkgEEVL9IvEK5qnlFgx+PZ7jEErEzerkufjVztafTA5HTxiuTG0IkM/fXPaaLg+AeexHL0sgymy6Fa9vKdi352w6kWOTeJFvsVgnXdxm7wHozLksRoLLryA+zMZS44UdPlFa3IW4OYXqpxqLotbc5yS0ZxFvKoOQY+4JFtVNgR7pCQ8lKghXo8lClMd1HkuG5GeWAAp0hKduvg+qmMagypMOw2vMIrkRsOuG+Ybd7KhQJ2AQufGZS4flSgkgdyNq9vONQrDp9FjTL9AyWU3LcLTYseMXK9LSQNyVogMPKbH+JYAJ7A70GYuuikd/UaDqzZ7+mPkkVvoOG4Wxi4xy0vgHksreHpcQKQkhLceS2yFq5radJVynVi0TypNzfn3rEY7ixYM0tzC3XmHCF3G6h9lse2ezrSUqPxDbZWx7VYcH1UxjUGVJh2G15hFciNh1w3zDbvZUKBOwCFz4zKXD8qUEkDuRtXt5xqFYdPosaZfoGSym5bhabFjxi5XpaSBuStEBh5TY/xLABPYHegj+F4fqDhVyRYrppIrKY2QM2B03J64QEw7IqFDZacQ+FrL5W260t1noNPJK3ButrusYlzSzWmxYTcMQt+mb9zfybBLZY1SGbrBQ1bZcV6Sp1uQHHkqPNEgdNTIdSVJIWWx7R+i8H1UxjUGVJh2G15hFciNh1w3zDbvZUKBOwCFz4zKXD8qUEkDuRtXt5xqFYdPosaZfoGSym5bhabFjxi5XpaSBuStEBh5TY/xLABPYHegiWQ6cagHNblZIOmzk+HdM5tOYpykTIKGY7DKYzTjJQpwSTIbSysDZsoLSuznL72eLononq5ieUQW7tJydp/ErBcbRb7vfnbFJsynJLrat4kaAy1cZDSi0HFemSGVpOw++lRWL5g+qmMagypMOw2vMIrkRsOuG+Ybd7KhQJ2AQufGZS4flSgkgdyNq9vONQrDp9FjTL9AyWU3LcLTYseMXK9LSQNyVogMPKbH+JYAJ7A70GMxnQC3YPid5xrEcgS05kLqvT3Jdnh+h9F1alPpbt0VuPCDqkrWA8tlxavY63XSgJrUaW6YWHSXFmcUx6XNfjNbHd8MtNggAbNRozbUWMnYDdEdlpBO6ikqUpRYPqpjGoMqTDsNrzCK5EbDrhvmG3eyoUCdgELnxmUuH5UoJIHcjavZzjUXH9PWIki/2/J5SZq1obFjxa53pSSkAnqJgR3i0O42KwkHvtvsaDT1PNQNVJFjv0fTnAbGnJM6uEb0pqAp4sxLdGKikTJ74CugzyCgkBKnHSlSW0K2UU/GWg//AEpj07VaToFrhglyl32NenrFDv2OWWW2ZjjbqmwqRank+lR1EI5KSApYJILSOJ2+ufDTa1P6ZwtSbq41JyHUYJyq6y0uoeJ9JSFx4yXEEpU1HjlphviSni1vuSoqIeGF4fomUSW77rzkT2oVyCg6i2SGyxj0FXY8WLaFFtzYgEOSS+6DvstIPEVmPHjxI7USIw2ywygNttNpCUISBsEpA7AAdgBUq8ReU5DiNmw26Y1AvVxkrzO1x3LbZ5LLEie0oucmAp91lohWw3S44lJ27nyrCTNas4hZDqLe5+PXXBnoFox9i223LOFzS2/Iky2y+zDs8iUqStZ4pSw0tDrqm0oJQNlgPpSlfKDeskvUbF0Y/qTblXEput0gNPWu3XjErhLmMCJ6EI7Dr6ZsBxZm9JQU4SpO6gQhRFaHG8218uUPSRizXzTqwwsttnCdAXi86cYbsaOXHUsPi4s8m1BPBHJvdO3IlfwaD6OpUQw7XbJMrzfGMYZtFsVDlybrEvcxAcHRkMmQqMyyORHPpR+bvInYON7D2/Z/dSs/1gs2V5E5iF8w6Jj+KxrQ/KhXLHpUyZNMp5xLgRJbnMoZ2Sgcd2HNjuTuO1BbqVEJGoOr7eevyU33DU4exmTWMG2Kx+V6xLaoyFl70707pA81nt6LtxG3n7VYSH4oM/kXLIW4svH7nG+5u7Xu0OtYbe4MSO7FdaQgJny1Ns3hlYd36sVLI9kEdlpNB9VVnM306wTUi2otOd4nbL3GZX1GBLYC1x3O2zjK/htLGw2WgpUNhsakmdax6o6YWu62K7O4tk+XN42bnajCtci2RJMwrlK2caXKkLQw2zH5rIcKjxVtsVJSP4e8TUxi9pxRyyTTdncptFnbeRjN0XbRElNxVuFc9KDFQ8Os5xSp4HsgcCSOQdxeNaraLpM/CbxddQ8PY9p/HLxK697hMgAf7PnOEKlbDv0ZalLV34vjsg0jCc2xnUTGYeXYjckzrZOSrgvgpC0LSopcacQoBTbiFpUhaFAKSpJSQCCK7tSi02tWFeIqdb7O401Z8/x2Tf5cEOoSGrrAkRY7kpDe/Ld9mawlxQBTvFbJ2UvdQVelKUEq8J34rGjf1f49+zmKqtSrwnfisaN/V/j37OYqq0ClKUClKUClKUClKUClKUCpVo3+EXXb6wIf7q2GqrUq0b/CLrt9YEP91bDQVWlKUClKUClKUClKUCohp/c2dFb6NB8wW9GsNylvnBbytRbYfYeWpz1QpxO3SkxypSGQSC6ylspJWhwC31zMmxjHszsU3GMrssO7Wm4NlqVDltBxp1PnsUn5CAQfMEAjYigwmQ6AYdecJgaeQ519t9kavDV3uBavtxM+4rQSoB24CQJZX1A0vqKdUr70keQG3Jh+FjTuNMu6X7pl8u3XR2FPbbkZhenZ8S4x0utmWzcFzDKbUtlxDRS2tA4N7HkFEV/bWCay6Xq20uy2Nl+ON/1eNZfKdEqKgAbNxLqlK3CkAHZEpt9RJA6yEjavOnxHYzYiI+q+JZXp3IT2W9e7Yp229vNQuMQvREp+MdR1tZHcpGygA0mL6NadYXcWrnjVkkRHWWJcdpBuUp1htMp7rSFJZW4ptK3HPaUsJ5nYDfYbV4ouhulMMzVxsPYQ5cLJExyS913i6u2xiosR+ZXySlJWo7ggqJBUTsNtFi+aYdm8AXXC8ss1/hHYiTa57Upo7+XttqI/1rs0GbvOnWH38ZB61tS3TlMBu2XVSJbzSn4zYcCEAoWC2QHXPaRxV38+w2/jBdN8U06jS4+NN3Ra5ziXJMq63mbdZbxSNkJVJmOuvFKRuEoK+KdzsBud9PSgx9x0mwS6WVqwP2yYzEYRNQyYd0lxXmhLKjIKHmXUupKitXcKBTv7JFfzftINPMltJsl3sClxBbGbQgMzZDDjMZlxLjQbcaWlba0LQhSXUKDiSkEKBFbKlBisW0a07wyW1cLDZpSJjcozjKlXSXMfdkmMIynnXH3VrdcLICSpZUTtuSVd680LSXTu3LkOwcZYYcl3l/IJC0OuBT1webU04+tXLdRKFqSEn2QNtgNht6mW66aPYNN9VZPqPYot0JIRa25aX7g4R5hERrk8s/QlBrPHVjUnNfvGk2j10ajuD2b7moXZYSUn8pERSVT3FDz4LYYB3A6g77Bqbja9NNMbYxnF3XFskDE7KbW3Oky3A3Fgcmz0zyUQolTTQBIKyQACSrY5jSm333Nswumu2UWmbZ0XKAiy4xaJrXTkQ7SlwurkvoPtNvynOC1NHuhtiOkgL6grz43om5IvsLONYMtezvJbe6JFvS5GES0Wh3bblCghSglY77PPLefG5AcAO1VKgUpSgUpSgUpSgUpSgUpSgmujnhy0c0GiyEabYZFgz55Uu4XeQpUq5z1qVyUp+U6VOr3Vurjy4gk7AVndOru3ofkTehuWqXHsU6Y8vBLw6AmO+y84pwWha/JuQwVKQ0lW3VZS3x5LQ4BbK5eTYxj2Z2GbjGV2WHdrTcWyzKhy2g406nz2KT8hAIPmCARsRQfl/wAXsWT+rvXkH0n1TcGbpD++rR0pTW/Tc9kjltyPY7g79wa4uV6TYFmqro5kVmedevDUJmVIj3CTFfAiOrdjKadZcQthxtxxakuNFK9z59htjWsE1l0vVtpdlsbL8cb/AKvGsvlOiVFQANm4l1SlbhSADsiU2+okgdZCRtXnT4jsZsREfVfEsr07kJ7LevdsU7be3moXGIXoiU/GOo62sjuUjZQAdyzaEaUWK52y9QcUS5Ps09+6wpUybIlutTXo6Y70nk84sqdW0gBS1bqJKlE8lKUe5A0/xG2CwCDaOkMXS6i0/wBIdV6OHEFC/NR57pJHt77fFsa9nF80w7N4AuuF5ZZr/COxEm1z2pTR38vbbUR/rXZoMljmlGnuIpiJxrGWLeIVznXlrpOOf77MKzJeVur21L6q9+W4G4222G3vXPBMVvC7s5crV1lXxuM1PPXcT1kR1FTI7KHHiVE+ztvv33rv0oMrbdMMLtcP0GPbZTzZvKr+VS7jJlOqnKJPVU464pagN+IQSUJSEpCQlIAzlp8NujllDyYWNTlpeiSrelEq+3CSmPDkFBdjR0uvqEdgltBDTXBCCPZSnc1TaUGXvOmOB5DkDmVXnG48q7uWV/HfTFrWHE259QU6wghXsBZA3UnZR2HfsK/fc0wn0ZUP1L95Xc4t5Un0l7vMjhoMub8t/ZDDXs/BPHuDud+Zluumj2DTfVWT6j2KLdCSEWtuWl+4OEeYREa5PLP0JQazx1Y1JzX7xpNo9dGo7g9m+5qF2WElJ/KREUlU9xQ8+C2GAdwOoO+wUfJsnx7DLBOynK7xFtVptrRelS5LgQ20jy7k/GSQAB3JIABJAqdaU2++5tmF012yi0zbOi5QG7LjFomtdOREtKXC6uS+g+02/Kc4LU0e6G2I6VAL6grz43om5IvsLONYMtezvJbe6JFvS5GES0Wh3bblCghSglY77PPLefG5AcAO1VKgUpSglXhO/FY0b+r/AB79nMVValXhO/FY0b+r/Hv2cxVVoFKUoFKUoFKUoFKUoFKUoFSrRv8ACLrt9YEP91bDVVqVaN/hF12+sCH+6thoKrSlKBSlKBSlKBSlKBSlKBSlKDA5PoDolmU43bJNKsXl3LckXEW1puaknz4yEAOp+xQrjnw4YdEO+O5nqVYtvgoh51dXWU/8LMh91pI+gIAqrUoJWNFMsY7W7xK6qRE/EN7LJ2+2RbnCftNfidG9Q9z1fFbqmtJ/J9X4un/VNnBqq0oJUdCLjK7XnXvVW4JPmBdosLf7YcZkj7CK/D4YNH5adsltt/yoH4SMmym6XdpX/KlSHGgPoCQPoqrUoODieBYLgUP1fg2F2LHYuwHQtNuZiN7DyHFpKRXepSgUpSgUpSgUpSgUpSgUpSgUpSgUpSgUpSgwOT6BaJZlO9bZHpVi8u57ki4i2tNzUk+fGQgB1P2KFcc+HDDoh3x3M9SrFt8FEPOrq6yn/hZkPutJH0BAFValBKxopljHa3eJXVSIn4hvZZO32yLc4T9pr8To3qHuer4rdU1pP5Pq/F0/6ps4NVWlBKjoRcZXa8696q3BJ8wLtFhb/bDjMkfYRX4fDDo/LG2S22/5UD8JGTZTdLu0r/lSpDjQH0BIH0VVqUHBxPAsFwKH6vwbC7FjsXYDoWm3MxG9h5Di0lIrvUpQKUpQKUpQSrwnfisaN/V/j37OYqq1KvCd+Kxo39X+Pfs5iqrQKUpQKUpQKUpQKUpQKUpQKlWjf4RddvrAh/urYaqtSrRv8Iuu31gQ/wB1bDQVWlKUClKUClKUClKUClKUClKUClKUClKUClKUClKUClKUClKUClKUClKUClKUClKUClKUClKUClKUClKUClKUClKUClKUClKUEq8J34rGjf1f49+zmKqtSrwnfisaN/V/j37OYqq0ClKUClKUClKUClKUClKUCp/lPh60Czm+yspzXQ/T/IL1N4ek3G6YzClyn+CEoRzdcbUtXFCEpG57JSAOwFUClBKveneFj5tOlX6m27+DT3p3hY+bTpV+ptu/g1VaUEq96d4WPm06Vfqbbv4NPeneFj5tOlX6m27+DVVpQSr3p3hY+bTpV+ptu/g096d4WPm06Vfqbbv4NVWlBKveneFj5tOlX6m27+DT3p3hY+bTpV+ptu/g1VaUEq96d4WPm06Vfqbbv4NPeneFj5tOlX6m27+DVVpQSr3p3hY+bTpV+ptu/g096d4WPm06Vfqbbv4NVWlBKveneFj5tOlX6m27+DT3p3hY+bTpV+ptu/g1VaUEq96d4WPm06Vfqbbv4NPeneFj5tOlX6m27+DVVpQSr3p3hY+bTpV+ptu/g096d4WPm06Vfqbbv4NVWlBKveneFj5tOlX6m27+DT3p3hY+bTpV+ptu/g1VaUEq96d4WPm06Vfqbbv4NPeneFj5tOlX6m27+DVVpQSr3p3hY+bTpV+ptu/g096d4WPm06Vfqbbv4NVWlBKveneFj5tOlX6m27+DT3p3hY+bTpV+ptu/g1VaUEq96d4WPm06Vfqbbv4NPeneFj5tOlX6m27+DVVpQSr3p3hY+bTpV+ptu/g096d4WPm06Vfqbbv4NVWlBKveneFj5tOlX6m27+DT3p3hY+bTpV+ptu/g1VaUEq96d4WPm06Vfqbbv4NPeneFj5tOlX6m27+DVVpQSr3p3hY+bTpV+ptu/g096d4WPm06Vfqbbv4NVWlBKveneFj5tOlX6m27+DT3p3hY+bTpV+ptu/g1VaUEq96d4WPm06Vfqbbv4NPeneFj5tOlX6m27+DVVpQSr3p3hY+bTpV+ptu/g096d4WPm06Vfqbbv4NVWlBKveneFj5tOlX6m27+DT3p3hY+bTpV+ptu/g1VaUEq96d4WPm06Vfqbbv4NPeneFj5tOlX6m27+DVVpQSr3p3hY+bTpV+ptu/g096d4WPm06Vfqbbv4NVWlB6lptNqsFqhWKxWyJbrbbo7cSHDiMpZYjMNpCW2m20gJQhKQEhIAAAAFe3SlB//2Q==;" parent="1" vertex="1">
          <mxGeometry x="1930" y="-448" width="370" height="370" as="geometry" />
        </mxCell>
        <mxCell id="QvWTf6V_Tcqq188pRw3--83" style="edgeStyle=elbowEdgeStyle;rounded=0;orthogonalLoop=1;jettySize=auto;html=1;exitX=0.5;exitY=0;exitDx=0;exitDy=0;endArrow=open;endFill=0;entryX=0.43;entryY=1.015;entryDx=0;entryDy=0;entryPerimeter=0;" parent="1" source="QvWTf6V_Tcqq188pRw3--2" target="QvWTf6V_Tcqq188pRw3--75" edge="1">
          <mxGeometry relative="1" as="geometry">
            <mxPoint x="103" y="816" as="targetPoint" />
          </mxGeometry>
        </mxCell>
        <mxCell id="QvWTf6V_Tcqq188pRw3--2" value="&lt;span style=&quot;font-weight: normal;&quot;&gt;&lt;i&gt;&amp;lt;&amp;lt;entity&amp;gt;&amp;gt;&lt;/i&gt;&lt;/span&gt;&lt;br&gt;Playlist" style="swimlane;fontStyle=1;align=center;verticalAlign=top;childLayout=stackLayout;horizontal=1;startSize=41;horizontalStack=0;resizeParent=1;resizeParentMax=0;resizeLast=0;collapsible=1;marginBottom=0;whiteSpace=wrap;html=1;" parent="1" vertex="1">
          <mxGeometry x="40" y="979" width="160" height="153" as="geometry" />
        </mxCell>
        <mxCell id="QvWTf6V_Tcqq188pRw3--3" value="- id: int" style="text;strokeColor=none;fillColor=none;align=left;verticalAlign=top;spacingLeft=4;spacingRight=4;overflow=hidden;rotatable=0;points=[[0,0.5],[1,0.5]];portConstraint=eastwest;whiteSpace=wrap;html=1;" parent="QvWTf6V_Tcqq188pRw3--2" vertex="1">
          <mxGeometry y="41" width="160" height="26" as="geometry" />
        </mxCell>
        <mxCell id="QvWTf6V_Tcqq188pRw3--23" value="- title: string" style="text;strokeColor=none;fillColor=none;align=left;verticalAlign=top;spacingLeft=4;spacingRight=4;overflow=hidden;rotatable=0;points=[[0,0.5],[1,0.5]];portConstraint=eastwest;whiteSpace=wrap;html=1;" parent="QvWTf6V_Tcqq188pRw3--2" vertex="1">
          <mxGeometry y="67" width="160" height="26" as="geometry" />
        </mxCell>
        <mxCell id="QvWTf6V_Tcqq188pRw3--6" value="- songs: List&amp;lt;Song&amp;gt;" style="text;strokeColor=none;fillColor=none;align=left;verticalAlign=top;spacingLeft=4;spacingRight=4;overflow=hidden;rotatable=0;points=[[0,0.5],[1,0.5]];portConstraint=eastwest;whiteSpace=wrap;html=1;" parent="QvWTf6V_Tcqq188pRw3--2" vertex="1">
          <mxGeometry y="93" width="160" height="26" as="geometry" />
        </mxCell>
        <mxCell id="QvWTf6V_Tcqq188pRw3--4" value="" style="line;strokeWidth=1;fillColor=none;align=left;verticalAlign=middle;spacingTop=-1;spacingLeft=3;spacingRight=3;rotatable=0;labelPosition=right;points=[];portConstraint=eastwest;strokeColor=inherit;" parent="QvWTf6V_Tcqq188pRw3--2" vertex="1">
          <mxGeometry y="119" width="160" height="8" as="geometry" />
        </mxCell>
        <mxCell id="QvWTf6V_Tcqq188pRw3--67" value="&amp;nbsp;" style="text;strokeColor=none;fillColor=none;align=left;verticalAlign=top;spacingLeft=4;spacingRight=4;overflow=hidden;rotatable=0;points=[[0,0.5],[1,0.5]];portConstraint=eastwest;whiteSpace=wrap;html=1;" parent="QvWTf6V_Tcqq188pRw3--2" vertex="1">
          <mxGeometry y="127" width="160" height="26" as="geometry" />
        </mxCell>
        <mxCell id="QvWTf6V_Tcqq188pRw3--88" style="edgeStyle=elbowEdgeStyle;rounded=0;orthogonalLoop=1;jettySize=auto;html=1;exitX=0.5;exitY=0;exitDx=0;exitDy=0;endArrow=open;endFill=0;entryX=0.118;entryY=1.048;entryDx=0;entryDy=0;entryPerimeter=0;" parent="1" source="QvWTf6V_Tcqq188pRw3--9" target="QvWTf6V_Tcqq188pRw3--82" edge="1">
          <mxGeometry relative="1" as="geometry">
            <mxPoint x="546" y="768" as="targetPoint" />
            <Array as="points">
              <mxPoint x="546" y="856" />
            </Array>
          </mxGeometry>
        </mxCell>
        <mxCell id="QvWTf6V_Tcqq188pRw3--9" value="&lt;i style=&quot;border-color: var(--border-color); font-weight: 400;&quot;&gt;&amp;lt;&amp;lt;entity&amp;gt;&amp;gt;&lt;/i&gt;&lt;br&gt;Song" style="swimlane;fontStyle=1;align=center;verticalAlign=top;childLayout=stackLayout;horizontal=1;startSize=41;horizontalStack=0;resizeParent=1;resizeParentMax=0;resizeLast=0;collapsible=1;marginBottom=0;whiteSpace=wrap;html=1;" parent="1" vertex="1">
          <mxGeometry x="464" y="979" width="160" height="179" as="geometry" />
        </mxCell>
        <mxCell id="QvWTf6V_Tcqq188pRw3--10" value="- id: int" style="text;strokeColor=none;fillColor=none;align=left;verticalAlign=top;spacingLeft=4;spacingRight=4;overflow=hidden;rotatable=0;points=[[0,0.5],[1,0.5]];portConstraint=eastwest;whiteSpace=wrap;html=1;" parent="QvWTf6V_Tcqq188pRw3--9" vertex="1">
          <mxGeometry y="41" width="160" height="26" as="geometry" />
        </mxCell>
        <mxCell id="QvWTf6V_Tcqq188pRw3--22" value="- name: string" style="text;strokeColor=none;fillColor=none;align=left;verticalAlign=top;spacingLeft=4;spacingRight=4;overflow=hidden;rotatable=0;points=[[0,0.5],[1,0.5]];portConstraint=eastwest;whiteSpace=wrap;html=1;" parent="QvWTf6V_Tcqq188pRw3--9" vertex="1">
          <mxGeometry y="67" width="160" height="26" as="geometry" />
        </mxCell>
        <mxCell id="QvWTf6V_Tcqq188pRw3--13" value="- duration: int" style="text;strokeColor=none;fillColor=none;align=left;verticalAlign=top;spacingLeft=4;spacingRight=4;overflow=hidden;rotatable=0;points=[[0,0.5],[1,0.5]];portConstraint=eastwest;whiteSpace=wrap;html=1;" parent="QvWTf6V_Tcqq188pRw3--9" vertex="1">
          <mxGeometry y="93" width="160" height="26" as="geometry" />
        </mxCell>
        <mxCell id="QvWTf6V_Tcqq188pRw3--21" value="- author: string" style="text;strokeColor=none;fillColor=none;align=left;verticalAlign=top;spacingLeft=4;spacingRight=4;overflow=hidden;rotatable=0;points=[[0,0.5],[1,0.5]];portConstraint=eastwest;whiteSpace=wrap;html=1;" parent="QvWTf6V_Tcqq188pRw3--9" vertex="1">
          <mxGeometry y="119" width="160" height="26" as="geometry" />
        </mxCell>
        <mxCell id="QvWTf6V_Tcqq188pRw3--11" value="" style="line;strokeWidth=1;fillColor=none;align=left;verticalAlign=middle;spacingTop=-1;spacingLeft=3;spacingRight=3;rotatable=0;labelPosition=right;points=[];portConstraint=eastwest;strokeColor=inherit;" parent="QvWTf6V_Tcqq188pRw3--9" vertex="1">
          <mxGeometry y="145" width="160" height="8" as="geometry" />
        </mxCell>
        <mxCell id="QvWTf6V_Tcqq188pRw3--15" value="&amp;nbsp;" style="text;strokeColor=none;fillColor=none;align=left;verticalAlign=top;spacingLeft=4;spacingRight=4;overflow=hidden;rotatable=0;points=[[0,0.5],[1,0.5]];portConstraint=eastwest;whiteSpace=wrap;html=1;" parent="QvWTf6V_Tcqq188pRw3--9" vertex="1">
          <mxGeometry y="153" width="160" height="26" as="geometry" />
        </mxCell>
        <mxCell id="QvWTf6V_Tcqq188pRw3--27" value="&lt;span style=&quot;font-weight: normal;&quot;&gt;&lt;i&gt;&amp;lt;&amp;lt;interface&amp;gt;&amp;gt;&lt;/i&gt;&lt;/span&gt;&lt;br&gt;IPlayable" style="swimlane;fontStyle=1;childLayout=stackLayout;horizontal=1;startSize=38;fillColor=default;horizontalStack=0;resizeParent=1;resizeParentMax=0;resizeLast=0;collapsible=1;marginBottom=0;whiteSpace=wrap;html=1;" parent="1" vertex="1">
          <mxGeometry x="271" y="767" width="140" height="116" as="geometry" />
        </mxCell>
        <mxCell id="QvWTf6V_Tcqq188pRw3--28" value="+ play()" style="text;strokeColor=none;fillColor=none;align=left;verticalAlign=top;spacingLeft=4;spacingRight=4;overflow=hidden;rotatable=0;points=[[0,0.5],[1,0.5]];portConstraint=eastwest;whiteSpace=wrap;html=1;" parent="QvWTf6V_Tcqq188pRw3--27" vertex="1">
          <mxGeometry y="38" width="140" height="26" as="geometry" />
        </mxCell>
        <mxCell id="QvWTf6V_Tcqq188pRw3--29" value="+ pause()" style="text;strokeColor=none;fillColor=none;align=left;verticalAlign=top;spacingLeft=4;spacingRight=4;overflow=hidden;rotatable=0;points=[[0,0.5],[1,0.5]];portConstraint=eastwest;whiteSpace=wrap;html=1;" parent="QvWTf6V_Tcqq188pRw3--27" vertex="1">
          <mxGeometry y="64" width="140" height="26" as="geometry" />
        </mxCell>
        <mxCell id="QvWTf6V_Tcqq188pRw3--65" value="+ stop()" style="text;strokeColor=none;fillColor=none;align=left;verticalAlign=top;spacingLeft=4;spacingRight=4;overflow=hidden;rotatable=0;points=[[0,0.5],[1,0.5]];portConstraint=eastwest;whiteSpace=wrap;html=1;" parent="QvWTf6V_Tcqq188pRw3--27" vertex="1">
          <mxGeometry y="90" width="140" height="26" as="geometry" />
        </mxCell>
        <mxCell id="QvWTf6V_Tcqq188pRw3--31" value="&lt;span style=&quot;font-weight: normal;&quot;&gt;&lt;i&gt;&amp;lt;&amp;lt;interface&amp;gt;&amp;gt;&lt;/i&gt;&lt;/span&gt;&lt;br&gt;ISearch" style="swimlane;fontStyle=1;childLayout=stackLayout;horizontal=1;startSize=38;fillColor=default;horizontalStack=0;resizeParent=1;resizeParentMax=0;resizeLast=0;collapsible=1;marginBottom=0;whiteSpace=wrap;html=1;" parent="1" vertex="1">
          <mxGeometry x="348" y="495" width="140" height="64" as="geometry" />
        </mxCell>
        <mxCell id="QvWTf6V_Tcqq188pRw3--32" value="+ search()" style="text;strokeColor=none;fillColor=none;align=left;verticalAlign=top;spacingLeft=4;spacingRight=4;overflow=hidden;rotatable=0;points=[[0,0.5],[1,0.5]];portConstraint=eastwest;whiteSpace=wrap;html=1;" parent="QvWTf6V_Tcqq188pRw3--31" vertex="1">
          <mxGeometry y="38" width="140" height="26" as="geometry" />
        </mxCell>
        <mxCell id="QvWTf6V_Tcqq188pRw3--68" value="&lt;i style=&quot;font-weight: normal;&quot;&gt;&amp;lt;&amp;lt;control&amp;gt;&amp;gt;&lt;/i&gt;&lt;br&gt;PlaylistController" style="swimlane;fontStyle=1;align=center;verticalAlign=top;childLayout=stackLayout;horizontal=1;startSize=42;horizontalStack=0;resizeParent=1;resizeParentMax=0;resizeLast=0;collapsible=1;marginBottom=0;whiteSpace=wrap;html=1;" parent="1" vertex="1">
          <mxGeometry x="50" y="638" width="160" height="180" as="geometry" />
        </mxCell>
        <mxCell id="QvWTf6V_Tcqq188pRw3--71" value="&amp;nbsp;" style="text;strokeColor=none;fillColor=none;align=left;verticalAlign=top;spacingLeft=4;spacingRight=4;overflow=hidden;rotatable=0;points=[[0,0.5],[1,0.5]];portConstraint=eastwest;whiteSpace=wrap;html=1;" parent="QvWTf6V_Tcqq188pRw3--68" vertex="1">
          <mxGeometry y="42" width="160" height="26" as="geometry" />
        </mxCell>
        <mxCell id="QvWTf6V_Tcqq188pRw3--72" value="" style="line;strokeWidth=1;fillColor=none;align=left;verticalAlign=middle;spacingTop=-1;spacingLeft=3;spacingRight=3;rotatable=0;labelPosition=right;points=[];portConstraint=eastwest;strokeColor=inherit;" parent="QvWTf6V_Tcqq188pRw3--68" vertex="1">
          <mxGeometry y="68" width="160" height="8" as="geometry" />
        </mxCell>
        <mxCell id="QvWTf6V_Tcqq188pRw3--73" value="+ addSong()" style="text;strokeColor=none;fillColor=none;align=left;verticalAlign=top;spacingLeft=4;spacingRight=4;overflow=hidden;rotatable=0;points=[[0,0.5],[1,0.5]];portConstraint=eastwest;whiteSpace=wrap;html=1;" parent="QvWTf6V_Tcqq188pRw3--68" vertex="1">
          <mxGeometry y="76" width="160" height="26" as="geometry" />
        </mxCell>
        <mxCell id="QvWTf6V_Tcqq188pRw3--74" value="+ removeSong()" style="text;strokeColor=none;fillColor=none;align=left;verticalAlign=top;spacingLeft=4;spacingRight=4;overflow=hidden;rotatable=0;points=[[0,0.5],[1,0.5]];portConstraint=eastwest;whiteSpace=wrap;html=1;" parent="QvWTf6V_Tcqq188pRw3--68" vertex="1">
          <mxGeometry y="102" width="160" height="26" as="geometry" />
        </mxCell>
        <mxCell id="QvWTf6V_Tcqq188pRw3--111" value="+ editPlaylist()" style="text;strokeColor=none;fillColor=none;align=left;verticalAlign=top;spacingLeft=4;spacingRight=4;overflow=hidden;rotatable=0;points=[[0,0.5],[1,0.5]];portConstraint=eastwest;whiteSpace=wrap;html=1;" parent="QvWTf6V_Tcqq188pRw3--68" vertex="1">
          <mxGeometry y="128" width="160" height="26" as="geometry" />
        </mxCell>
        <mxCell id="QvWTf6V_Tcqq188pRw3--75" value="+ createPlaylist()" style="text;strokeColor=none;fillColor=none;align=left;verticalAlign=top;spacingLeft=4;spacingRight=4;overflow=hidden;rotatable=0;points=[[0,0.5],[1,0.5]];portConstraint=eastwest;whiteSpace=wrap;html=1;" parent="QvWTf6V_Tcqq188pRw3--68" vertex="1">
          <mxGeometry y="154" width="160" height="26" as="geometry" />
        </mxCell>
        <mxCell id="QvWTf6V_Tcqq188pRw3--76" value="&lt;i style=&quot;border-color: var(--border-color); font-weight: normal;&quot;&gt;&amp;lt;&amp;lt;control&amp;gt;&amp;gt;&lt;/i&gt;&lt;br&gt;SongController" style="swimlane;fontStyle=1;align=center;verticalAlign=top;childLayout=stackLayout;horizontal=1;startSize=40;horizontalStack=0;resizeParent=1;resizeParentMax=0;resizeLast=0;collapsible=1;marginBottom=0;whiteSpace=wrap;html=1;" parent="1" vertex="1">
          <mxGeometry x="527" y="640" width="160" height="100" as="geometry" />
        </mxCell>
        <mxCell id="QvWTf6V_Tcqq188pRw3--77" value="&amp;nbsp;" style="text;strokeColor=none;fillColor=none;align=left;verticalAlign=top;spacingLeft=4;spacingRight=4;overflow=hidden;rotatable=0;points=[[0,0.5],[1,0.5]];portConstraint=eastwest;whiteSpace=wrap;html=1;" parent="QvWTf6V_Tcqq188pRw3--76" vertex="1">
          <mxGeometry y="40" width="160" height="26" as="geometry" />
        </mxCell>
        <mxCell id="QvWTf6V_Tcqq188pRw3--81" value="" style="line;strokeWidth=1;fillColor=none;align=left;verticalAlign=middle;spacingTop=-1;spacingLeft=3;spacingRight=3;rotatable=0;labelPosition=right;points=[];portConstraint=eastwest;strokeColor=inherit;" parent="QvWTf6V_Tcqq188pRw3--76" vertex="1">
          <mxGeometry y="66" width="160" height="8" as="geometry" />
        </mxCell>
        <mxCell id="QvWTf6V_Tcqq188pRw3--82" value="+ changeSong()" style="text;strokeColor=none;fillColor=none;align=left;verticalAlign=top;spacingLeft=4;spacingRight=4;overflow=hidden;rotatable=0;points=[[0,0.5],[1,0.5]];portConstraint=eastwest;whiteSpace=wrap;html=1;" parent="QvWTf6V_Tcqq188pRw3--76" vertex="1">
          <mxGeometry y="74" width="160" height="26" as="geometry" />
        </mxCell>
        <mxCell id="QvWTf6V_Tcqq188pRw3--91" value="" style="endArrow=block;html=1;rounded=0;endFill=0;startSize=6;endSize=17;dashed=1;exitX=0.921;exitY=-0.009;exitDx=0;exitDy=0;exitPerimeter=0;entryX=0.279;entryY=1.013;entryDx=0;entryDy=0;entryPerimeter=0;" parent="1" source="QvWTf6V_Tcqq188pRw3--2" target="QvWTf6V_Tcqq188pRw3--65" edge="1">
          <mxGeometry width="50" height="50" relative="1" as="geometry">
            <mxPoint x="181" y="975" as="sourcePoint" />
            <mxPoint x="231" y="925" as="targetPoint" />
          </mxGeometry>
        </mxCell>
        <mxCell id="QvWTf6V_Tcqq188pRw3--92" value="" style="endArrow=block;html=1;rounded=0;endFill=0;startSize=6;endSize=17;dashed=1;exitX=0.207;exitY=-0.002;exitDx=0;exitDy=0;exitPerimeter=0;entryX=0.792;entryY=1.033;entryDx=0;entryDy=0;entryPerimeter=0;" parent="1" source="QvWTf6V_Tcqq188pRw3--9" target="QvWTf6V_Tcqq188pRw3--65" edge="1">
          <mxGeometry width="50" height="50" relative="1" as="geometry">
            <mxPoint x="197" y="987" as="sourcePoint" />
            <mxPoint x="318" y="914" as="targetPoint" />
          </mxGeometry>
        </mxCell>
        <mxCell id="QvWTf6V_Tcqq188pRw3--93" value="&lt;i style=&quot;border-color: var(--border-color); font-weight: 400;&quot;&gt;&amp;lt;&amp;lt;entity&amp;gt;&amp;gt;&lt;/i&gt;&lt;br&gt;Plugin" style="swimlane;fontStyle=1;align=center;verticalAlign=top;childLayout=stackLayout;horizontal=1;startSize=41;horizontalStack=0;resizeParent=1;resizeParentMax=0;resizeLast=0;collapsible=1;marginBottom=0;whiteSpace=wrap;html=1;" parent="1" vertex="1">
          <mxGeometry x="775" y="979" width="160" height="153" as="geometry" />
        </mxCell>
        <mxCell id="QvWTf6V_Tcqq188pRw3--94" value="- id: int" style="text;strokeColor=none;fillColor=none;align=left;verticalAlign=top;spacingLeft=4;spacingRight=4;overflow=hidden;rotatable=0;points=[[0,0.5],[1,0.5]];portConstraint=eastwest;whiteSpace=wrap;html=1;" parent="QvWTf6V_Tcqq188pRw3--93" vertex="1">
          <mxGeometry y="41" width="160" height="26" as="geometry" />
        </mxCell>
        <mxCell id="QvWTf6V_Tcqq188pRw3--95" value="- name: string" style="text;strokeColor=none;fillColor=none;align=left;verticalAlign=top;spacingLeft=4;spacingRight=4;overflow=hidden;rotatable=0;points=[[0,0.5],[1,0.5]];portConstraint=eastwest;whiteSpace=wrap;html=1;" parent="QvWTf6V_Tcqq188pRw3--93" vertex="1">
          <mxGeometry y="67" width="160" height="26" as="geometry" />
        </mxCell>
        <mxCell id="QvWTf6V_Tcqq188pRw3--96" value="- version: int" style="text;strokeColor=none;fillColor=none;align=left;verticalAlign=top;spacingLeft=4;spacingRight=4;overflow=hidden;rotatable=0;points=[[0,0.5],[1,0.5]];portConstraint=eastwest;whiteSpace=wrap;html=1;" parent="QvWTf6V_Tcqq188pRw3--93" vertex="1">
          <mxGeometry y="93" width="160" height="26" as="geometry" />
        </mxCell>
        <mxCell id="QvWTf6V_Tcqq188pRw3--98" value="" style="line;strokeWidth=1;fillColor=none;align=left;verticalAlign=middle;spacingTop=-1;spacingLeft=3;spacingRight=3;rotatable=0;labelPosition=right;points=[];portConstraint=eastwest;strokeColor=inherit;" parent="QvWTf6V_Tcqq188pRw3--93" vertex="1">
          <mxGeometry y="119" width="160" height="8" as="geometry" />
        </mxCell>
        <mxCell id="QvWTf6V_Tcqq188pRw3--99" value="&amp;nbsp;" style="text;strokeColor=none;fillColor=none;align=left;verticalAlign=top;spacingLeft=4;spacingRight=4;overflow=hidden;rotatable=0;points=[[0,0.5],[1,0.5]];portConstraint=eastwest;whiteSpace=wrap;html=1;" parent="QvWTf6V_Tcqq188pRw3--93" vertex="1">
          <mxGeometry y="127" width="160" height="26" as="geometry" />
        </mxCell>
        <mxCell id="QvWTf6V_Tcqq188pRw3--100" value="&lt;i style=&quot;border-color: var(--border-color); font-weight: normal;&quot;&gt;&amp;lt;&amp;lt;control&amp;gt;&amp;gt;&lt;/i&gt;&lt;br&gt;PluginController" style="swimlane;fontStyle=1;align=center;verticalAlign=top;childLayout=stackLayout;horizontal=1;startSize=38;horizontalStack=0;resizeParent=1;resizeParentMax=0;resizeLast=0;collapsible=1;marginBottom=0;whiteSpace=wrap;html=1;" parent="1" vertex="1">
          <mxGeometry x="794" y="642" width="160" height="124" as="geometry" />
        </mxCell>
        <mxCell id="QvWTf6V_Tcqq188pRw3--101" value="&amp;nbsp;" style="text;strokeColor=none;fillColor=none;align=left;verticalAlign=top;spacingLeft=4;spacingRight=4;overflow=hidden;rotatable=0;points=[[0,0.5],[1,0.5]];portConstraint=eastwest;whiteSpace=wrap;html=1;" parent="QvWTf6V_Tcqq188pRw3--100" vertex="1">
          <mxGeometry y="38" width="160" height="26" as="geometry" />
        </mxCell>
        <mxCell id="QvWTf6V_Tcqq188pRw3--102" value="" style="line;strokeWidth=1;fillColor=none;align=left;verticalAlign=middle;spacingTop=-1;spacingLeft=3;spacingRight=3;rotatable=0;labelPosition=right;points=[];portConstraint=eastwest;strokeColor=inherit;" parent="QvWTf6V_Tcqq188pRw3--100" vertex="1">
          <mxGeometry y="64" width="160" height="8" as="geometry" />
        </mxCell>
        <mxCell id="QvWTf6V_Tcqq188pRw3--103" value="+ upload()" style="text;strokeColor=none;fillColor=none;align=left;verticalAlign=top;spacingLeft=4;spacingRight=4;overflow=hidden;rotatable=0;points=[[0,0.5],[1,0.5]];portConstraint=eastwest;whiteSpace=wrap;html=1;" parent="QvWTf6V_Tcqq188pRw3--100" vertex="1">
          <mxGeometry y="72" width="160" height="26" as="geometry" />
        </mxCell>
        <mxCell id="QvWTf6V_Tcqq188pRw3--112" value="+ delete()" style="text;strokeColor=none;fillColor=none;align=left;verticalAlign=top;spacingLeft=4;spacingRight=4;overflow=hidden;rotatable=0;points=[[0,0.5],[1,0.5]];portConstraint=eastwest;whiteSpace=wrap;html=1;" parent="QvWTf6V_Tcqq188pRw3--100" vertex="1">
          <mxGeometry y="98" width="160" height="26" as="geometry" />
        </mxCell>
        <mxCell id="QvWTf6V_Tcqq188pRw3--104" value="" style="endArrow=block;html=1;rounded=0;endFill=0;startSize=6;endSize=17;dashed=1;exitX=0.918;exitY=-0.004;exitDx=0;exitDy=0;exitPerimeter=0;entryX=0.09;entryY=1.118;entryDx=0;entryDy=0;entryPerimeter=0;" parent="1" source="QvWTf6V_Tcqq188pRw3--68" target="QvWTf6V_Tcqq188pRw3--32" edge="1">
          <mxGeometry width="50" height="50" relative="1" as="geometry">
            <mxPoint x="129" y="612" as="sourcePoint" />
            <mxPoint x="252" y="517" as="targetPoint" />
          </mxGeometry>
        </mxCell>
        <mxCell id="QvWTf6V_Tcqq188pRw3--105" value="" style="endArrow=block;html=1;rounded=0;endFill=0;startSize=6;endSize=17;dashed=1;exitX=0.25;exitY=0;exitDx=0;exitDy=0;entryX=0.519;entryY=1.051;entryDx=0;entryDy=0;entryPerimeter=0;" parent="1" source="QvWTf6V_Tcqq188pRw3--76" target="QvWTf6V_Tcqq188pRw3--32" edge="1">
          <mxGeometry width="50" height="50" relative="1" as="geometry">
            <mxPoint x="584" y="608" as="sourcePoint" />
            <mxPoint x="707" y="513" as="targetPoint" />
          </mxGeometry>
        </mxCell>
        <mxCell id="QvWTf6V_Tcqq188pRw3--106" value="" style="endArrow=block;html=1;rounded=0;endFill=0;startSize=6;endSize=17;dashed=1;exitX=0.163;exitY=0;exitDx=0;exitDy=0;exitPerimeter=0;entryX=1;entryY=0.949;entryDx=0;entryDy=0;entryPerimeter=0;" parent="1" source="QvWTf6V_Tcqq188pRw3--100" target="QvWTf6V_Tcqq188pRw3--32" edge="1">
          <mxGeometry width="50" height="50" relative="1" as="geometry">
            <mxPoint x="817" y="612" as="sourcePoint" />
            <mxPoint x="940" y="517" as="targetPoint" />
          </mxGeometry>
        </mxCell>
        <mxCell id="QvWTf6V_Tcqq188pRw3--107" style="edgeStyle=elbowEdgeStyle;rounded=0;orthogonalLoop=1;jettySize=auto;html=1;exitX=0.715;exitY=0.004;exitDx=0;exitDy=0;endArrow=open;endFill=0;entryX=0.593;entryY=1.06;entryDx=0;entryDy=0;entryPerimeter=0;exitPerimeter=0;" parent="1" source="QvWTf6V_Tcqq188pRw3--93" target="QvWTf6V_Tcqq188pRw3--112" edge="1">
          <mxGeometry relative="1" as="geometry">
            <mxPoint x="965" y="924" as="sourcePoint" />
            <mxPoint x="886" y="769" as="targetPoint" />
            <Array as="points">
              <mxPoint x="889" y="860" />
            </Array>
          </mxGeometry>
        </mxCell>
        <mxCell id="QvWTf6V_Tcqq188pRw3--127" style="rounded=0;orthogonalLoop=1;jettySize=auto;html=1;exitX=0.75;exitY=0;exitDx=0;exitDy=0;endArrow=none;endFill=0;entryX=1;entryY=0.5;entryDx=0;entryDy=0;edgeStyle=orthogonalEdgeStyle;startArrow=open;startFill=0;" parent="1" source="QvWTf6V_Tcqq188pRw3--100" target="QvWTf6V_Tcqq188pRw3--122" edge="1">
          <mxGeometry relative="1" as="geometry">
            <mxPoint x="5" y="577" as="sourcePoint" />
            <mxPoint x="20" y="330" as="targetPoint" />
          </mxGeometry>
        </mxCell>
        <mxCell id="QvWTf6V_Tcqq188pRw3--128" style="rounded=0;orthogonalLoop=1;jettySize=auto;html=1;exitX=0.75;exitY=0;exitDx=0;exitDy=0;endArrow=none;endFill=0;edgeStyle=orthogonalEdgeStyle;entryX=0.827;entryY=1.039;entryDx=0;entryDy=0;entryPerimeter=0;startArrow=open;startFill=0;" parent="1" source="QvWTf6V_Tcqq188pRw3--76" target="QvWTf6V_Tcqq188pRw3--122" edge="1">
          <mxGeometry relative="1" as="geometry">
            <mxPoint x="672" y="527" as="sourcePoint" />
            <mxPoint x="480" y="390" as="targetPoint" />
            <Array as="points">
              <mxPoint x="647" y="430" />
              <mxPoint x="460" y="430" />
            </Array>
          </mxGeometry>
        </mxCell>
        <mxCell id="QvWTf6V_Tcqq188pRw3--129" style="rounded=0;orthogonalLoop=1;jettySize=auto;html=1;exitX=0.456;exitY=0.003;exitDx=0;exitDy=0;endArrow=none;endFill=0;exitPerimeter=0;entryX=0.129;entryY=1.038;entryDx=0;entryDy=0;entryPerimeter=0;edgeStyle=orthogonalEdgeStyle;startArrow=open;startFill=0;" parent="1" source="QvWTf6V_Tcqq188pRw3--68" target="QvWTf6V_Tcqq188pRw3--122" edge="1">
          <mxGeometry relative="1" as="geometry">
            <mxPoint x="119.59" y="547" as="sourcePoint" />
            <mxPoint x="134.59" y="300" as="targetPoint" />
            <Array as="points">
              <mxPoint x="123" y="430" />
              <mxPoint x="349" y="430" />
            </Array>
          </mxGeometry>
        </mxCell>
        <mxCell id="QvWTf6V_Tcqq188pRw3--132" value="1" style="text;html=1;strokeColor=none;fillColor=none;align=center;verticalAlign=middle;whiteSpace=wrap;rounded=0;fontFamily=Times New Roman;fontSize=14;" parent="1" vertex="1">
          <mxGeometry x="427.09" y="410" width="26" height="20" as="geometry" />
        </mxCell>
        <mxCell id="QvWTf6V_Tcqq188pRw3--134" value="1" style="text;html=1;strokeColor=none;fillColor=none;align=center;verticalAlign=middle;whiteSpace=wrap;rounded=0;fontFamily=Times New Roman;fontSize=14;" parent="1" vertex="1">
          <mxGeometry x="501" y="370" width="26" height="20" as="geometry" />
        </mxCell>
        <mxCell id="QvWTf6V_Tcqq188pRw3--135" value="1" style="text;html=1;strokeColor=none;fillColor=none;align=center;verticalAlign=middle;whiteSpace=wrap;rounded=0;fontFamily=Times New Roman;fontSize=14;" parent="1" vertex="1">
          <mxGeometry x="348.00000000000006" y="410" width="26" height="20" as="geometry" />
        </mxCell>
        <mxCell id="QvWTf6V_Tcqq188pRw3--136" value="1" style="text;html=1;strokeColor=none;fillColor=none;align=center;verticalAlign=middle;whiteSpace=wrap;rounded=0;fontFamily=Times New Roman;fontSize=14;" parent="1" vertex="1">
          <mxGeometry x="90.00000000000003" y="600" width="26" height="20" as="geometry" />
        </mxCell>
        <mxCell id="QvWTf6V_Tcqq188pRw3--137" value="1" style="text;html=1;strokeColor=none;fillColor=none;align=center;verticalAlign=middle;whiteSpace=wrap;rounded=0;fontFamily=Times New Roman;fontSize=14;" parent="1" vertex="1">
          <mxGeometry x="618" y="618" width="26" height="20" as="geometry" />
        </mxCell>
        <mxCell id="QvWTf6V_Tcqq188pRw3--138" value="1" style="text;html=1;strokeColor=none;fillColor=none;align=center;verticalAlign=middle;whiteSpace=wrap;rounded=0;fontFamily=Times New Roman;fontSize=14;" parent="1" vertex="1">
          <mxGeometry x="920" y="618" width="26" height="20" as="geometry" />
        </mxCell>
        <mxCell id="QvWTf6V_Tcqq188pRw3--139" value="1" style="text;html=1;strokeColor=none;fillColor=none;align=center;verticalAlign=middle;whiteSpace=wrap;rounded=0;fontFamily=Times New Roman;fontSize=14;" parent="1" vertex="1">
          <mxGeometry x="560" y="746" width="26" height="20" as="geometry" />
        </mxCell>
        <mxCell id="QvWTf6V_Tcqq188pRw3--140" value="*" style="text;html=1;strokeColor=none;fillColor=none;align=center;verticalAlign=middle;whiteSpace=wrap;rounded=0;fontFamily=Times New Roman;fontSize=14;" parent="1" vertex="1">
          <mxGeometry x="560" y="956" width="26" height="20" as="geometry" />
        </mxCell>
        <mxCell id="QvWTf6V_Tcqq188pRw3--141" value="*" style="text;html=1;strokeColor=none;fillColor=none;align=center;verticalAlign=middle;whiteSpace=wrap;rounded=0;fontFamily=Times New Roman;fontSize=14;" parent="1" vertex="1">
          <mxGeometry x="894" y="955" width="26" height="20" as="geometry" />
        </mxCell>
        <mxCell id="QvWTf6V_Tcqq188pRw3--142" value="1" style="text;html=1;strokeColor=none;fillColor=none;align=center;verticalAlign=middle;whiteSpace=wrap;rounded=0;fontFamily=Times New Roman;fontSize=14;" parent="1" vertex="1">
          <mxGeometry x="894" y="767" width="26" height="20" as="geometry" />
        </mxCell>
        <mxCell id="QvWTf6V_Tcqq188pRw3--143" value="1" style="text;html=1;strokeColor=none;fillColor=none;align=center;verticalAlign=middle;whiteSpace=wrap;rounded=0;fontFamily=Times New Roman;fontSize=14;" parent="1" vertex="1">
          <mxGeometry x="90" y="830" width="26" height="20" as="geometry" />
        </mxCell>
        <mxCell id="QvWTf6V_Tcqq188pRw3--144" value="*" style="text;html=1;strokeColor=none;fillColor=none;align=center;verticalAlign=middle;whiteSpace=wrap;rounded=0;fontFamily=Times New Roman;fontSize=14;" parent="1" vertex="1">
          <mxGeometry x="90" y="956" width="26" height="20" as="geometry" />
        </mxCell>
        <mxCell id="FDyta-szb_0lJt4S96MW-3" value="" style="shape=image;verticalLabelPosition=bottom;labelBackgroundColor=default;verticalAlign=top;aspect=fixed;imageAspect=0;image=data:image/png,iVBORw0KGgoAAAANSUhEUgAAAkYAAAJgCAYAAABvKKxHAAAAAXNSR0IArs4c6QAAAARnQU1BAACxjwv8YQUAAAAJcEhZcwAADsMAAA7DAcdvqGQAAF64SURBVHhe7d0HfFVlnv/x2Z2d/+7M7uzu7IzOjE7RUQdRdOyKfUAQ6SWETiAJaZQkJKRQQkd6ERCkiwIKiERAQJqC0qSKKNgABQEVsACKgL9/fk+eG5JwCS2599z7fN6v1++V85x7zrmNe86XU57zs2+++UYoiqIoiqKob4RgRFEURVEUZYtgRFEURVEUZYtgRFEURVEUZYtgRFEURVEUZYtgRFEURVEUZYtgRFEURVEUZYtgRFEURVEUZYtgRFEURVEUZYtgRFEURVEUZYtgRFEURVEUZYtgRFEURVEUZetnvZ4cLhRFURRFUdRw+VmPHj0kXCstLU2AYDt27JhMmzZN2rRpI48++qipJk2ayNixY+XAgQN2KgCAF/zM/g1LcXFxdggIjvHjx8uVV14pP/vZz/zWL3/5S+nSpYv8+OOPdg4AQDCFfDA6ffq0nDp1yraKIhghWPTfZXR0tN8w5K8eeughOXLkiJ0bABAsIReMjh49Kn369JF33nnHtOfOnSuPPPKIGS6OYIRgycrK8huASqrHH3/cBCoAQPAUCUbfffedOS+nU6dOsm/fPtmzZ4/k5OTIwIEDZefOndKrVy9JT0+XH374QTp37iwdOnSQzMxM+eCDDwqm03MmdFxGRoZ88sknMnPmTDO98g1v2rRJtm/fLh999JFZ3qBBg+TTTz81G5PevXsXWbaem3Hy5El59dVXzTxffvmlJCUlyZo1a8wyVXJysh0qimCEYNB/3//6r//qN/ycryZMmGCXAgAIhp/5Qovatm2bDB8+XIYNG2aG9WTR1atXS9euXSUyMlK+/vprE0I0QKmYmBjzt/B0U6dOleeff14mT55swotOv2rVKvniiy/M8NatW2XkyJGycOFCiY2Nle+//95MW716dfn222/l8OHDZpm+Zes8GtIeeOABM48aM2YMwQieVb9+fb+h50LqmmuukZ9++skuCQAQaD/zhRw1ffp0efPNNwuCUYMGDWTJkiWmNm7cKPfff79UrFjxrGBUeLo5c+bIggULigQj3VMUEREh8fHx5kqctm3bmpDTqlUrM//ixYvl4YcfNsM+hYOR7n2aMmXKRQUjPZm1ZcuWtgUEhl6B9qtf/cpv6LnQ2rBhg10aACDQigQjDT7du3eXJ554woSkGTNmSGpqqmRnZ5vDV7q3R0NI8WBUeLpatWrJV199VSQYdevWTVq3bi3t2rUz886aNcuEHJ1G52nevLmMHj3aLEMPrSnfslNSUmTevHkF8+zatUtq165tQpZvb5e/YDRkyBBZsWKFbQGBsXnzZr9h52KKw2kAEDxFzjHSk5qV/q936NChZlj3vOjhrvO50OmK0+fynXCqQUfPJ7oYep5S06ZNbSufHnrT4AQEmu799Bd2Lqb69etnlwYACLSQv1xf92ItW7bMtvJpKNJwBATa+vXr/Yadiyk9VAwACI6QD0bF6eEzPYwGBMOhQ4fk5z//ud/Ac6G1fPlyuzQAQKCF3S1B9MRuehFGMOktP/wFngup3/zmN/z7BYAgCrs9RkCw6cUC/kLPhZSGewBA8BCMgDJQt25dv8GnpCpfvrzp2R0AEDwEI6AMaLcU9913n98A5K/+9Kc/yYcffmjnBgAEC8EIKCPafYVeIXm+k7H1Hmn79++3cwEAgolgBJSxd99913RcevPNN8v//u//yi9/+Uu56qqrTCemdEIKAN5CMAKCgPv4AYA3EYyAICAYAYA3EYyAICAYAYA3EYyAICAYAYA3EYyAICAYAYA3EYyAICAYAYA3EYyAICAYAYA3EYyAICAYAYA3EYyAICAYAYA3EYyAICAYAYA3EYyAAJg1a5acOnXKtooGo9mzZ9shAECwEYyAAFi8eLGMHj3ats4Eo+XLl8u4cePMMAAg+AhGQIBERUXJkSNHzLAvGEVHR8vx48fNMAAg+AhGQIDs2LFDMjIyzLAGo127dklWVpZpAwC8gWAEBFCnTp1k586dJhhpKNq9e7d9BADgBQQjIID0UJoeUtNDaDExMXYsAMArCEZAgOlJ2BUqVJAVK1bYMQAAryAYISydPHlSli1bJqmpqRIbnyBJKWmS3DnHE9Uhu5tcX+5Gv48FsxLzPqOYuATzmelnp58hALiGYISwk5ubKw0aNpL0EZOl95rPpfPmY9RFVNe3PpcOwyZJnYhI81kCgEsIRggbp0+fNic0pw8YKd23HPW70acuvLpuPioJfUdIZt5nqp8tALiAYISwoaGo9/SFfjfy1KVXx2dflYxMuhUA4AaCEcKCHvLRPUX+NuzU5Vds7xEcVgPgBIIRQp7eg6xBZGMOn5VlbToqNSMaFbnfGwCEI4IRQp5eQaUnWhffmNfqPV7+dv9jct0DVeWBNplm4158mgst37Kuf6ia1Og+RqrnjJZGI+eY8ZVS+ppp/tmhl7SZveGsecOlYgZNMp81AIQzghFCXnp6uvRave+sDfkDsRnyaPuekrLiU/ndteUkaf52aTX1damaOUSe6PKUtFu4Q7I3fie1+06S6t1GSeb6I9Jp9Rfmca3Go+cWWdYjbbtL/Mtb5Bf/8Su5q0miVOsywoz/15//m8TOXC83PR4hLSYtKZhHhxNyt0qDITOk4xv7zvtc+jorp/aTWr3GXVaIK6tKe2OvJHdMt586AIQnghFCXnSbOL8bcg0t//PHv8iVN1SQ317zd8lYdyg/4CTlyMNJ3eT2BtHyUEIXubNRvNzbooPc1ThBEuZukT/ffr8JVDdWrltkWTr+pscbyhXXlTfT+4LRzU9EmsfKV21gwlCHJR/nBajNZnn3tkyW2+q1ksx1h8/7XI1GvSw1e4yV3/3tRhPgCr8Xr1Tj1m3spw4A4YlghJDXIqaN3424hpbH0geYYd2bU6ffZDPu2oqV5YZHqsuj7XpI+Sr1pcmYeSbQ/PXuh83enQfbZEnU1BVnBaN7mrWT6OlvmoBVOBjV7PmM3FwtUv79v/7bLEcPrV1zz6MmEGkgq9Z5uFnG+Z6rUnIfuaVmU/njTXdIi4mvFTy3l6p+VKz91AEgPHk+GNVLTJPaHbpSJVTNhk3kwIED9hNzT7Pocwej//7Dn+QP5W8vOJSm4zSUXPfg43JHRKw0GTvfPP6H8rdJxLAX5de/v1p+X+5W+ePNd8p//t8VkvX21wXL8oUsreLBKHnpLvmPX/+PCT2+ae5u2lZq95lo9jClLN9z3ufSPVh6DpPu4Wo4fGbBcrxU9VoSjACEN88HowcbxfhdQVNn6rG6DSUiIsLZcHSuYHShlb3xW8na8I35q3t+fOMr1GhsDoEVnvZy63zPpXujCk/vtSIYAQh3BKMwKN1YaShyNRxdbjCiLrwIRgDCHcEoDMq3sXI1HBGMAlcEIwDhLmSCUVK3KnJti2S5V6tisjTddFSyx+UNjzua/1i398x02QtGyb122JUqvLFyMRw1JxgFrAhGAMJdCAWjZHliQX7fLr5AdCYY5Qcmfbx4MEoat0iSNr0nTbvp37zHNy2SJ0zAGmXbeY/lDT+hyx9XeD4dp8vKn69wO3HjdruM/MfMayq2HG0Xnib/dejrWyRN7fsorSq+sXItHLWK9X+5PlX6FdmKy/UBhLfQ3GOUF0CK7jHSUKRBJC/s2GCUnddO0soLM0011Ngw0jRvfjNvwXR5j2nIKh6odD4zv+85zrTLVc1/Pt9z6fTFl6PPU3iagvn1teRN53ue0ih//4t3KRylpadL5sq9fj8bqvQq9fW9kpSSZj91AAhPIbnHyFdFg5ENJXmB5O6ur0lTDTR5Qal2e/1rHzd7cXx7ihbljV9UQjDKm2fcovyA43sO275Xg5EO55VvL5PfYFRomoL5zd+yD0bKlXCkt6lIHDLJ72dDlV41fnICtwQBEPbCKhjlT3fmfKP8tu5dKhSIxmlwyT+cVm3+dnmiom9PlP49c2hMl+kb7wtGvna1NP2ry6hint8ErmLLSdTXVmia/NeRH5wCFYyUC+FIb2xaI6KRJ2+jETaV99lWqhvJTWQBhL2QCUZlUeZ8o0IhqmleePEFo4up0lrOpValmI5+O370VaWWSVK1dn37iYan3NxcadFzhN/Ph7r8qtd1uMyZm2s/bQAIX04HI5fKhauJ0jKyJG7CfL/vn7r0avnMfGmXnmk/ZQAIbwQjR8qFYHT69GlJzQtHkTnDOaxWGpX3GdbpOlzapmWazxYAXEAwcqRcCEY+esinUp2GEtFvgnR8Y5/fz4M6d+lnVrfvBHmodkOZOWeu/VQBwA0EI0fKpWCkTp48KUuWLpPWbVOkdlSc1EtIlcjUblQJVTc+VWq1jJOWSSmyOO+z088QAFxDMHKkXAtGAABcipAJRsV7ovbXs7T2Ou3r0bp4T9PFe7wuHhzCvQhG3jNv3jw7BADwitAJRtoPUKGeqM/uWTq/LyNfB4vFe5rW6Qv3eF08OIR7EYy8Jy4uzg4BALwihIKR9hid3/O0L+gU7VnadqBoe7QumD7vb7Vn9N5mtoNH+3jx4BDuRTDyHoIRAHhPSAWjwj1Rm16vi/Qsnfd4XjjSw2W656h4T9OFe7wu3oO2C0Uw8h6CEQB4T9icfO0LQv4eowhGXkQwAgDvCZtgRJVcBCPvIRgBgPcQjBwpgpH3EIwAwHsIRo4Uwch7EhMTudUGAHgMwciRIhh5T0pKihw7dsy2AABeQDBypAhG3pOVlSWHDh2yLQCAFxCMHCmCkff06NFD9u3bZ1sAAC8gGDlSBCPv6d+/v3zyySe2BQDwAoKRI0Uw8p7hw4fLe++9Z1sAAC8gGDlSBCPvGTNmjGzatMm2AABeQDBypAhG3jN58mRZvXq1bQEAvIBg5EgRjLxnxowZsmLFCtsCAHgBwciRIhh5z8svvywLFy60LQCAFxCMHCmCkfe8+uqrJhwBALyDYORIEYy8Z/ny5eZwGgDAOwhGjhTByHv0xOspU6bYFgDACwhGjhTByHv0Uv2xY8faFgDACwhGjhTByHu2b99uOnkEAHgHwciRIhh5z8cff2xuCwIA8A6CkSNFMPIevYGs3kgWAOAdBCNHimDkPYcOHZLs7GzbAgB4AcHIkSIYec/Ro0clNTXVtgAAXuD5YNSobbpEpnajLrPiUzrZTxTBNGvWLDl16pQZ1r+JiYlmWM2ePdsOAQCCxfPBCAgnixcvltGjR9uWSFxcnPmrnT2OGzfODAMAgodg5KhXXnnF3I5i165ddgwCJSoqSo4cOWKGfcEoOjpajh8/boYBAMFDMHLU3r17Zf78+bJgwQI7RqR9+/aSk5Mj7777rh2DsrBjxw7JyMgwwxqMNJxmZWWZNgAguAhGKGL//v3y+eefm+E9e/aYDXdMTIx89tlnZtw333wj3333nRnGpevUqZPs3LnTfL4ainbv3m0fAQAEE8EIF2XdunWSnJwsHTt2tGNEli5dKmvWrCk4PISS6dVog4cMlb9e+zd58MEHpVWrVvYRAECwEYxw2d555x2ZNGmSvPTSS6b9008/mfA0atQos9cJ+fQQWtvUdHm8SbTETH5NHs8eJr/90zVy/2PVJCu7szm8CQAILoIRyoSeSLx582bTu7N6//33JTY2Vtq2bVuwZ8mFk431kvyX586Vuk1aSt0OXSV5yccFfUtlb/xWylWqbYY7vrpdGiR2lBatY81d9wEAwUEwQkCdPHlSTp8+bYaXLFlizl8q3PuzHqrTc29C3Zdffim9+j0pVRo0kWZDnpOst78uCEQlVae3Dkrz7kOlZsMm8tzzz8uJEyfsEgEAgUAwgqdofz4DBw6UqVOnmrYGqd69e5vODw8cOGDGedn69euleWy8VI9uJ/Ez1/kNPxdUm45K66fnSLXIFtK1R085ePCgfQYAQFkiGMHz9Iq4V199teDKrW3bthXsafr+++/NuGD64YcfZOLkKfJ4gyYS0XmQpK3a7z/sXGIlztmYF7TaS4vYBNm0aZN9VgBAWSAYIWR98cUX5kRvNW3aNImPj5devXqZttLzmrR7gbKiQS25U5ZUadxKosa+4jfUlGZ1fGOf1M14UqpFNJUXZ80uuLUIAKD0EIwQtl544QVzk1bfPcj0ZO+nn35aVq1aJceOHTPjLsXChYukfvPWUiOhk7R99X2/IaYsS0/abjx0ujxar4n0eHKgHD582L4yAMDlIhjBGXq+0oYNG+S5556Tjz76yIzTtl4pN2LECPP4uXz99dcyYOgwqVy/sUT2HSeZ6w77DS2BrpgZq+WfzeKkZWKybHt3u321AIBLRTCC8/Qcoa1bt9qWmOCk5zD179/fjI9O6iCP1G8mMdNW+g0nXqjkZbulartu8nhkC5mdO6/gECMA4OIQjIBifvzxR5n2wovmXJ7aaX0kZcWnUjVziNxWr5U0HD7TbzDxSmWuPyJ1+02SB+o0lh6DR3D7FgC4SAQjwNJ7xHXqkiOVG7aQpiNmmnN5/IWPUKmoZ5dLxYatpXm7NNnx4cf2XQIASkIwgvNWvP6GNGgZI4/Hpkr8y1v8hoxQrvaLP5SHYzPM1XMvLVxq3zUAwB+CEZymd7kvd8ttkrlkp99QEU6VvPQTufbWuyQpJc2+e/ho1wu7du0KWul99FasWBHUmjt3rkyZMiWopef19ejRI6ilN3UORGk/bP6ePysry+/0pV2tW7cu8rz9+vWzvwYQjOA87a26fYcO0iAqVlImzzO9TvsLFqFasc+tkCdaxEuruARZs2aN2Qj6VoYpKSl+V5qlXYmJiUVWwoUrISHB7zylXdp1g7/nD2Q988wzfgNBoOrZZ589KxAFuvS2P/7CYSCrLPs3C1VxcXF2CAQjwNJ+jnTDEdGkmTTp2E06LgrdvUja+3aDrkPl8YimMuypp0x3AwBwLgSjMwhGgB8ffPCBZGRlS43GLSVq6PPmai9/AcRrFT11hTzWPE6axebvHQKAC0EwOoNgBJRAO33Mzc2Vhi1aS802qRI/a73fQBLM0r1DtTsPlcr1m8jg4ewdAnDxCEZnEIyAC7R//37p2fdJE0Dq5YyUtDcP+A0qgaqoqSvk0aZx0ig6Qd5azd4hAJeOYHQGwQi4BK+/sVIiW8fLo03aSIuJr/kNLmVRuneoevZQc5+0fkPZOwSgdBCMziAYAZdBr24ZNHKMCSpVUnqbS+L9BZrLLd079GCTOKmfF8ZWvsXeIQCli2B0BsEIKCUbt7wjzdp2lPsaRJlbh2Rt+MZvyLnQ0r1D1bKGyIN1m0jPIewdAlB2CEZnEIyAUnbixAkZNfUFeSSihTwQky4JuVv9Bp9zle4duq9RG6ndKl6WrVptlwoAZYdgdAbBCChD7328W6LSu8ntNZtIrd7jJWPtV37DkO4d0hvV3leniXQeOEIOH2HvEIDAIRidQTACAuDU6Z9k/JyF8nCjaLm7SZK0fn6lCUS6d+ieyDZSvWW8LHzjLTs1AAQWwegMghEQYDs//0Lieg6Re+s2lfT+I+TLw+wdAhBcBKMzCEZAEM2bN88OAUDwEIzOIBgBQcTKCIAXsC46g2AEBBErIwBeEB8fLz/99JNtuY1gBAQRwQiAF7Rt29bcGxIEIyCoCEYAvKBDhw7y/fff25bbCEZAEBGMAHhBx44d5ejRo7blNoIREEQEIwBe0KlTJ247ZBGMgCAiGAHwguzsbDl06JBtuY1gBAQRwQiAF3Tt2lUOHjxoW24jGAFBRDAC4AU9evSQzz//3LbcRjACgohgBMALevfuLZ9++qltuY1gBAQRwQiAF/Tr10927dplW24jGAFBRDAC4AUDBw6Ujz76yLbcRjACgohgBMALhgwZIjt27LAttxGMgCAiGAHwghEjRsj27dtty20EIwAAHDdq1CjZunWrbbmNYAQAgOPGjh0rmzZtsi23EYwAD9IrRGJjYyU6Olq6d+9uxwJA2Rg/frysX7/ettxGMAI8at68eTJr1iwzvHr1ann++eclNzfXtPVcgC+//FKOHTtmdoHrtABwqSZPnixr1qyxLbcRjACPKhyM2rVrJ4sWLZKEhATT1v/dbd68WZKTk01IGjRokKxdu9Y8BgAXa+rUqbJq1SrbchvBCPCowsGobdu25q8GJDV69GgTjCIiImTYsGGmDxJOnARwqaZPny6vv/66bbmNYAR4lL9gNGnSJElPT5d69eqZYDRt2jRzV+zmzZvL/v37zTQAcLFefPFFWbp0qW25jWAEhJgffvjBDuU7ceKEnDp1yrYA4OK99NJLsnjxYttyG8EIAADHzZ07VxYsWGBbbiMYAUFEz9cAvGD+/Pnyyiuv2JbbCEZAEBGMAHjBwoULZc6cObblNoIREEQEIwBesGTJkoKLPVxHMAKCiGAEwAuWL18uM2bMsC23EYyAICIYAfCClStXmt71QTACgopgBMAL3nrrLZkyZYptuY1gBAQRwQiAF6xbt04mTpxoW24jGAFBRDAC4AUbNmyQZ555xrbcRjACAkiv+ijcS3XhYDR79mw7BACBtWXLFnn66adty20EIyCAtMt9vQGsjy8Y6RUh48aNM8MAEGjbtm2TkSNH2pbbCEZAgLVq1UqOHDlihn3BKCYmRo4fP26GASDQ3nvvPRk2bJhtuY1gBATYjh07JCMjwwxrMNq1a5e5Qz4ABMsHH3wggwcPti23EYyAINBgtHPnThOMsrKyZPfu3fYRAAi8jz/+WPr3729bbiMYAUFw+PBhc0gtOjraHEYDgGDas2eP9O3b17bcRjACgkRPwr7llltkxYoVdgwABMfevXulZ8+etuU2ghHCysmTJ2XZsmWSmpoqsfEJkpSSJsmdczxZ7bO6yvXlbvT7WChVfHKatI5LMJ+5fvb6HQAILQcOHJCcnBzbchvBCGEjNzdXGjRsJOkjJkvvNZ9L583HqABW5qp9kjhkklRvEGm+CwCh48svv5TOnTvbltsIRgh5p0+fNicwpw8YKd23HPW70aYCWJuOSoueIyQtI8t8NwC8T7sQyczMtC23EYwQ8jQU9Z6+0P9GmgpaxU+YL6l54QiA93377beSlpZmW24jGCGk6SEb3VPkb8NMBb8ic4bLnLkcVgO8TjuYTUlJsS23EYwQsvSeYw0iG3P4zMu16ahUrhtZ5P5wALznxIkT0q5dO9tyG8EIIUuvgNITrYtvjGv1Hi9/u/8xue6BqvJAm0yzcS4+ja86rvxc7m3RQW54pLrU6D7G7zT+qlJKX6nZY6zc1ThRsjZ8Iw/GZctf7nxI7o/pJNkbv/U7z6XWvS2T/Y4PlYroN0GWLF1mvzUAXqTnAyYmJtqW2whGCFnp6enSa/W+szbED8RmyKPte0rKik/ld9eWk6T526XV1Ncl7qWNBdNEPvWSpCzfY4JM9W6jpP7gaXmB5jtTtftOMuMy1x+RlpOXSuPRuVKl00BJW7W/YP77WqWaAKaBqmrmYLmlZlOzvNvqtzaBKSF3qyTM3WLmb/vq+2Z5VTOHSJvZGwqGtXTZ+vpiZ66TZuMXmWWnv3lQqmQMyntsrsS/vFnuj043r1+nf6LLU9Ju4Q5pMWlJkecoPI8uI2PdIanWZYR5Lfq6Cz9WfF6twq+h+LIut1Jf3yuxHTh3AfA6370bXUcwQsiKbhPnd0Osweh//vgXufKGCvLba/5uQoKOq54zumCa6x+qJq2nrZLyVRvIrbWbyz/qRpmw81BCF7mzUbzZi3RX4wTzt3yV+vJwUjczTeHn8dXNT0SaYOVr3920rVRO7Sf/7NDLzF+heiMTrHS5GlY0lP36yqtMALurSaLUeXJy3uu8QW6PiDHz/6NuS3m0XQ/5690Pm1CkAUVf/yNJOeZ13N4g+qznKDxP6+dXmveiVbF1x7zwVqPIY8Xn1Sr8Goovy/e+LqdqtYi13xoAryIY5SMYIWS1iGnjdyOsIeKx9AFm+KbHI6ROv8lm3LX3/lNurFzXDPuCkYaWhsNnmr0mGgQ0BDUZM8/sVdG2hgbdwxP74lq55p5HznouLT3UVSm5jxnW561QvbE5jKeH83T+ZuMWyq9+8zu56pa7TTDS6TSE+A7jXXH9TeavLxj9+Y4HzOvSYHb9Q0+YPTjm9VesbPZQaWjRcFP4OQrPo++rXOU60nziYrMn6Oq85y38WPF5i7+G4svyvc/LqWrNCEaA1xGM8hGMELKaRZ87GP33H/4kfyh/e8GhNB2nQefvj9aU+6JSCoKRBqI/lL9Nfl/u1ryANEuajJ1v5tNxGpg0LGigufKGm82hM3/P12HJx3JVhbvMMq6+5R65o2Ebqdt/itTuM9HMr89Zt/+z8lB8Z7/BqEKNxuZ5fcFIn+dPt1U0z6uvU8f5Xv91Dz4ud0TEmnBT+DkKz6OvR1/7FdeVN6V7mgo/Vnze4q+h+LJ87/NyqmpTghHgdQSjfAQjhKxzBaOLLT2vSE+gPtP+tqCtoUEDROa6wwWPn6s6rfnS7/hLKT2/Sf/q3qLij52rfPMUbvveR/HHzlcXO/35imAEeB/BKB/BCCGrtIJRSRU3Z5O0X/yh38eoCy+CEeB9BKN8BCOErEAEI6p0imAEeB/BKB/BCCGrOcEoZKoqJ18DnkcwykcwQshqFev/cv2yqMIdOvp7nCq5ajQnGAFeRzDKRzBCyEpLT5fMlXvP2gj7OjBsMGSGdHxjn7nKSk+ejnlhjenLyNe5YvT0tyTq2eWmE8XkpZ9I5Y5PmiuzdBl6tVrhjh0Ld+hY/Pmokks7eGzRrqP91gB4FcEoH8EIIUtvCZI4ZNJZG2K9HF37FrqtXisTiPRvxLAXpVyl2qZDR73STDsx1A4OtQNE7afoL3c8KLV6jTOXqGuA0mnO17EjdWFVu88EWfDaUvutAfAqglE+ghFClt6YtEZEo7PuhabBSHu8rtZ5uGnr3h/t/Vl7wvb14aMdMfqC0e9v/If84j9+ZXrI1n58GgyeboLR+Tp2pC6g8r6birW4iSwQCghG+QhGCGm5ubnSomd+p4m+0vCjfQ9p54Z6/zId939/vUEeTuzqNxjV7PmM6XxRe3y++tZ7zaEfDUa696ikjh2p81f1zsPkudlz7bcFwMsIRvkIRgh5aRlZEjch/9wgf6XnDf3v1ddI2wXv+X3cV7rHyDd8MR07Uv6rad7nHp2Sab8lAF5HMMpHMELIO336tKTmhaPInOFnHVbT0nuGRU1dcdb4koqOHS+j8r4D3VOkoUi/GwChgWCUj2CEsDFnbq5UqtNQIvpNMFej+d1oU2VW+pnridYVazbk8BkQgghG+QhGCCsnT56UJUuXSeu2KVI7Kk7qJaRKZGo3qgyrTlyq1GoZJ80Sk83VZ/odAAg9BKN8BCMAAEAwsghGgAfNmzfPDgFAYBCM8hGMAA9iBQUg0Fjv5CMYAR7ECgpAoLHeyUcwAjyIFRSAQGO9k49gBHgQKygAgcZ6Jx/BCPAgVlAAAo31Tj6CEeBBrKAABBrrnXwEI8CDWEEBCDTWO/kIRoAHsYICEGisd/IRjAAPYgUFINBY7+QjGAEexAoKQKCx3slHMAI8iBUUgEBjvZOPYAR4ECsoAIGWmJgop06dsi13EYwADyIYAQi09u3by4kTJ2zLXQQjwIMIRgACLSUlRY4dO2Zb7iIYAR5EMAIQaOnp6fLtt9/alrsIRoAHEYwABFpmZqYcPnzYttxFMAI8iGAEINC6dOkiX375pW25i2AEeBDBCECg5eTkyP79+23LXQQjwIMIRgACrVevXrJ3717bchfBCPAgghGAQOvbt6/s3r3bttxFMAI8iGAEINAGDBggH3/8sW25i2AEeBDBCECgDR48WHbu3Glb7iIYAR5EMAIQaMOHD5f33nvPttxFMAI8iGAEINBGjhwp77zzjm25i2AEeBDBCECgjRkzRjZv3mxb7iIYAR5EMAIQaOPGjZO3337bttxFMAI8iGAEINAmTZoka9eutS13EYwADyIYAQi0Z599Vt58803bchfBCPAgghGAQJs2bZq88cYbtuUughHgQQQjAIH2wgsvyLJly2zLXQQjwANmzZolp06dsq2iwWj27Nl2CADKjq6HXnvtNdtyF8EI8IDFixfL6NGjbetMMFq+fLm5UgQAytrLL78sr776qm25i2AEeERUVJQcOXLEDPuCUXR0tBw/ftwMA0BZeuWVV2TevHm25S6CEeARO3bskIyMDDOswWjXrl2SlZVl2gBQ1nRvke41ch3BCPCQTp06mZs4ajDSULR79277CACULT2kzzmNBCPAU/RQmh5S00NoMTExdiwAlD29Ik2vTHMdwQjwGD0Ju0KFCrJixQo7BgDK3uuvv276MnIdwQhh5eTJk+Z/PampqRIbnyBJKWmS3DknpKpDdje5vtyNfh/zWiXmfb4xcQnm89bPXT9/AKFJe72eOnWqbbmLYISwkZubKw0aNpL0EZOl95rPpfPmY1SAqutbn0uHYZOkTkSk+R4AhJ41a9aY+6W5jmCEkHf69GlzonL6gJHSfctRvxtuKjDVdfNRSeg7QjLzvg/9XgCEDr2z/vjx423LXQQjhDwNRb2nL/S7oaaCUx2ffVUyMulqAAglmzZtkjFjxtiWuwhGCGl62Eb3FPnbOFPBrdjeIzisBoSQd955R0aNGmVb7iIYIWTpvcUaRDbm8JlXa9NRqRnRqMg94AB41/bt22X48OG25S6CEUKWXgWlJ1oX3yBnrj8i90eny1/ufEjuapwoaW8eOGsaKjAVM2gSd+sGQoR2LjtkyBDbchfBCCErPT1deq3ed9bGuFJKX7n5iUjpuPJzeSA2Q26PiJHq3UZJ1cwhpnR8i0lLJCF3qzQYMkMaj5orjUfnSpVOAyVt1X5pNfV1iXtpY8HyIp96SVKW7ymyDJ0+af52iZ25TpqNXyTpbx6UKhmD8sbPLZiv8HN0fGOf1Oo9XjLXHZaYF9ZI9ZzRBcuKnv6WRD27XOJf3izJSz+Ryh2flCZj55tltJy8tMhry974ndTuO8m8Fg2A+hyFl1N8em2X9DpbPfeGeX86HDH0BYl9cW3B606Yu8XMX3wZhd9X4ivbpHJqP6nVa5zZQ+R7775Ke2OvJHdMt98YAC/76KOPZMCAAbblLoIRQlZ0m7izNsRaNz5WTyJHzDbDcXM2yZU3VDAb/19feZUJFelvHZS7m7aVe1smy231Wsk9zdpK+Sr15eGkbvKPulEmTGlw8S3v+oeqSetpq4os464miVLnycny22tuMMHrH3VbyqPteshf735YWj+/0sxX+Dk0EOnfiGEvSrlKtaV81QZyb4sOZr5/duglFVt3NGHnL3c8aELGVbfcbQKUTlP4tT2U0EXubBRvxt/VOCH/OQotp/j02i7pdT4U31l+9ZvfmeD27//5a3ksfYBZpoYd3/KKL6Pw+2o4bKbU7DFWfve3G02g9H1mhatx6zb2GwPgZXoLon79+tmWuwhGCFktYtr43RDrhls3/jpcf9DzJtjosG7YdW+Rb5rfXvN3qdZ5uNnwayjRvSXX3POICUbX3vtPubFyXTPsC0aFl6HzXHH9TeavhoU/3/GAVKjeyIQV37SFn0PbuuflhkdqmKCmj9XtP8UEEV8w+v2N/5Bf/MevJGPdIbPMBoOnn/XaNPQ0GTPP7LXRcFN8OcWnP9/r1GB0zT2PmuVeW7FyQTC67oGq8rf7HzPzFV9G4fdVKbmP3FKzqfzxpjukxcTXzPssXvWjYu03BsDLPvvsM+nVq5dtuYtghJDVLNp/MOrw2kdyVYW7zF4X3aDHzlxvxhcPRrX7TJQrrisvd0a2MdNeecPN5nCXhiENHX9/tKbcF5VyzmBUoUZjc8hLw4LO96fbKprldFjy8VnPoYfidNz//fUGeTix61mBRoNRzZ7PmKCi4eXqW++V1Nf3mucp/Nr0+f5Q/va8uk0aDp951nKKT3++16nPV6P7GPm3f/9l3t+nC4KRLlNfu85ffBmF39ettZqbz0fDnr4efY/Fq15LghEQCvbv3y/du3e3LXcRjBCyzhWMfJWx9iu/44uXbvh1Q6+Hu/w9fqGl5/z4G+8rDRb/e/U10nbBe34f95XuMfIN+3tt2Ru/lawN3xS0C9eFvJfzvc6LrcKv118RjIDQ8MUXX0iXLl1sy10EI4Ss8wWjCy09D6n94g/9Plaa1XziYomausLvY+eqi31tgXovF1MEIyA0HD582HSY6zqCEUJWaQUjqmyLYASEhm+++cZc7es6ghFCVnOCUUgUwQgIDceOHZPU1FTbchfBCCGrVaz/y/Upb1VkKy7XB0LBDz/8IO3bt7ctdxGMELLS0tMlc+VevxtjyhulV9YlpaTZbwyAl+nte5KSkmzLXQQjhCy91UTikEl+N8iUN6rxkxO4JQgQQuLj4+2QuwhGCFn6v5saEY383oqC8kDlfS+V6kZyE1kghMTFxdkhdxGMENJyc3OlRc8R/jfMVFCrXtfhMmdurv2mAIQCghHBCGEgLSNL4ibk33SV8ka1fGa+tEvPtN8QgFBBMCIYIQycPn1aUvPCUWTOcA6rBbvyPv86XYdL27RM870ACC0EI4IRwogetqlUp6FE9Jtg7hbvd8NNlUnp51237wR5qHZDmTlnrv1GAIQaghHBCGHm5MmTsmTpMmndNkVqR8VJvYRUiUztRpVR1Y1PlVot46RlUooszvvc9fMHELoIRgQjAABgEYwIRoCnzZs3zw4BQNkjGBGMAE9jJQUgkFjnEIwAT2MlBSCQWOcQjABPYyUFIJBY5xCMAE9jJQUgkFjnEIwAT2MlBSCQWOcQjABPYyUFIJBY5xCMAE9jJQUgkFjnEIwAT2MlBSCQWOcQjABPYyUFIJBY5xCMAE9jJQUgkFjnEIwAT2MlBSCQWOcQjABPYyUFIJBY5xCMAE9jJQUgkFjnEIwAT2MlBSCQWOcQjABPYyUFIJBY5xCMAE9jJQUgkFjnEIwAT2MlBSCQWOcQjABPYyUFIJBY5xCMAE9jJQUgkFjnEIwAT2MlBSCQWOcQjABPYyUFIJBY5xCMAE9jJQUgkBISEuT06dO25SaCEeBhBCMAgdSuXTv58ccfbctNBCPAwwhGAAIpOTlZjh8/bltuIhgBHjJr1iw5deqUbRUNRrNnz7ZDAFA20tLS5LvvvrMtNxGMAA9ZvHixjB492rbOBKPly5fLuHHjzDAAlJWMjAw5cuSIbbmJYAR4TFRUVMGKyReMoqOjnd+9DaDsde7cWb766ivbchPBCPCYHTt2mP+1KQ1Gu3btkqysLNMGgLLUrVs3OXDggG25iWAEeFCnTp1k586dJhhpKNq9e7d9BADKTs+ePWXfvn225SaCEeBBeihND6npIbSYmBg7FgDKVp8+fWTPnj225SaCEcLayZMnZdmyZZKamiqx8QmSlJImyZ1zQqL++Xh1+e0VV0qDZi39Pu610s9WP2P9rPUz188eQGjp37+/fPLJJ7blJoIRwlZubq40aNhI0kdMlt5rPpfOm4+FVGVv/FbKVart9zEvl37W+pnrZ6/fAYDQMWjQIPnggw9sy00EI4Qd7c5ez8tJHzBSum856nfjTZV96Wev34F+F67fYgAIFcOGDZP333/fttxEMELY0Q1x7+kL/W6sqcCXfhdcVQeEhqeeekq2bdtmW24iGCGs6KEb3UvhbwNNBa/0O+GwGuB9Tz/9tGzZssW23EQwQtjQW2k0iGzM4TMPln4n+t0Uvt0JAO955plnZOPGjbblJoIRwoZeCaUn/RbfKNfqPV7+dv9jct0DVeWBNpnSeVPgg9O9LZP9jnep9LvR7wiAd02YMEHWrVtnW24iGCFspKenS6/V+87aID8QmyGPtu8pKSs+ld9dW06S5m+XFpOWSELuVkmYu0VaTl4q6W8elCoZg6Tx6Llmnox1h6RalxFSs8dYSVu1v8hjxefV0mXGzlwnzcYvOmtZ8S9vlvuiUgqWl73xu7OW0fbV96V6t1FSNXOItJm9oWBYq/Ho3BKX76tOq78oNM/cs6Yr6T3XeXKy+XzqD3rePK7TFp++1dTXJe6ljQXPF/nUS5KyfI80GDJDEudtk8gRs830vseLl343+h0B8K4pU6bI6tWrbctNBCOEjeg2cX43yBqM/uePf5Erb6ggv73m7yb03N20rVRO7Sf/7NBL7m3RQf5Rt6U82q6H/PXuh6X18yvlvlappiq27ig3PFKjyGPF59XSYPHba26Q2yNizlrWE11HSvkq9QqW13raqrOWUaF6I6nSaaDc2SjeBCgNHb++8iqp3XeS3NUkscTl+96nBpg/336/CYE3Vq571nQlveeHEjrLnZFx8seb7pDrH37CBLXi0+vnWD1ndMHzXf9QNfNemj6zQK64rrz8ofztkrnucMHj/kq/IwDe9dxzz8nKlStty00EI4SNFjFt/G6MdYP+WPoAM3zT4xFSp99ks9HXQ2t6iE03+n++4wETTu5qnGA29uUq15HmExebPTVX33J3kceKz6t1xfU3mb8aXIov65ZazUy48i0veeknZy2j2biF8qvf/E6uynsuDUb6WjUIdVz5+XmX73ufuufmwTZZEjV1hQlGxacr6T3XG/i8/P7Gf8h//t8Vcm3FypK14ZuzptfP8dp7/2mWrcO+YKR7nv7zt783oc73Ws5V+h0B8K4ZM2bIihUrbMtNBCOEjWbR5w5G//2HP5k9Gr5DabrRr9t/itTuM9Fs9PU8pD/dVtEEkw5LPpaGw2eavSBajyTlFHms+LxaFWo0liZj55vgUnxZGiQKLy/mhTVnLePvj9bMaz8rD8V39huMSlq+TquH5379+6vl9+VulT/efKcJOHrYrqTXXXg5+rfh8FlmWMNV1czBZ02vn6PuXdLXqocGfcHo1trN5bG0/iZY6d6jwp998dLvCIB3zZw5U5YsWWJbbiIYIWycKxhdaGWuP3JWW/ec+HvsfFV4et2j4hvnW97lVvHXo71k31wtsqCtQUoPa53vdV/s+7rcIhgB3jZnzhxZtGiRbbmJYISwcbnBiCr7IhgB3qb9jc2fP9+23EQwQtggGHm/CEaAty1YsMD5zlgJRggbBCPvF8EI8DY9jPbSSy/ZlpsIRggbBCPvF8EI8LalS5eaE7BdRjBC2DhXMPJ1VKiXs3d8Y5+5GktPTNarw7RfHl+niNHT35KoZ5ebDhn1kvrKHZ80V4LpMrSDQ+1oUfsa0g4fiz8HdWFFMAK8TS/Vnz59um25iWCEsHGuYKSXnestOW6r18oEIv0bMexFKVeptpSv2sBciq6dHWpHhtoBo/Y6/Zc7HpRavcaZy9c1QOk05avUl4eTuuVNG+X3eajzF8EI8LZVq1aZTh5dRjBC2CgpGGmP19U6Dzdt3fujHS5qT9i+vnq0A0hfMNL+eH7xH78yPWRrv0ENBk83wUgDU+yLa+Waex456zmoCyuCEeBtejuQyZMn25abCEYIGyUFI+2kUDtX1Ht76bj/++sN8nBiV7/BqGbPZ0xHi9oz9NW33iupr+81wUj3Hl15w83mUFzx56AurAhGgLetX7/e3EjWZQQjhI1zBaPipecN/e/V10jbBe/5fdxXusfIN6zBSMPV+e4FRpVcBCPA2zZu3Chjx461LTcRjBA2LjQY6T3L9H5i/h47V8XN2STtF3/o9zHqwotgBHjb1q1bZfTo0bblJoIRwsaFBiMqeEUwArzt3XfflREjRtiWmwhGCBvNCUaeL/2OAHjXjh07ZOjQobblJoIRwkar2Di/G2PKO6XfEQDv+vDDD2XgwIG25SaCEcJGWnq6ZK7c63eDTAW/9LvR7wiAd+3atUuefPJJ23ITwQhhY9myZZI4ZJLfjTIV/NLvRr8jAN716aefSu/evW3LTQQjhI1Tp05JjYhG0nnTUb8bZiqIlfed6Hej3xEA79q3b5/06NHDttxEMEJYyc3NlRY9R/jfOFNBK/1O9LsB4G0HDx6Ubt262ZabCEYIO2kZWRI3If/mr1TwS78L/U4AeN9XX30l2dnZtuUmghHCzunTpyU1b0McmTOcw2rBrLzPXr8D/S70OwHgfV9//bVkZGTYlpsIRghbc+bmSqU6DSWi3wTp+MY+/xtvqtRLP2v9zPWz1+8AQOj47rvvpGPHjrblJoIRwtrJkydlydJl0rptitSOipN6CakSmdqNKoPSz1Y/Y/2s9TPXzx5AaPn+++8lOTnZttxEMAIAAMaPP/4obdu2tS03EYyAEDVv3jw7BACl46effpKEhATbchPBCAhRcXHcXgNA6XN93UIwAkIUwQhAWbjUdcvs2bMlMTHRnKM0duxYO/aM0aNH2yFvIxgBIYpgBKAsXOq6ZdCgQbJt2zbbEjl8+LAMHz5cnnvuOdP2nbv0ySefmGk3btwox44dk1GjRnnq1ACCERCiCEYAysLlBKPmzZubPUbr1q0ze5D2799vLv9/9913C4JRfHy8bN26VWbOnGmm3b59u5l37dq15vFgIxgBIYpgBKAslNYeo6eeekpycnIkKipK3n777YJgtHPnTnM/Ng1RERERMmzYMBk4cKAJS15AMAJCFMEIQFkorWDUoUMHGTp0qDRu3FiWL19eEIz0Xmx9+vSRmJgYmTZtmrkFiYYk3bvkBQQjIEQRjACUhdJct+g5RP4UHn/ixAk5deqUbQUfwQgIUQQjAGXB9XULwQgIUQQjAGWBYAQgJBGMAJQFghGAkEQwAlAWCEYAQhLBCEBZIBgBCEkEIwBlgWAEICQRjACUBYIRgJBEMAJQFghGAEISwQhAWSAYAQhJBCMAZYFgBCAkEYwAlAWCEYCQRDACUBYIRgBCEsEIQFkgGAEISQQjAGWBYAQgJBGMAJQFghGAkEQwAlAWCEYAQhLBCEBZIBgBCAmzZs2SU6dO2VbRldfs2bPtEABcHoIRgJCwePFiGT16tG2dWXktX75cxo0bZ4YB4HIRjACEjKioKDly5IgZ9q28oqOj5fjx42YYAC4XwQhAyNixY4dkZGSYYV157dq1S7KyskwbAEoDwQhASOnUqZPs3LnTrLw0FO3evds+AgCXj2AEIKTooTQ9pKaH0GJiYuxYACgd8fHx8tNPP9mWewhGQAjSk7ArVKggK1assGMAoHS0bdtWTp48aVvuIRghbOkPe9myZZKamiqx8QmSlJImyZ1zwqI6ZHeT68vd6PexYFZ8cpq0jkswn7l+9i6vXIFQ1aFDB/n+++9tyz0EI4Sl3NxcadCwkaSPmCy913wunTcfowJYmav2SeKQSVK9QaT5LgCEjo4dO8rRo0dtyz0EI4SV06dPmxOS0weMlO5bjvrdaFMBrE1HpUXPEZKWkWW+GwDepxd4fP3117blHoIRwoqGot7TF/rfSFNBq/gJ8yU1LxwB8L7s7Gw5dOiQbbmHYISwoYdsdE+Rvw0zFfyKzBkuc+ZyWA3wuq5du8rBgwdtyz0EI4QFvYdYg8jGHD7zcm06KpXrRha53xsA7+nRo4d8/vnntuUeghHCgl4BpSdaF98YZ64/IvdHp8tf7nxI7mqcKGlvHjhrGleq48rP5d4WHeSGR6pLje5j/E5T1hXRb4IsWbrMfmsAvKh3797y6aef2pZ7CEYIC+np6dJr9b6zNsSVUvrKzU9EmlDwQGyG3B4RI9W7jZKqmUNM6fgWk5YUtKOnvyUtJy+VxqNzpUqngZK2ar+krPhUKqf2k1q9xkmrqSvMdE90eUraLdxh5k3I3SoNhsyQjm/sKzKt7iHR15A0f7s8ltZfWk9bddbj53vu7I3fSe2+k8xr1pCXse6QVOsyQmr2GGse8/d8raa+XuQ1+j6L+2M6meXUHzzN77y+95Iwd4t5HcXfm285l1Opr++V2A5p9ltzQ73ENKndoStlq0r9xnLgwAH76cCL+vXrZ2435CqCEcJCdJs4vxviGx+rJ5EjZpvhuDmb5MobKkjkUy/Jr6+8ygSO9LcOyt1N25o9Kf+o21L+2aGXGS5fpb48nNQtb1yUNBr1sgkiv/vbjXJr7RbySFKOeez2BtH587ZMltvqtZLMdYeLTKsBRZ+3bv9n88LOXPnjTXec9fj5nvuhhC5yZ6N4M/6uxglyX6tUUxVbdzRBy9/zaQAs/Bp9n0X5qg3yXn9zs1xdhr/XokHJ9zqKvzffci63arWItd+aGx5sFOP3c3C1HqgZIREREYQjDxs4cKB89NFHtuUeghHCQouYNn5Xwrpxf7RdDzNcf9Dzcv1D1czwb6+5wewt8k1Tt/8UeSx9QEEo0D0rsS+ulWvueUQqJfeRW2o2NcFG/15bsbI5HKXL1Xl/e83fpVrn4WZZhadtMfE1M06res5ouenxhmc9fr7n1pDUZMw8s/fmr3c/LOUq15HmExebvVDJSz/x+3wajAq/Rt9rqFC9kTQcPtPsDdJl+Xst1z1QVf52/2MFwajweyutqtaMYORyVW0aa0IR4ci7hgwZYm5Y7SqCEcJCs2j/wajDax/JVRXukqtuuVuuuP4miZ253ow/XzDS6a+84Wap1Xu83BERawKV7m3SoKKh4roHHzfjdd7afSbKFdeVl5Tle4pMqyHELL9Jktxap4Vcfcs9Zz1+vuduMna+/KH87Xl1m5leS59LK+aFNX6fT4NR4deo47Q0EOlyfl/u1rxpZ53ztej78QWjwu/Nt5zLLd0wuoRgVLR83z/hyLtGjBgh27dvty33EIwQFs4VjHyVsfYrv+P9lYYCDQSFDx/puT2Fpymp/E1b+PlLWpa/587e+K1kbfimoK3nGhVuX8xr03OLLnXe0ipXg1H2uFFybYtR8kSLKnJvt/fO+lxcqcLfP+HIm0aNGiVbt261LfcQjBAWzheMLqb0XKT2iz/0+1hZVzCfO1DlajBKygtGSZuOSvamRXkBeJFkL1iUF5KS84ZHSdO88fr4E920kuWJBfbE/XF50+S1dRrfvL55irYXmXbhz9mrVfz7Jxx5z9ixY2XTpk225R6CEcJCaQYjqmzL1WCkpWHo3or5e4ySFuSVLxCNy/ubF4o0IGWPyws6eW2dPsmGpOwFo8w8TfNCkJnmrPYiaWrDlNfL3/dPOPKW8ePHy/r1623LPQQjhIXmBKOQqaqOnnyte3/y9/K8J09UTJbK3SrnhZu8QFNiMLLjNi2Su5s/K08U2lOke4kKglHeMkN1j5EP4cg7Jk+eLGvWrLEt9xCMEBZaxfq/XJ/yXtVo7mYwOnOOUV7w0b09eohMD5W1qCLX6h6kc+wxulYPr+XNY/Yc5S1Dw9S52oU/Z69WSXsMCUfeMHXqVFm1apVtuYdghLCQlp4umSv3+l0RU94p7eCxRbuO9ltzQ+FDaRdbvrDk77FQrUeiO/rt+NFXlVomySM169lPD8Ewffp0ef31123LPQQjhAW9JUjikEl+V8SUd6p2nwmy4LWl9ltzw+UEI1fLtfPQvObFF1+UpUvd+p0WRjBCWNAbk9aIaFRwWwzKg5X33VSs5d5NZAlGF18Eo+B66aWXZPHixbblHoIRwkZubq606DnC74qWCn5V7zxMnps9135b7iAYXXwRjIJr7ty5smDBAttyD8EIYSUtI0viJsz3u7KlgldNx86X6JRM+y25hWB08UUwCq758+fLK6+8YlvuIRghrJw+fVpS88JRZM5wDqt5ofK+A91TpKFIvxsXEYwuvghGwbVw4UKZM2eObbmHYISwNGdurlSq01Ai+k2Qjm/s87vypcqu9DPXE60r1mzo5OGzwnzBqHjP1mf3Yq0dNtrHx72X3/Zdqt9tkTQfN9LMr5fnJ27cbufN7xvp7B6ydV597L288XnL0l62fcss9hzFl2PmD3KHkQSj4FqyZInMmjXLttxDMELYOnnypCxZukxat02R2lFxUi8hVSJTu1FlWHXiUqVWyzhplphsrj7T78B1BcHIXnrv66eoeC/W+lc7evS1fSFBw5EJLTq/9padF2rKVdVwpb1n509bvIdsnc8sT4OUdgRpl1H8OfQ1FF2OfQ7b6aTvNQS6CEbBtXz5cpkxY4ZtuYdgBABlyF8wuvsZ3eNTtBfr4qHFFxLOBCPdy5Pf2/W9Gox0WPcUjbOBptCydL784WS5tmLetGbvUf6yzwpGRZZj2+YvwchVK1eulOeff9623EMwAkLIvHnz7BBCxbn2GBXutbra/LygVLGKXKuhR3vCtoe2dL7Cwcj3eLU0/avzVjHLMo/lTWcOu9lDYPl7pGzo8oWxYs+RqK+lyHLsa7QByhdUAl0Eo+B66623ZMqUKbblHoIREELi4uLsEELFhZx8bc438rOXqPA0JZUv0Ph7zFeX+xyBLIJRcK1bt04mTpxoW+4hGAEhhGAUei4kGFFFi2AUXBs2bJBnnnnGttxDMAJCCMEo9BCMLr4IRsG1ZcsWefrpp23LPQQjIIQQjEIPwejii2AUXNu2bZORI0falnsIRkAIIRiFHoLRxRfBKLjee+89GTZsmG25h2AEhBCCUeghGF18EYyC64MPPpDBgwfblnsIRkAIIRiFHoLRxRfBKLg+/vhj6d+/v225h2AEhBCCUeghGF18EYyCa8+ePdK3b1/bcg/BCAghBKPQQzC6+CIYBdfevXulZ8+etuUeghEQQghGoYdgdPFFMAquAwcOSE5Ojm25h2AEhBCCUeghGF18EYyC68svv5TOnTvblnsIRkAIIRiFHoLRxRfBKLiOHDkimZmZtuUeghEQQghGoYdgdPFFMAqub7/9VtLS0mzLPQQjIIQQjEIPwejii2AUXMePH5eUlBTbcg/BCAghBKPQQzC6+CIYBdeJEyekXbt2tuUeghEQQghGoScmpZPEZ+ZQF1EJqZ3sp4dgOH36tCQmJtqWewhGQAghGAEIBJfXNQQjIIQQjEKL3lphyZIltgWEDoIRgJBAMAod48ePlx49esjOnTvtGCB0EIwAhASCkTd98803MmLECGnZsqV8/fXXdiwQughGAEICwcg7Dh48KO+8844Z1n5fNmzYYIaBcEAwAhASCEbeMHToUElPT5etW7faMUB4IRgBCAkEo8D77rvv5Nlnn5WYmBjTvwvgAoIRgJBAMAqMo0ePyt69e83wnj17ZNmyZXLq1CnTBlxAMAIQEghGZS8nJ8d0brd582Y7BnAPwQhASCAYla4ffvhBcnNzJTU11Y4BoAhGAEICwejy/fjjj+YqMrVlyxaZNWuWuWkmgDMIRgBCAsHo8mRkZEh0dDSHyYDzIBgBCAkEowv3008/yRtvvCEDBgywY/IPnQE4P4IRgJBAMDo/3yX1eo+yiRMnyqFDh0wbwIUjGAEICQQj/06fPi1ZWVnmlhzvvvuuHQvgUhGMAIQEgtEZejuOadOm2ZbIl19+aYcAXC6CEYCQQDDKp1eSDRo0yHS+CKD0EYwAhAQXV1Z6wnTfvn3NYbKPP/7YjgVQlghGADxJ94wUvhVF4ZXV7Nmz7VD40T1By5cvN8N6/tDOnTvNMIDAIBgB8KTFixfL6NGjbevMykpDw7hx48xwuNErybp27Srbt2+3YwAEGsEIgGdFRUXJkSNHzLBvZaWdFIZDb8165/oxY8aYw2RfffWVHQsg2AhGADxrx44dpsdmpSurXbt2mUvTQ5X2K7Rt2zYzrMFo9erVZhiAdxCMAHhap06dzHk2urLSULR79277SGgZPny4pKSkyMaNG+0YAF5EMALgaS+88IL89Zpr5fHHH5eYmBg71tuOHTtm+hmKjY3lVhxAiCEYAfCkt956S+pGNpHWA8ZL1YzB8psrr5KHKj1WcCjKa/S8p3379pnhzz77TBYuXGjuZg8gtBCMAHjKe++9J81bRUvz7Ccla91h6bz5mGRv/FbKVaotnd48KBHJXSQuqb0cOHDAzhF8vXr1kvj4eFm/fr0dAyBUEYwAeMLevXslsW07aZKcLRmrPjeB6FyVvGiH1GgZJz169Q74FWq6F0j3BqWmppq72AMILwQjAEGll+N37tJFImKSJGPZR36D0LkqccYqqdqgiUx5dmqZhhTtaFKvIlNbtmwx5w8dPXrUtAGEF4IRgKDQk5IHDhwo9Zq3loz5m/wGnwutqOHTpVr9SHnjjTfs0ktPl7zQ1qpVK9mwYYMdAyCcEYwABJTufZk8ebI5sTrjhRV+g86lVNbbX0vD7IHSqGVr+eCDD+yzXTztW0gDm8/3339vhwC4gGAEIGDmzZsndSMipdPEOX7DTWlU6ut7pVZcR2nfsZPpUPFCnDx50vzV241ob9QHDx40bQDuSUxMLHKfRpcQjBBU/fr1M/3c6C0uunfvbseGJ730vlGTppI6dLx03fSt30BT2tX2la1StXErGTB4iN/L5vWcpG7duplbcuh5QwCg2rdvLydOnLAttxCMEHS6B0XvIq/0EM7zzz8vX3zxRcG5Mnoz0U8//VRGjRplpg01eul967zgl5jzpHTfcMRvgCnripn8mlSq01BmzpptbjEyffp0++rEU5f8A/AG7aFeO2l1EcEIQVc4GLVr104WLVpkTkpu27atGTd+/Hhp2rSpCUiDBg2StWvXmvFep5fe6/tpk9ZZeq3d7zewBLQ2HZUHmydJuQq3yssvv2xfpRtOnz5t7jGnpYF7xYoVJhxOmTLFnEvVo0cP6dChgznBXP+nrH91HOCq9PR0+fbbb23LLQQjBF3hYOQLQ0pDhRo9erQ89thjMmzYMLMR27p1qxnvVXrpvV7F1TK+rfRb+bH/kBLEylj7ldRO6SHNYuJlz5499lV716WEmuJ/k5OTzXQarHW+GTNmmOWsWrWqYNnFuzpw+eRTIDMzUw4fPmxbbiEYIejOFYwmTZpk/tdSr149cy5Sdna2NG/eXPbv32+n8BbfpfdNo1rLwNe2+A0lXqrkpbukalSSpHfpVmb/MwxWqCkNBCO4TP9z9+WXX9qWWwhG8LTCNx/VEwG9eJWE79L7yCZNZcDLr0u3Lf6DiFcrfvbb8mj9pvLUmLFFPt9QDjWlgWAEl+Xk5Hj2P6FljWAEXCbdy1Unqo30fOe43+ARKlW+Ui35yw3lwiLUlAaCEVym9z7U8yRdRDACLpPuZXl6wiR5qE5jiZqyzG/o8HK1mfW2VKjRWOKfHC2Hvs/vywgEI7itb9++snv3bttyC8HIIXqeju4BoMqmXnvtNenad4A82DBK4uZc3u09AlF6jtFdjROldvsu8sHBr+2/EvgQjOCyAQMGyMcff2xbbiEYOYQVfWDoVWmJ6Z3loWaJ0n7xh35DSTBLr0p7pG13eaBxG1mx/RP7qlEcvxe4bPDgwbJz507bcgvByCGs6APr08/2SmRskvwzLlM6rvzcb0gJaG06KrX7TJDbajSSZ5eskdPhe3pQqeD3ApcNHz7cdE7rIoKRQ1jRB8fWd9+TJ5q0kiqpfSVz3WH/oaWMq/nExVLh8QjpPuFFOXHavjCUiN8LXDZy5Eh55513bMstBKMwpn0DFb78uvCKfvbs2XYIgbLkjTflobqNpVavZyR7Y2DulZaQu1Vuq9tSWucMkkPH3Lzv0aUiGMFleiPpzZs325ZbCEZhbPHixabXaB/fil7vnj5u3DgzjMB7/qVX5J4aERI5YrbfMFMapXfXvy8qRZ5o01F2fu5mJ22Xi2AEl+k24u2337YttxCMwpz2R6MnAyvfij4mJkaOHz9uhhEcuidvwJiJclfNRtKyFC/xz3r7a3ksrb/c1yBKlm5+3z4bLgXBCC7TOw+Eyn0pSxvBKMzpndQzMjLMsK7otVM+vbUGvOH7H36Q5B795e56l3+Jf/3B0+Qf1SJkwrzlwnnVl49gBJc9++yz8uabb9qWWwhGDtBgpJdd6oo+KyvL2U67vOzLQ0ekeUq23Nsk4aIv8W/9/Eq5tXojyR45WX48RSQqLQQjuGzatGnmVkAuIhg5QO+QrIfUoqOjzWE0eNcHuz+TGq0S5cHYjPNe4t9u4Q65s2GsNM/oKV9+e8wuAaWFYASXvfDCC7Js2TLbcgvByDp58qT5R5Camiqx8QmSlJImyZ1zwqb++Xh1+d2VV0qDZi39Ph7sik9Ok9ZxCebz1+9Bvw+XvbXlXXmkYZRUSjn7Ev/0Nw/Kg3HZ5s747336uZ0DpY1gBJfpVc3am7+LCEZ5cnNzpUHDRpI+YrL0XuOBjvjKoLI2fCPlKtX2+5iXKnPVPkkcMkmqN4g034vrZi9dJXfXaiQ1ez4jmeuPyBNdR8o9tZvI4nVb7RQoKwQjuOzll1+WV1991bbc4nQwOn36tDnnJn3ASOm+5ajfDTUVpNp0VFr0HCFpGVnme3LdyBm5ck/NSBkz280VVTAQjOCyV155RebNm2dbbnE6GGko6j19of8NM+WJip8wX1LzwhEQaAQjuEz3FuleIxc5G4z0MI3uKfK3Maa8VZE5w2XOXA6rIbAIRnCZdhDs6h0SnAxG2rleg8jGHD4Lldp0VCrXjSxyexOgrBGM4DK9CEavTHORk8FIv3A90br4Brh2n4nyt/sfKyjtRbj4NFRwKqLfBFmy1M1LRxEcBCO47PXXXzd9GbnIyWCUnp4uvVbvO2vj+1B8Z3k4saukrPjUlI7Tv5VT+0mtXuPyTwietMTcmDNh7hZpOXlpQbvBkBmSuuIzqd13klTvNspcQdTquTck8qmXzHIihr4gsS+uLbK86l1HStXMIaYK91nTaurrZtwTXZ4yfdVoO+6ljQWP6zLbvvp+wbyNR88963XqJd1VMgaZx3QefU3Fn6vT6i+KLKP4PMXfq76fwq9DH9d5H23XQ5Lmb5fYmeuk2fhFBY+XZum9v2I7pNlvECh7BCO4THu9njp1qm25xclgFN0mzu/GV4PRf//hz/LHm++U8lUbmADRaNTLUrPHWPnd3240AeXupm1NAPlnh15yb4sOpn1vy2S5rV4rebBNptzZKN6Mv6txglner37zO+n4xj759//8tTyWPqDI8h7r2F9+feVVJkylv3Ww4HU8EJshjyTlyMNJ3eT2BtGmXT1ndMHj1z9UTRoMni5/vv1+ebR9T7mxct2zXuc/6rY0geWvdz9sekbWMFX8uTTwFF5G8XmKv1d9P4Vfh3nveeNvejxC6jw5WX57zQ1ye0RMweOlXbVaxNpvECh7BCO4bM2aNeZ+aS5yMhi1iGnjd8OrG34NAjpcrnIdEyIqJfeRW2o2lT/edIe0mPiaCQPXPVDVHGrzBaPfXvN3qdZ5uJSvUl+ajJln9qRouNDlXXPPo2b8tRUrm2BUfHkaJor3cKxBSKe/4ZHqJqiY9r3/NOFFhzUYVUrtmxfEsiRq6gozvvhy/3zHA1KheiMT0FpPW2WWW/y5dC9X4WUUn6f4e9X343sd90enm8fr9p9iHrvi+pvM37IMRtWaEYwQOAQjuEzvrD9+/HjbcouTwahZ9LmD0a9/f7X8ofzt8rtry0m7hTvljohYE0SuvKGCNBw+syAM6PlIvmCkw1dcV17qD5pm5v1D+dvMtLq8Gt3HyL/9+y/z/j5tglHx5Z0rGGmwuu7Bx830vvbfH60p90Wl5M3/uPzn/10hvy93q9m7pcO6Z6nwcmv1Hi9/uq2iXHXL3dJhycdmuYWfK3vjd+a9Fl6G7nEqPE/x96rvR1/HjY/Vk3uaty8SjCrUaCxNxs4v02BUtSnBCIFzKcFIr+JJTEyU5ORkGTt2rB17xujRo+0Q4G2bNm2SMWPG2JZbCEYXUBnrDvkd76+yN35repn295ivLmZ5/kqf4+ZqkQVtDSV624jiy9XznAq3C9e5llHSPMEughEC6VKC0aBBg2Tbtm22lX+fwuHDh8tzzz1n2m3btjV/P/nkEzPtxo0b5dixYzJq1ChnO9ODN73zzjvm36WLCEZUyBTBCIF0qcGoefPmZo/RunXrzB6k/fv3S8eOHeXdd98tCEbx8fGydetWmTlzppl2+/btZt61a9eax4Fg03+TGupdRDCiQqYIRgik0thj9NRTT0lOTo5ERUWZczZ8wWjnzp3So0cPE6IiIiJk2LBhMnDgQBOWAC/Qf6NDhgyxLbc4GYyaE4xCsqpy8jUCqDSCUYcOHWTo0KHSuHFjWb58eUEw6tatm/Tp00diYmJMXzHZ2dkmJOneJcALPvroIxkwYIBtucXJYNQq1v/l+pS3q0ZzghEC51KCkT96DpE/hcefOHGCnt3hKbt375Z+/frZllucDEZp6emSuXKv340v5c3SDh5btOtov0Gg7JVWMAJC0WeffSa9evWyLbc4GYz0liCJQyb53QBT3qzafSbIgteW2m8QKHsEI7hMD+t2797dttziZDDSXdY1IhqZW2f42whTHqu876liLW4ii8AiGMFlX3zxhXTp0sW23OJkMFK5ubnSoucI/xtiylNVvfMweW72XPvNAYFBMILLtA+urKws23KLs8FIpWVkSdyE+X43xpQ3qunY+RKdkmm/MSBwCEZw2TfffGNuuO4ip4PR6dOnJTUvHEXmDOewmtcq7/vQPUUaivR7AgKNYASX6VWTqamptuUWp4ORz5y5uVKpTkOJ6DfB3Anf74aaCkjp568nWles2ZDDZwgqghFc9sMPP0j79u1tyy0EI+vkyZOyZOkyad02RWpHxUm9hFSJTO1GBajqxKVKrZZx0iwx2Vx9pt8HEEwEI7hML3ZJSkqyLbcQjADAD4IRXKf39HMRwchR3MkbKBnBCK5z9TdAMHIUK32gZPxG4DqCEZzCSh8oGb8RuI5gBKew0gdKxm8EriMYwSms9IGS8RuB6whGcAorfaBk/EbgOoIRnMJKHygZvxG4jmAEp7DSB0rGbwSuIxjBKaz0gZLxG4HrCEZwCit9oGT8RuA6ghGcwkofKBm/EbiOYASnsNIHSsZvBK4jGMEprPSBkvEbgesIRnAKK32gZPxG4DqCEZzCSh8oGb8RuI5gBKew0gdKxm8EriMYwSms9IGS8RuB6whGcAorfaBk/EbgOoIRnMJKHygZvxG4jmAEp7DSB0rGbwSuIxjBKaz0gZLxG4HrCEZwCit9oGT8RuA6ghGcwkofKBm/EbiOYASnsNIHSsZvBK4jGMEprPSBkvEbgesIRnAKK32gZPxG4DqCEZzCSh8oGb8RuI5gBKew0gdKxm8EriMYwSms9MPD119/LS+88IL06NFDWrVqJQkJCQXVunVrM3727Nly9OhROwcuFL8RuI5gBKew0g9dx44dk2HDhpngk5KSIosWLZIDBw7YR4vav3+/zJs3T9q1a2eC03PPPSenTp2yj6Ik/EbgOv0P1unTp23LHQQjR7HSDz3Hjx+XwYMHm4Czfv16O/biaEhq1KiRvPzyy3YMzoXfCFyn/6H68ccfbcsdBCNHsdIPLatXrzaBZu3atXbMpdP/Aeqeo5YtW8o333xjx6I4fiNwXXJysvkPmWsIRo5ipR869LBZdna2nDx50o4pHZ988ok0bNhQPvzwQzsGhfEbgevS0tLku+++sy13EIwcxUo/NKSmppbpYS9d6TVt2pRw5Ae/EbguIyNDjhw5YlvuIBg5ipW+9/Xt21deeukl2zq3rVu3mqvPHnnkEbnmmmvk5z//uVx55ZVy6623mhO0586dK99//72d+mwajiIjIzmsVgy/Ebiuc+fO8tVXX9mWOwhGjmKl721TpkyR0aNH25Z/GoiqVasmP/vZz85bV199tUyYMOGcV6TpYbWoqCjbguI3Atd169btnFe8hjOCkaNY6XuXXmJ/vu/nqaeekn/7t3/zG4JKqkqVKsmhQ4fsUorSE7K5Wu0MfiNwXc+ePWXfvn225Q6CkaNY6XtXUlKSfPbZZ7Z1Nj3vyF/oudC6/vrrTfgqTq9Wa9y4Mf0cWfxG4Lo+ffrInj17bMsdBCNHsdL3Ju2fqF+/frZ1tqefftpv2LnYuu++++SHH36wSz1D+zl69tlnbctt/Ebguv79+5vD7K4hGDmKlb43dejQ4ZxXgXzwwQfy//7f//MbdC6ltAuA4n766Sdzwjb4jQCDBg0y6x3XEIwcxUrfe/QQVnR0tG2dLSIiwm/AudT61a9+JXv37rVLP6N9+/ZO9l1SHL8RuE77UHv//fdtyx0EI0ex0veepUuXytSpU22rKD3O/y//8i9+A87lVNeuXe0znPHKK69cUDcB4Y7fCFynF3ls27bNttxBMHIUK/3gmjVrlixevNi28um5Rbt27bKtonQF5S/YXG5VqFDBPsMZBw8eNJfp+qPnQM2cOdO2whu/EbhOz2ncsmWLbbmDYOQoVvrBpYfNtJ8i7Ttox44dZpzesPHEiRNmuLj69ev7DTalUV988YV9lnx6dZreVbswfV26d0nrXK8x3PAbgeueeeYZ2bhxo225g2DkKFb63qAnWmu3+506dTJ3zT+Xe+65x2+oKY3avHmzfZYzCv/70L1Eek+1S72jf6jiNwLXaaew69atsy13EIwcxUrfW3bu3Ck33HCD2Yvkrx8hvdWHv1BTGlX8kJ7Sfx8u7iUqjN8IXKc98K9evdq23EEwclROTo5Z8VPeqeuuu86c81OvXj37LZ1x++23+w01pVH+9gTp69G9RJUrV5bu3bube7G5ViX1JwW4QHvDX7lypW25g2AEBJmecJ2VlSV/+9vfZMmSJXZsUTVq1PAbakqjil+y7zvHSPs00hOtGzVqZP5qG4A7ZsyYIStWrLAtdxCMgCBZvny56bdIQ9Hu3bvNXrxzXZXWq1cvv6HmcuvPf/7zWYGn+FVpBCTATfp7P9d/1sIZwQgIgtmzZ8u4cePk+PHjdkzJ/RjpnfT9BZvLLb0Srrhz9WPkC0ja1QCA8DdnzhxZtGiRbbmDYAR4xPl6vq5YsaLfcHOp9a//+q9++yih52sAKjc3V+bPn29b7iAYAR5S0r3SVq1a5TfgXGq1aNHCLvkM3SvEvdIAqAULFphw5BqCEeAh57u7vh768hdyLrb03KIDBw7YpZ7B3fUB+OhhNBdvD0QwAjwmKSlJPvvsM9sq6uTJk1KlShW/YedC67/+679k06ZNdoln6NVojRs39tuPEgD36HmPel6hawhGgMfs37/f9CN0Lj/88IO5lYi/0HO+0o4i9URuf7TPkpdfftm2ALhOL9WfPn26bbmDYAR4kPY4q71gl0QPef3lL3/xG4CK1y9+8QvTN9FXX31l5y7qk08+MWELAHz0vEb9D5NrCEaAR/Xt2/e8x/d179HEiROlVq1a8stf/vKsQHTLLbeY/pE++OADO8fZ9Aq0yMhI+eabb+wYABBzO5DJkyfbljsIRoCHpaamXtThLb1T/vvvv286itRzhs5HQ1HTpk3lww8/tGMAIJ9eDKI3knUNwQjwuGHDhkl2drY58bo06eEzvR8aoQiAPxs3bpSxY8faljsIRkAI0F3aekuOtWvX2jGXTvck6XkDLVu25PAZgHPSCzXOd65jOCIYASFCbx8yePBgadWqld874l8I7adIAxZXnwE4n3fffVdGjBhhW+4gGAEh5tixY+bwmvZQnZKSYjph89dZo9JL/zUMaceQGqh0TxH9FAG4EDt27JChQ4faljsIRkAI+/rrr+WFF16QHj16mOCjl+T7SoOTjtcb1h49etTOAQAXRs8/HDhwoG25g2AEhBm9hL9u3brmvmcAcKn06tYnn3zSttxBMALCTNeuXeWee+5xsit/AKXn008/ld69e9uWOwhGQBjRk7K7detmbimiJ1mz1wjApdq3b585HO8aghEQJvQQmvZLpH81GOkeI/YaAbhUBw8eNP/Rcg3BCAgTegjNdxm/BiPdW8ReIwCXSu+tqJ3LuoZgBIQB3yE0H9/d+dlrBOBS6VWvGRkZtuUOghEQBjT86CE0H18w0r1Ferk+AFwsvZdix44dbcsdBCMgDPmCEQBcqu+//16Sk5Ntyx0EIyAMEYwAXK4ff/xR2rZta1vuIBgBYYhgBOBy6aF47UXfNQQjIAwRjACUBhfXJQQjIAwRjACUBoIRgLBAMAJQGghGAMICwQhAaSAYAQgLBCMApYFgBCAsEIwAlAaCEYCwQDACUBoIRgDCAsEIQGkgGAEICwQjAKWBYAQgLBCMAJQGghGAsEAwAlAaCEYAwgLBCEBpIBgBCAsEIwClgWAEICwQjACUBoIRgLDQr18/6dGjB0VR1GWVrktcQzACAACwCEYAAAAWwQgAAMAiGAEAAFgEIwAAAItgBAAAYBGMAAAALIIRAACARTACAACwCEYAAAAWwQgAAMAiGAEAAFgEIwAAAItgBAAAYBGMAAAALIIRAACARTACAACwCEYAAAAWwQgAAMAiGAEAAFgEIwAAAItgBAAAYBGMAAAALIIRAACARTACAACwCEYAAAAWwQgAAMAiGAEAAFgEIwAAAItgBAAAYBGMAAAALIIRAACARTACAACwCEYAAAAWwQgAAMAiGAEAAFgEIwAAAItgBAAAYBGMAAAALIIRAACARTACAACwCEYAAAAWwQgAAMAiGAEAAFgEIwAAAItgBAAAYBGMAAAALIIRAACARTACAACwCEYAAAAWwQgAAMAQ+f+CN6uIYV0jngAAAABJRU5ErkJggg==;" parent="1" vertex="1">
          <mxGeometry x="835.0000244140624" y="-612.000048828125" width="582" height="608" as="geometry" />
        </mxCell>
        <mxCell id="FDyta-szb_0lJt4S96MW-5" value="" style="shape=image;verticalLabelPosition=bottom;labelBackgroundColor=default;verticalAlign=top;aspect=fixed;imageAspect=0;image=data:image/png,iVBORw0KGgoAAAANSUhEUgAAAc0AAAGSCAYAAACBnZo/AAAAAXNSR0IArs4c6QAAAARnQU1BAACxjwv8YQUAAAAJcEhZcwAADsMAAA7DAcdvqGQAAClaSURBVHhe7Z1vyF1Zvd/9kzbDTCYqnd56yYzWC854bylRtOIU0tpbm6AvvFisCVOolck06jDafymD0zIPkV4KagoWhORFByEKvpAbX0S8WJkWg0yh9UbEkEwRBhrEF5kXxt6ADLjL98z5xV/WrOd59nPWXufZv9/z+cCPs/daa6+9zlp7rc+z9zkned0AAAAAo0CaAAAAI0GaAAAAI0GaAAAAI0GaAAAAI0GaAAAAI0GaAAAAI0GaAAAAI0GaAAAAI0GaAAAAI0GaAAAAI0Gae4AzZ84Mr3vd6xZx+PDh4dq1a8scgHzcvn17OH369J3r/MKFC8Ply5cX2wCtIM3k+AWkXEwAsiJJ2h+Kp06dWlz7AFOANJNz8+bNxaKhV6QJANAG0kyOBClRSpilNPXY1j+20v6xY8cWgrX92mNdvWrf/yV/5cqVRXltW7oeixn+L3+fZ3X5dqidqkf1iZ2UsfotvcS/p1rZsp3+nOU5LG+rc/vzlW3y5/L9bu/N8rStNFG2X+fV+UXZdvVxWZeFtX2r9vk8fx6l+37xlHk6xq4/UbaxLOv78dKlS4t+8eXLdli6b3vZBu37/gVoAWkmRwunCUoL12bS1KsWV0VtcVG+LUzlQiiUdvTo0Tt122LtFy9D9dt5VP748eOvWVhV19mzZxf7Y8p4yvfpKRdUlfHn8edQ+06cOLFI99slvm/8tu97Ue6rrPZ1Ph1j/V62UWWszlqer9PwfWxsd6zf931Y9mdZj6fM833qt8XY/i3PL7Zqu2+DXre6rgF2CtJMTLnYbLb42QJ7/fr1uxYXLUL+r3yVFzreL36iluYXMuX7uwj7y1/pkpbC2qXtixcv3iWz7cqoLn9X4u9IPLVF3erw7TWsvMLef4ny7Dgrp35QX1p7LHwdVrfKalvvwcbCxkCojda3Kufr8+1VuVofG3Y+sV37fJu0XV43/pjN7v4sdB7VsWr/luffru1Wp/VleV0DtIA0E+MXW1Fb/Gyx8ouMXstFzO+X9Ypami2Svl7h93WcybD2KrYrU76vct9j79WwOsSqi7qOsTqt3FZtEL4PVFbHaNunG6rD+rZs/5g+NvyxY9pn76MsW7bB3rMo83zbV+3f8vzbtd3qtNdaXwCsCtJMjBYNv0jVFj8L4RcXHWfpwpfzC6GhtPLxrJ1LoUdvtmhpISvvNFVe9ev8yrd0sV0Z1eMf7enVt8Wj43WsYXXYtn9fvl5t1xZe/z6F6rZ+KvvQ4wVi78vqLtvo6ynz7Hw6/2Z9bGxVb4nVK8r3uFkbRJnn+9RvC7Vtu/4V5fnFVm1XuoXYqm6AnYI0k6IFo3x85cMWOi0mfhGzxUXhH3eeO3duU7kIpelYLYJ2jElB+PboWO3rHDrO6lWbrD0+fUwZncvqV77qV36J0stF3eoQyrN6yke82vaPP7/5zW8u9v37tH41/PtWKN+31YdJTu9N78HSt6rPi9Hn+T42tO/fuyjrs/b7etUeL63ymLIN/hw6xl8ryrPjtutfq6c8v1Fru6XbNSLUNu37vgBYFaSZlHLx8myVtyrl4gibI2l60QoWdoAYIM2kIM35gjQB4oI0YRKQJgDsBZAmAADASJAmAADASJAmAADASJAmAADASJAmAADASJAmAADASJAmAADASJAmAADASJAmAADASJAmAADASJAmAADASJAmAADASGYhTf2HwQfe8sDw+te/fnjDvr8yPHDooeHzn//8MhfmjP//DIm7Iwq1thObx1yptZV4NaZkV6+An/70p8PBv/43hj/80MeGT379+eHp//Wr4d9e/uXwj7/0jeGv/c2Hh791+D3LkjBXdEF+4S/+kihi6onaE8ZwfMx5XBnHekw9Zrt6BfzeQ28fjnz6meob/cKP/9/w0LsfHT784Q8vS8Mc6TVR/95n/8Oibh8f/Y//tVp2bPyz5/7b8J6PPz78uxduVvOnDLU3Cmqrb/upP7sy/N7Df/uuvv+Dv/uh4V/99/97V7mdhPpcfa8xqOWX471Zua1iHeOrts0Vta3W5lqor3x/t86tnYSuoz869k8W19l218UUMfWY7doVoP8I+YE/eFf1TVr8i2//7+GNf3X/8MorryyPgrmxk4m6k9AiqrB9TbB3PPoPF6++3E5iHYuqxdQTtSflGNb6uhyPncZWi6Pq9eOi80raPRfSVWPO4zp2LkqQ/o8gG5uW8d1JeGnW8qeOqcds166A97zv7wz/4PNfrL5JH7//h+8evvSlLy2PgrkxdqLuNMpFulx0NfE08XV+hZXVRNSEVFnLs2O8NHsvFDpvFNRW3/aaNH3faV8Lr/WvBGdl1Z8f+OS/vHOnWva3HwuVefxb/3ORXt7p+PG3Y+18vg61U/Uo/5+ev7R4PfmtFxbXgEmhXKR92/15db5aug/lzRW1rdZmH5sJy6crtP2hf/OfFnX68VWo362f1N9+fP/o2McX6SpTm6N+LP3425jqPHbteLErX21S2LHle9gsVH5Kdu0KePs73zX8yZ8+V32TPh75448OTz755PIomBu6IGvj1hp+0VTYRNYksolnC5vybJG3SWd5qsMmtiaetlWHn6g9YuqJ2pNyDH1/Wpr60fpU/eYXND9WerU8GwuVtzHTto2D0nSM6lUbrI4yfP061hZMv215qvdf/48bd42vP5/fVhtNFGqDpft2Wxss5jyuY+aif/8+XftKVz/Y+7c+L/vGrg07RuX8dlmf9v1xvt+tnNqldF07dozqsvMqX+9Pr+W5toupx2zXrgDuNHMwZqKuEpoQqttHbRFT+EnoJ6fy/CJh27oTsonZK9TeKKitvu3qOy2avu+tD305C/WlLWB6tW2/INr2h//9f7nzx4+vwxZMO5/VYek29r5OhZe3ja/K+Hbo1S/E5dhbnT69Vk6hts0Vta1sbxm+j8o8e8/lHPLzS/n+eKvP/lCp9ZnC1+G3/Xhq318b2rd2lGOt89j4bhdTj9muXQF8ppmDMRN1ldCE8JOiXNg0iXRuC7vjKCeeXyTsGC3cEmdt4ZgqdJ4oqK2+7X6xsjS/aNlYWN8rbKxs4dW2XxBtW6G+V5rVXYaVVT06n5ephfL82Oo4v2/bT33vxdcs0Na+8nzlOWqLstLnitpWtreMss982NiVc0iv1ofK932k0Pg89ef/Z1GvH1dt+3I2R3191vcqq/Bi9OXKdqsdtfGphc49Jbt6BfDt2fjogqyOX2NoQpSTwiaKJpMml01QP7kUfsL7yea3bYHw9U8ZU0/UnpRjqD4spen7WP222QLm+9UviH7bj5FC6TZeFn6s7bw+X+HHs9y34z7+n7911x9ItXH3bfPptZjzuI6Zi5v1p09X+PH3+36sfZR9qPo2m6N+2x+nfaUrX8f48/qxVd5m7ajF1GO2q1fAnd9p/iN+pxmVMRN1ldCE8JPCJpcmSzkhlTb2TtO2y3JTx5wX15JyDP1iZWnqO7sLUH9bP9pY2FjpVfnatjHTsX67LFeOtdVZy1ebNNaqx4+n8sp9HaP3ZvUoam3XcbV0f5zFnMd17FzU+7Kx1L6NTdnH9v5935TXho5RXvk5su9bq2O7O82y361ulSnHVmWsvdvF1GM2iyvA/kUgvbnXv/GN/ItAgRg7UXcatuD58JNEk8bS9bjVJp4m4hhpWh1jJ95OQ+2Kgtrq264+1AJn/auwBU/5trgpXa+6m7N+VX/aoqd9Gxe/bXXYwqn9crytDl9PmVeOZ23ft9vCn8ufx6dvdl0ob66obbU210J9Y+9V4fvB5pD1uRdseazlleOrUJ1Wzs9RK6ux2cm3Z1XOxlZ1bzZGZaiuKZnVFfDYY48N3/jGN5Z7EAFdkLULda/H1BO1J4zh+JjzuE41jiZNL8rIMfWYIU1oggW3HnNeXEsYw/Ex53GdahyR5tYgTWiCBbcec15cSxjD8THncWUc6zH1mCFNaIKJWo85L64ljOH4mPO4Mo71mHrMkCY0wUStx5wX1xLGcHzMeVwZx3pMPWZruwKuX7++aHxrPPzww8saYQ5oTGoX6l4P9UsUGMPxMedxbR1HfYZp34pWlN+abY3yG7DriqnHbFZXAHea8WidqFlj6onaE8ZwfMx5XFvG0YTpf3qi7anFuRsx9ZghTWiCBbcec15cSxjD8THncW0ZR31jtvwHLUykY35DqWOVd/hj/3x498c+eecYhX5PKQGXd5r+d7FW3n7DWaa3hOqZEqQJTeiCrF2oez2mnqg9YQzHx5zHtWUcvaxqoioFKuGZAJXm/xEJ/w8P6Dj7RyxUzo7xZZRnP3FRmqWX9a4aU48Z0oQmWHDrMefFtYQxHB9zHtcpxlGiUj0WJkm9+rtLL7oyz+9r28tV2+U/uWeh8l7MJvKy3E5j6jFDmtDEFBM1Y0w9UXvCGI6POY/r1OMoMfp/MF31+7C7QJOhJKfjJD+7u9Rdo31OauWe+vMX75KjhUmzPI8dv2qojilBmtCELsjahbrXY+qJ2hPGcHzMeVxbxlECs8eiFv5OrxSjj1qe6rL/gk/y9OW2utM02fr01ph6zJAmNMGCW485L64ljOH4mPO4toxj+WhUoW27myzzdfenfaWbDL00lab2+HRfzn92qfrtjrZM1/ntnKvG1GOGNKEJFtx6zHlxLWEMx8ecx7V1HMvHo+WXcExiZV5NmlaXf7Tqyym0becyMZbprY9mFapnSmZ1BTz00EPDqVOnlnsQAV2QtQt1r8fUE7UnjOH4mPO4Mo71mHrMZnMFfOYznxk+8YlPDKdPnx5+9KMfLVNh7jBR6zHnxbWEMRwfcx5XxrEeU4/ZLK6Ar3zlK8MHPvCB4be//e3in9v71Kc+Nfz85z9f5sKcYaLWY86LawljOD7mPK6MYz2mHrNdvwK+853vDA888MDw4osvLlOG4Yc//OHw9NNPD7/+9a+XKTBXmKj1mPPiWsIYjo85jyvjWI+px2xXr4Cf/exnw5vf/Obhu9/97jLld3z7298ezp49u9yDucJErcecF9cSxnB8zHlcGcd6TD1mu3YF/OY3vxne+973Dl/96leXKa/la1/7Gt+mnTlM1HrMeXEtYQzHx5zHlXGsx9RjtmtXwPHjx4fPfe5zy706r7zyyrCxsTF8//vfX6bA3GCi1mPOi2sJYzg+5jyujGM9ph6zXbkCnnnmmeEjH/nIcm9rbty4MXz2s58dfvKTnyxTYE4wUesx58W1hDEcH3MeV8axHlOP2dqvgOeee27xH0nfvHlzmbI9P/7xj4ennnpq+OUvf7lMgbnARK3HnBfXEsZwfMx5XBnHekw9Zmu9AvSt2De84Q3DCy+8sEwZz/e+973hi1/84uJnKTAfmKj1mPPiWsIYjo85jyvjWI+px2xtV8AvfvGL4R3veMdw4cKFZcrO+frXvz6cO3duuQdzQBckUY8o1NpObB5zpdZW4tWYkrVdAbpT1Jd6Wvnyl788/OpXv1ruAfyOqScH7B7PPvvsIiAmmeciqwykAWnmAWnGBmmuwLVr14bDhw8vOs/i2LFjO/oCUMnt27cX/6D75cuXlykAvwNp5gFpxgZproCkefTo0cWrcebMmUWsCtKErUCaeUCasUGaK1CTpmQn6Ul+Ql8KUucqdFdqZSVW/W8ndqdqx5TS1Ks/DvY2SDMPSDM2SHMFatKUDO3bsxKef1zr70L1ank6XmJUeS9NhRcwANLMA9KMDdJcAZOdOs9iK8lJpl6atu1Fadv62cmJEyeaPh+FfCDNPCDN2CDNFajdafq7SxOgl6qXpt2R1qSp0ONbpQEYLLJ5eP755xcBMck8F9cqTclSd4hKkxQlP4lQlHeaW0lT26qDu00AAFgnu3an6aWpfaXvRJrClwMAAOhNV2mWn2n6b7qaKJWu14sXL96R6Fhp+jtXAB7P5oHHs7Hh8SxAAPQHGORAiy5/BMUl81xklYE0IM08IM3YIE2AACDNPCDN2CBNgAAgzTwgzdggTYAAIM08IM3YIE2AACDNPCDN2CDNTrz9ne9adO5W8eSTTy5LA2yNrhfIAdKMTea5uOvS/JM/fW74wl/8ZTUe+eOPIk0YDYtsHvidZmwyz0WkCQAAMBKkCQAAMBKkCWng8WweeDwbGx7PdgJpwpTwRaA8aNHlj6C48EWgTiBNmBKkmQekGRuk2QmkCVOCNPOANGODNDuBNGFKkGYekGZskGYnkCZMCdLMA9KMDdLsBNKEKUGaeUCasUGanUCaMCVIMw9IMzZIsxNIE6aERTYP/E4zNpnnItIEAAAYCdIEAAAYCdKENPB4Ng88no0Nj2c7gTRhSvgiUB606PJHUFz4IlAnkCZMCdLMA9KMDdLsBNKEKUGaeUCasUGanUCaMCVIMw9IMzZIsxNIE6YEaeYBacYGaXYCacKUIM08IM3YIM1OIE2YEqSZB6QZG6TZCaQJU8Iimwd+pxmbzHMRaQIAAIwEaQIAAIwEaUIaNjY2llsQHR7PxibzXESakAa+CJQHvggUG74I1AmkCVOCNPOANGODNDuBNGFKkGYekGZskGYnppDmzZs3h1OnTi1e182FCxcWF4fF5cuXlzn9uX379nD69Onh2rVry5Tx6JjDhw/fafexY8d2pf+mRu8FcoA0Y5N5LoaXpsR15syZxWtPJJXz588v9149rz9ni8TGcvHixUnqVx1nz55d7g0L2W/Xf/7cZV/MBaSZB6QZG6TZiVZpSlQS5vXr1xev2hf+Tkp3oUqvpUkW2lfoeKG048eP35WusjrG0n7wgx9UBWnyUXnlHz16dFFe57WytXMq79y5c4s7Pp3nxo0bi20rp2P8cSrz8ssvL46XwMr2mQB1jMpYuj+fl6b9AaB6rE5h5fy5H3/88UXYvvJUzvrWv1eJ1bdLZXuic0AOkGZsMs/F0NI0KQi9at+EZQu3qKVJDFrQTRCSho73dQqr199dlXIxTDLl+fSqfcmwdk7lnzhx4jX1CX9ef7fn22D1GGqDypXvxdIVJjmFjhfl+1I5k+tmd5rlMXrVvqVbu3x6L5BmHpBmbJBmJ1qlqUXYFn6FLd7l4lxLK8WhMPmYRISlqQ4vilLCwo41YegYYee/cuVK9ZxeTkLl/Z2mjhWbSdNkaFiby/fipenPpzLWP77dvtxm0rT3Zn27WbvKciW3bt1abq0Oi2we+J1mbDLPxbDS3Gyx1t3c2DvN2iIu0Sjd0HYpTSHReCH5c5Tn06v21bbaOZVfSkznFD5vlTtN30ZLL89n+75O4ftilTtNO1+ZXvLSSy8NDz744OIH0VPIEwCgF2GlWYpCKE2hhdru6PQ4VAt1LU3H292c8lRGaeVnmkLl7fM5O6/OZeV8uspKktt9pmnpilJi1lbVYXl2rNrhP9MU2rZ6TZQqb9vCJObrV/j2+fe01bl9X6gNdmfs69qJNO+9997hvvvuG/bv3488AWC2hH4824NSNKsgMXihwdZImgcOHLgj61XlyePZPPB4NjY8nu0E0gRRStPL85577hktTx0DOdCiyx9Bcck8F5Em7DqbSdNirDxVFnKANGOTeS4iTdh1tpOmxXbyVBnIAdKMTea5OFtpHvn0M3ctmETu0GeYtfRa7Nu3b3j00UereWVATJBmbDLPvdlKU8Gd5t5g1TtNpdWuGwvlQ0yQZmwyzz2kCbvOqp9pKq923VgoH2KCNGOTee4hTdh1Vv32rMrUrhsL5UNMkGZsMs89pAm7TilNyXLM7zSRZl74nWZsMv/BgzRh15E0V/kXgZAmAKwbpAm7jqR56NCh0bI0kCYArBukCbNgJ7I0kGZeeDwbGx7PdgJpQgtIMy98ESg2mece0oSwIM28IM3YIM1OIE1oAWnmBWnGBml2AmlCC0gzL0gzNkizE0gTWkCaeUGasUGanUCa0ALSzAvSjA3S7ATShBaQZl6QZmyQZieQJrSANPPC7zRjk/kPHqQJYUGaALBukCaEBWkCwLpBmhAWpJkXHs/GhseznUCa0ALSzAtfBIpN5rmHNCEsSDMvSDM2SLMTSBNaWIc0b968OZw6dWrxum4uXLiweA8Wly9fXub059q1a8Pp06eH27dvL1PWC9KMzRRzb64gTQiLJmbturGYYuJKXGfOnFm89kSSunjx4nLv1fP6c0pekpjK9ULn71n/TkCasUGanUCa0EJvaUpUEub169cXr3bXJbEcPnx4Ub/uQpWuu0DtK1RW6NXS7C5Rr8ePH7+rrO5ijx07tthXvVeuXKkKUsdKpCbQo0eP3jnGytbaobxz584tzqH23rhx4875FDrGH6cyasPZs2cXx+t8SrN8k7mO8e/RzjcFSDM2uh6ygjQhLJqYtevGonXimhSEXrVvwvJCqz3C9cfqGG0r36cLq1f12Z2mL+9RGYmsbINetS8Z+nZIblb3iRMnXlOfUNr58+cX2/5O084lrB5D6cov34ulTwHSjA3S7ATShBZ6S1NCUB0WJjK9SlyGF4wh0fhj7W5QorE7NeHF5qW53Z2ml6q1SXeHdgdsofJl+1Te32nqWLGZNEsZWpvL94I0wdB1lRWkCWHRxKxdNxYtE7eUo4lKd3Nj7zS9UAylm6SEtpWm+kyaQsf6471IS6nq1e40fZsN5XtpmvSEz1vlTtO3cUpp8jvN2GT+gwdpQlh6SrMUhVCaQmLY6Weavlz5maawuz//+aTOZeUU1h6T5nafaVq6wkvTt191WJ4dq7b6zzSFfy8mSpW3bTGlNAHmCtKEsGgBr103FsqfG6VoVkHSlMT8ne3cuHXr1nILIBdIE8KCNOcpzZdeeml48MEHh42NjZXlyePZ2Gjss4I0ISwRpbkXkDTvvffe4b777hv279+/kjz5IlBsMs89pAlhQZrzRNI8cODAov8Vq8gTacYGaXYCaUILSHOelNK0kDzvueeeUfJEmrHJPPeQJoRFE7N23VhknrhzZjNpWoyRJ9KMjcY5K0gTwqKJWbtuLDJP3DmznTQttpIn0oyNxjcrSBPCoolZu24URz79zF0LNLHe0GeYtfRa7Nu3b3jTm95UzfPxwQ9+cDnyMHc0XllBmhAWTczadWOReeLOmVXuNI8cObL4Q6c2jgrlIc04aHyzgjQhLJqYtevGIvPEnTOrfKYpISLNPGR+tI40ISxagGvXjYXyYf2s8u1ZpAlRQJoQFi3EtevGQvmwfkppSpbb/U4TaUIUkCaEBWnOE0lzp/8iENLMBY9nO4E0oQWkOU8kzUOHDo2SpYE0c5F57iFNCAvSnC9jZWkgzVwgzU4gTWgBaeYBaeYCaXYCaUILSDMPSDMXSLMTSBNaQJp5QJq5QJqdQJrQAtLMA9LMBdLsBNKEFpBmHpBmLpBmJ5AmtIA084A0c8HvNDuBNKEFpJkHpAlRQJoQFqSZB6QJUUCaEBakmQekmQsez3YCaUILSDMPSDMXmece0oSwIM08IM1cIM1OIE1oAWnmYSpp3rx5czh27Nhi7BWnTp0abt++vcwdx5kzZxbHXrhwYZkyHarT2qa4fPnyMqc/6ofTp08P165dW6b0Q+8tK0gTwqKJWbtuLDJP3GxMKU1Jz0QpSe1Efjr+/Pnzy71pKduyDomp7osXLy731gfS7ATShBaQZh7WIU27g1TYHZ5ez507Nxw+fHh4+umn79yl6lV1Kd+OsTTVrWMkPB135cqV4ezZs8OJEyfulNO+Hac6NhOk8tQ+yz969OjiGNVrZfWqfaXbnbPS1AadS2k3bty403Y7p9pqadZO9YG9Bx1n5a2PdJzvJ22vgo7NCtKEsGhi1q4bi8wTNxtTStPLwxZ9k4GQMEweSvePcJVmd5raVjnLk6gkQxOOjhXa90L0orY6Xn755Tvn9Pg6fR161b6O8+k6p+rWviRd1if8e1A5u9PUOawNqsPaL9QGlfX9JCx9pyDNTiBNaAFp5qHXnaYhSZhIFXYnZxIySuFIGobVXQrQy0h4IfljvPwMO39Zhx1X3kEqlF5rW+2PBZWrSbOUobW57A+k+VqQJoRFE7N23VhknrjZ6C3NUgZGma7jx9xpmnxEuW8CEr4OpftzKc1E6reFXu1O09dtWFsMf06fp+2d3mn6Nq4qTX6n2QmkCS0gzTz0lqZQuq4JhT2S3UqaQsKwzxN1J6d8Lx9R7nshle1RnrVBYeWUL0lu95mmHaM0L01fRnVYns6vdivPf6YpfH9YH0wlzcwgTQiLJnvturFQPsRgKmlGpRQvzBekCWFBmnlAmrmkyePZTiBNaAFp5mGvSzMbmece0oSwIM08IM1cIM1OIE1oAWnmAWnOh1u3bi23VgdpdgJpQgtIMw9Icx689NJLw4MPPjhsbGw0yRNpdgJpQgtIMw9Icx5Imvfee+9w3333Dfv3719ZnkizE0gTWkCaeUCa80DSPHDgwGLuKFaVJ9LsBNKEFpBmHpDmPCilaSF53nPPPaPlmXnuIU0IiyZm7bqxyDxxs4E058Fm0rQYK09+p9kJpAktaBLXrhsL5UMMkOY82E6aFju988wE0oSwaPLWrhsL5UMMtpPm29535K5Fm+gX+gyzll6Lffv2DY8++mg1r4wsIE0IiyZi7bqxyDRRs8Od5jxY9U5TabVxs1B+FpAmhGUvTdTsIM15sOpnmsqrjZuF8rOANCEse2miZgdpzoNVvz2rMrVxs1B+FpAmhGUvTdTsIM15UEpTshzzO829NBeRJoRlL03U7CDNeSBprvIvAiHNNYE0oQWkmQekOQ8kzUOHDo2WpYE01wTShBaQZh6Q5nzYiSwNpLkmkCa0gDTzgDRjgzTXBNKEFpBmHpBmbJDmmkCa0ALSzAPSjA3SXBNIE1pAmnlAmrFBmmsCaUILSDMPSDM2SHNNIE1oAWnmAWnGBmmuCaQJLSDNPCDN2CDNNYE0oQWkmQekGRukuSaQJrSANPOANGODNNcE0oQWkGYekGZskOaaQJrQAtLMA9KMDdJcE0gTWkCaeUCasUGaawJpQgtIMw9IMzZIc00gTWgBaeYBacYGaa4JpAktIM08IM3YIM01gTShBaSZB6QZG6S5JpAmtIA084A0Y4M01wTShBaQZh6QZmyQ5ppAmtAC0swD0owN0lwTSBNaQJp5QJqxQZprAmlCC0gzD0gzNkhzTSBNaAFp5gFpxgZprgmkCS0gzTwgzdggzTWBNKEFpJkHpBkbpLkmkCa0gDTzgDRjgzTXBNKEFpBmHpBmbJDmmkCa0ALSzAPSjA3SXBNIE1pAmnlAmrFBmmsCaUILSDMPPaR569at5Rb0BmmuCaQJLSDNPEwpTclyY2NjOHny5DIFeoM01wTShBaQZh6mkKbJ8v77718I8+rVq8sc6A3SXBNIE1pAmnlokabJ8uDBg8MTTzyBLHcBpLkmkCa0gDTzsIo0keV8QJprAmlCC0gzDzuRppclj2HnAdJcE0gTWkCaeRgjzSNHjiDLmYI01wTShBaQZh7GSPOtb33r8MgjjwyPPfbYYmx9PPvss8uafofSKLc75WqRBaQJYdFErF03Fpkmana404QoIE0IC9LMA59p5qJ2R5oFpAlhQZp52Ik0DeQ5XzLPPaQJYUGaeVhFmgbynB9IsxNIE1pAmnlokaZh8uRfBNp9kGYnkCa0gDTzMIU0DZOnxAm7A9LsBNKEFpBmHqaUpiF5wu6ANDuBNKEFpJmHHtKE3QNpdgJpQgtIMw9IMxdIsxNIE1pAmnlAmrngd5qdQJrQAtLMA9KEKCBNCAvSzAPShCggTQgL0swD0swFj2c7gTShBaSZB6SZi8xzD2lCWJBmHpBmLpBmJ5AmtIA084A0c4E0O4E0oQWkmQekmQuk2QmkCS0gzTwgzVwgzU4gTWgBaeYBaeYCaXYCaUILSDMPSDMXSLMTSBNaQJp5QJq54HeanUCa0ALSzAPShCggTQgL0swD0oQoIE0IC9LMA9LMBY9nO4E0oQWkmQekmYvMcw9pQliQZh6QZi6QZieQJrSANPOANHOBNDuBNKEFpJkHpJkLpNkJpAktTC3NW7duLbdg3SDNXCDNTiBNaGEqaUqWGxsbw8mTJ5cpsG6QZi6QZieQJrTQKk2T5f33378Q5tWrV5c5sG6QZi6QZieQJrSwqjRNlgcPHhyeeOIJZDkDkGYu+J1mJ5AmtLBTaSLL+YI0IQpIE8IyVppeljyGnSdIE6KANCEsY6SJLGOANHPB49lOIE1oYYw0H3nkkeHSpUuLSax9HxJqCeV2r9zb3nekOo4KpBkLjWdWkCaERROzdt1YKF8LNnea80dCNHluFkgzDhqvrCBNCIsmZu26sbCJy2ea8dCdqAJigjQ7gTShhbHSNJBnHJBmbJBmJ5AmtLBTaRrIc/4gzdggzU4gTWhhVWkaJk/+RaD5gTRjgzQ7gTShhVZpGiZPiRPmAdKMDdLsBNKEFqaSpiF5wjx4/vnnFwExyfwHD9KEsEwtTQCA7UCaEBakCQDrBmlCWJBmXng8Gxsez3YCaUILSDMvfBEoNpnnHtKEsCDNvCDN2CDNTiBNaAFp5gVpxgZpdgJpQgtIMy9IMzZIsxNIE1pAmnlBmrFBmp1AmtAC0swL0owN0uwE0oQWkGZekGZskGYnkCa0gDTzwu80Y5P5Dx6kCWFBmgCwbpAmhAVpAsC6QZoQFqSZFx7PxobHs51AmtAC0swLXwSKTea5hzQhLEgzL0gzNkizE0gTWkCaeUGasUGanUCa0ALSzAvSjA3S7ATShBaQZl6QZmyQZieQJrSANPOCNGODNDuBNKEFpJkXpBkbpNmJqaV569at5RbsBZBmXvidZmwy/8GTQpqS5cbGxnDy5MllCuwFkCYArJvQ0jRZ3n///QthXr16dZkDewGkCQDrJqQ0TZYHDx4cnnjiCWS5R0GaeeHxbGx4PNuJnUoTWYIHaeaFLwLFJvPcCyFNL0sew4KBNPOCNGODNDuxnTTf+fc/Mrz//e9HllAFaeYFacYGaXZiO2m+6fffNrzlLW8ZLl26tDzi1cmkAfFRm1yU23vlagEx0fjWxh1ikHnuzVqa3GnCTkCSeUCasUGaneAzTZgSpJkHpBkbpNmJsdI0kCdsBdLMA9KMDdLsxE6laSBPqMEimwd+pxmbzHMxpDQNkyf/IhAAAKyD0NI0TJ4SJwAAQC9SSNOQPGHvwuPZPPB4NjY8nu3E1NKEvQ1fBMqDFl3+CIoLXwTqBNKEKUGaeUCasUGanUCaMCVIMw9IMzZIsxNIE6YEaeYBacYGaXYCacKUIM08IM3YIM1OIE2YEqSZB6QZG6TZCaQJU4I084A0Y4M0O4E0YUpYZPPA7zRjk3kuIk0AAICRIE0AAICRIE1IA49n88Dj2djweLYTSBOmhC8C5UGLLn8ExYUvAnUCacKUIM08IM3YIM1OIE2YEqSZB6QZG6TZCaQJU4I084A0Y4M0O4E0YUqQZh6QZmyQZieQJkwJ0swD0owN0uwE0oQpQZp5QJqxQZqdQJowJSyyeeB3mrHJPBeRJgAAwEiQJgAAwEiQJqSBx7N54PFsbHg82wmkCVPCF4HyoEWXP4LiwheBOoE0YUqQZh6QZmyQZieQJkwJ0swD0owN0uwE0oQpQZp5QJqxQZqdQJowJUgzD0gzNkizE0gTpgRp5gFpxgZpdgJpwpQgzTwgzdggzU4gTZgSFtk88DvN2GSei0gTAABgJEgTAABgJEgT0sDj2TzweDY2PJ7tBNKEKeGLQHnQossfQXHhi0CdQJowJUgzD0gzNkizE0gTpgRp5gFpxgZpdgJpwpQgzTwgzdggzU4gTZgSpJkHpBkbpNkJpAlTgjTzgDRjgzQ7gTRhSpBmHpBmbJBmJ5AmTAmLbB74nWZsMs9FpAkAADASpAkAADASpAlp4DPNPPCZZmz4TLMTSBOmBGnmAWnGBml2QtJU524VSBPGousFcoA0Y5N5LrLKAAAAjARpAgAAjARpAgAAjARpAgAAjARpAgAAjARpAgAAjARpAgAAjARpAgAAjARpAgAAjARpAgAAjARpAgAAjARpAgAAjARpAgAAjARpAgAAjARpAgAAjARpAgAAjARpAgAAjARpAgAAjARpAgAAjARpAgAAjARpAgAAjARpAgAAjARpAgAAjARpAgAAjARpAgAAjARpAgAAjARpAgAAjARpAgAAjARpAgAAjARpAgAAjARpAgAAjARpAgAAjGIY/j+uqKSsbdv6EQAAAABJRU5ErkJggg==;" parent="1" vertex="1">
          <mxGeometry x="1430.0000244140624" y="-480.000048828125" width="461" height="402" as="geometry" />
        </mxCell>
        <mxCell id="FDyta-szb_0lJt4S96MW-7" value="&lt;ul style=&quot;border: 0px solid rgb(217, 217, 227); box-sizing: border-box; --tw-border-spacing-x:0; --tw-border-spacing-y:0; --tw-translate-x:0; --tw-translate-y:0; --tw-rotate:0; --tw-skew-x:0; --tw-skew-y:0; --tw-scale-x:1; --tw-scale-y:1; --tw-pan-x: ; --tw-pan-y: ; --tw-pinch-zoom: ; --tw-scroll-snap-strictness:proximity; --tw-ordinal: ; --tw-slashed-zero: ; --tw-numeric-figure: ; --tw-numeric-spacing: ; --tw-numeric-fraction: ; --tw-ring-inset: ; --tw-ring-offset-width:0px; --tw-ring-offset-color:#fff; --tw-ring-color:rgba(59,130,246,0.5); --tw-ring-offset-shadow:0 0 transparent; --tw-ring-shadow:0 0 transparent; --tw-shadow:0 0 transparent; --tw-shadow-colored:0 0 transparent; --tw-blur: ; --tw-brightness: ; --tw-contrast: ; --tw-grayscale: ; --tw-hue-rotate: ; --tw-invert: ; --tw-saturate: ; --tw-sepia: ; --tw-drop-shadow: ; --tw-backdrop-blur: ; --tw-backdrop-brightness: ; --tw-backdrop-contrast: ; --tw-backdrop-grayscale: ; --tw-backdrop-hue-rotate: ; --tw-backdrop-invert: ; --tw-backdrop-opacity: ; --tw-backdrop-saturate: ; --tw-backdrop-sepia: ; list-style: disc; margin: 1.25em 0px; padding: 0px 0px 0px 1rem; display: flex; flex-direction: column; color: rgb(209, 213, 219); font-family: Söhne, ui-sans-serif, system-ui, -apple-system, &amp;quot;Segoe UI&amp;quot;, Roboto, Ubuntu, Cantarell, &amp;quot;Noto Sans&amp;quot;, sans-serif, &amp;quot;Helvetica Neue&amp;quot;, Arial, &amp;quot;Apple Color Emoji&amp;quot;, &amp;quot;Segoe UI Emoji&amp;quot;, &amp;quot;Segoe UI Symbol&amp;quot;, &amp;quot;Noto Color Emoji&amp;quot;; font-size: 16px; font-style: normal; font-variant-ligatures: normal; font-variant-caps: normal; font-weight: 400; letter-spacing: normal; orphans: 2; text-align: start; text-indent: 0px; text-transform: none; widows: 2; word-spacing: 0px; -webkit-text-stroke-width: 0px; background-color: rgb(68, 70, 84); text-decoration-thickness: initial; text-decoration-style: initial; text-decoration-color: initial;&quot;&gt;&lt;li style=&quot;border: 0px solid rgb(217, 217, 227); box-sizing: border-box; --tw-border-spacing-x:0; --tw-border-spacing-y:0; --tw-translate-x:0; --tw-translate-y:0; --tw-rotate:0; --tw-skew-x:0; --tw-skew-y:0; --tw-scale-x:1; --tw-scale-y:1; --tw-pan-x: ; --tw-pan-y: ; --tw-pinch-zoom: ; --tw-scroll-snap-strictness:proximity; --tw-ordinal: ; --tw-slashed-zero: ; --tw-numeric-figure: ; --tw-numeric-spacing: ; --tw-numeric-fraction: ; --tw-ring-inset: ; --tw-ring-offset-width:0px; --tw-ring-offset-color:#fff; --tw-ring-color:rgba(59,130,246,0.5); --tw-ring-offset-shadow:0 0 transparent; --tw-ring-shadow:0 0 transparent; --tw-shadow:0 0 transparent; --tw-shadow-colored:0 0 transparent; --tw-blur: ; --tw-brightness: ; --tw-contrast: ; --tw-grayscale: ; --tw-hue-rotate: ; --tw-invert: ; --tw-saturate: ; --tw-sepia: ; --tw-drop-shadow: ; --tw-backdrop-blur: ; --tw-backdrop-brightness: ; --tw-backdrop-contrast: ; --tw-backdrop-grayscale: ; --tw-backdrop-hue-rotate: ; --tw-backdrop-invert: ; --tw-backdrop-opacity: ; --tw-backdrop-saturate: ; --tw-backdrop-sepia: ; margin: 0px; padding-left: 0.375em; display: block; position: relative;&quot;&gt;Действие &quot;Выбрать плейлист&quot; - обозначено прямоугольником с названием действия внутри. Выполняется пользователем в форме AudioPlayerForm.&lt;/li&gt;&lt;li style=&quot;border: 0px solid rgb(217, 217, 227); box-sizing: border-box; --tw-border-spacing-x:0; --tw-border-spacing-y:0; --tw-translate-x:0; --tw-translate-y:0; --tw-rotate:0; --tw-skew-x:0; --tw-skew-y:0; --tw-scale-x:1; --tw-scale-y:1; --tw-pan-x: ; --tw-pan-y: ; --tw-pinch-zoom: ; --tw-scroll-snap-strictness:proximity; --tw-ordinal: ; --tw-slashed-zero: ; --tw-numeric-figure: ; --tw-numeric-spacing: ; --tw-numeric-fraction: ; --tw-ring-inset: ; --tw-ring-offset-width:0px; --tw-ring-offset-color:#fff; --tw-ring-color:rgba(59,130,246,0.5); --tw-ring-offset-shadow:0 0 transparent; --tw-ring-shadow:0 0 transparent; --tw-shadow:0 0 transparent; --tw-shadow-colored:0 0 transparent; --tw-blur: ; --tw-brightness: ; --tw-contrast: ; --tw-grayscale: ; --tw-hue-rotate: ; --tw-invert: ; --tw-saturate: ; --tw-sepia: ; --tw-drop-shadow: ; --tw-backdrop-blur: ; --tw-backdrop-brightness: ; --tw-backdrop-contrast: ; --tw-backdrop-grayscale: ; --tw-backdrop-hue-rotate: ; --tw-backdrop-invert: ; --tw-backdrop-opacity: ; --tw-backdrop-saturate: ; --tw-backdrop-sepia: ; margin: 0px; padding-left: 0.375em; display: block; position: relative;&quot;&gt;Действие &quot;Найти песню&quot; - обозначено прямоугольником с названием действия внутри. Выполняется объектом SongController посредством реализации интерфейса ISearch.&lt;/li&gt;&lt;li style=&quot;border: 0px solid rgb(217, 217, 227); box-sizing: border-box; --tw-border-spacing-x:0; --tw-border-spacing-y:0; --tw-translate-x:0; --tw-translate-y:0; --tw-rotate:0; --tw-skew-x:0; --tw-skew-y:0; --tw-scale-x:1; --tw-scale-y:1; --tw-pan-x: ; --tw-pan-y: ; --tw-pinch-zoom: ; --tw-scroll-snap-strictness:proximity; --tw-ordinal: ; --tw-slashed-zero: ; --tw-numeric-figure: ; --tw-numeric-spacing: ; --tw-numeric-fraction: ; --tw-ring-inset: ; --tw-ring-offset-width:0px; --tw-ring-offset-color:#fff; --tw-ring-color:rgba(59,130,246,0.5); --tw-ring-offset-shadow:0 0 transparent; --tw-ring-shadow:0 0 transparent; --tw-shadow:0 0 transparent; --tw-shadow-colored:0 0 transparent; --tw-blur: ; --tw-brightness: ; --tw-contrast: ; --tw-grayscale: ; --tw-hue-rotate: ; --tw-invert: ; --tw-saturate: ; --tw-sepia: ; --tw-drop-shadow: ; --tw-backdrop-blur: ; --tw-backdrop-brightness: ; --tw-backdrop-contrast: ; --tw-backdrop-grayscale: ; --tw-backdrop-hue-rotate: ; --tw-backdrop-invert: ; --tw-backdrop-opacity: ; --tw-backdrop-saturate: ; --tw-backdrop-sepia: ; margin: 0px; padding-left: 0.375em; display: block; position: relative;&quot;&gt;Действие &quot;Воспроизвести песню&quot; - обозначено прямоугольником с названием действия внутри. Выполняется объектом Song посредством реализации интерфейса IPlayable.&lt;/li&gt;&lt;li style=&quot;border: 0px solid rgb(217, 217, 227); box-sizing: border-box; --tw-border-spacing-x:0; --tw-border-spacing-y:0; --tw-translate-x:0; --tw-translate-y:0; --tw-rotate:0; --tw-skew-x:0; --tw-skew-y:0; --tw-scale-x:1; --tw-scale-y:1; --tw-pan-x: ; --tw-pan-y: ; --tw-pinch-zoom: ; --tw-scroll-snap-strictness:proximity; --tw-ordinal: ; --tw-slashed-zero: ; --tw-numeric-figure: ; --tw-numeric-spacing: ; --tw-numeric-fraction: ; --tw-ring-inset: ; --tw-ring-offset-width:0px; --tw-ring-offset-color:#fff; --tw-ring-color:rgba(59,130,246,0.5); --tw-ring-offset-shadow:0 0 transparent; --tw-ring-shadow:0 0 transparent; --tw-shadow:0 0 transparent; --tw-shadow-colored:0 0 transparent; --tw-blur: ; --tw-brightness: ; --tw-contrast: ; --tw-grayscale: ; --tw-hue-rotate: ; --tw-invert: ; --tw-saturate: ; --tw-sepia: ; --tw-drop-shadow: ; --tw-backdrop-blur: ; --tw-backdrop-brightness: ; --tw-backdrop-contrast: ; --tw-backdrop-grayscale: ; --tw-backdrop-hue-rotate: ; --tw-backdrop-invert: ; --tw-backdrop-opacity: ; --tw-backdrop-saturate: ; --tw-backdrop-sepia: ; margin: 0px; padding-left: 0.375em; display: block; position: relative;&quot;&gt;Действие &quot;Переключить песню&quot; - обозначено прямоугольником с названием действия внутри. Выполняется объектом SongController.&lt;/li&gt;&lt;li style=&quot;border: 0px solid rgb(217, 217, 227); box-sizing: border-box; --tw-border-spacing-x:0; --tw-border-spacing-y:0; --tw-translate-x:0; --tw-translate-y:0; --tw-rotate:0; --tw-skew-x:0; --tw-skew-y:0; --tw-scale-x:1; --tw-scale-y:1; --tw-pan-x: ; --tw-pan-y: ; --tw-pinch-zoom: ; --tw-scroll-snap-strictness:proximity; --tw-ordinal: ; --tw-slashed-zero: ; --tw-numeric-figure: ; --tw-numeric-spacing: ; --tw-numeric-fraction: ; --tw-ring-inset: ; --tw-ring-offset-width:0px; --tw-ring-offset-color:#fff; --tw-ring-color:rgba(59,130,246,0.5); --tw-ring-offset-shadow:0 0 transparent; --tw-ring-shadow:0 0 transparent; --tw-shadow:0 0 transparent; --tw-shadow-colored:0 0 transparent; --tw-blur: ; --tw-brightness: ; --tw-contrast: ; --tw-grayscale: ; --tw-hue-rotate: ; --tw-invert: ; --tw-saturate: ; --tw-sepia: ; --tw-drop-shadow: ; --tw-backdrop-blur: ; --tw-backdrop-brightness: ; --tw-backdrop-contrast: ; --tw-backdrop-grayscale: ; --tw-backdrop-hue-rotate: ; --tw-backdrop-invert: ; --tw-backdrop-opacity: ; --tw-backdrop-saturate: ; --tw-backdrop-sepia: ; margin: 0px; padding-left: 0.375em; display: block; position: relative;&quot;&gt;Решение &quot;Песня найдена?&quot; - обозначено ромбом с вопросительным знаком внутри. Выполняется объектом SongController.&lt;/li&gt;&lt;li style=&quot;border: 0px solid rgb(217, 217, 227); box-sizing: border-box; --tw-border-spacing-x:0; --tw-border-spacing-y:0; --tw-translate-x:0; --tw-translate-y:0; --tw-rotate:0; --tw-skew-x:0; --tw-skew-y:0; --tw-scale-x:1; --tw-scale-y:1; --tw-pan-x: ; --tw-pan-y: ; --tw-pinch-zoom: ; --tw-scroll-snap-strictness:proximity; --tw-ordinal: ; --tw-slashed-zero: ; --tw-numeric-figure: ; --tw-numeric-spacing: ; --tw-numeric-fraction: ; --tw-ring-inset: ; --tw-ring-offset-width:0px; --tw-ring-offset-color:#fff; --tw-ring-color:rgba(59,130,246,0.5); --tw-ring-offset-shadow:0 0 transparent; --tw-ring-shadow:0 0 transparent; --tw-shadow:0 0 transparent; --tw-shadow-colored:0 0 transparent; --tw-blur: ; --tw-brightness: ; --tw-contrast: ; --tw-grayscale: ; --tw-hue-rotate: ; --tw-invert: ; --tw-saturate: ; --tw-sepia: ; --tw-drop-shadow: ; --tw-backdrop-blur: ; --tw-backdrop-brightness: ; --tw-backdrop-contrast: ; --tw-backdrop-grayscale: ; --tw-backdrop-hue-rotate: ; --tw-backdrop-invert: ; --tw-backdrop-opacity: ; --tw-backdrop-saturate: ; --tw-backdrop-sepia: ; margin: 0px; padding-left: 0.375em; display: block; position: relative;&quot;&gt;Связи между элементами обозначаются стрелками.&lt;/li&gt;&lt;/ul&gt;&lt;p style=&quot;border: 0px solid rgb(217, 217, 227); box-sizing: border-box; --tw-border-spacing-x:0; --tw-border-spacing-y:0; --tw-translate-x:0; --tw-translate-y:0; --tw-rotate:0; --tw-skew-x:0; --tw-skew-y:0; --tw-scale-x:1; --tw-scale-y:1; --tw-pan-x: ; --tw-pan-y: ; --tw-pinch-zoom: ; --tw-scroll-snap-strictness:proximity; --tw-ordinal: ; --tw-slashed-zero: ; --tw-numeric-figure: ; --tw-numeric-spacing: ; --tw-numeric-fraction: ; --tw-ring-inset: ; --tw-ring-offset-width:0px; --tw-ring-offset-color:#fff; --tw-ring-color:rgba(59,130,246,0.5); --tw-ring-offset-shadow:0 0 transparent; --tw-ring-shadow:0 0 transparent; --tw-shadow:0 0 transparent; --tw-shadow-colored:0 0 transparent; --tw-blur: ; --tw-brightness: ; --tw-contrast: ; --tw-grayscale: ; --tw-hue-rotate: ; --tw-invert: ; --tw-saturate: ; --tw-sepia: ; --tw-drop-shadow: ; --tw-backdrop-blur: ; --tw-backdrop-brightness: ; --tw-backdrop-contrast: ; --tw-backdrop-grayscale: ; --tw-backdrop-hue-rotate: ; --tw-backdrop-invert: ; --tw-backdrop-opacity: ; --tw-backdrop-saturate: ; --tw-backdrop-sepia: ; margin: 1.25em 0px 0px; color: rgb(209, 213, 219); font-family: Söhne, ui-sans-serif, system-ui, -apple-system, &amp;quot;Segoe UI&amp;quot;, Roboto, Ubuntu, Cantarell, &amp;quot;Noto Sans&amp;quot;, sans-serif, &amp;quot;Helvetica Neue&amp;quot;, Arial, &amp;quot;Apple Color Emoji&amp;quot;, &amp;quot;Segoe UI Emoji&amp;quot;, &amp;quot;Segoe UI Symbol&amp;quot;, &amp;quot;Noto Color Emoji&amp;quot;; font-size: 16px; font-style: normal; font-variant-ligatures: normal; font-variant-caps: normal; font-weight: 400; letter-spacing: normal; orphans: 2; text-align: start; text-indent: 0px; text-transform: none; widows: 2; word-spacing: 0px; -webkit-text-stroke-width: 0px; background-color: rgb(68, 70, 84); text-decoration-thickness: initial; text-decoration-style: initial; text-decoration-color: initial;&quot;&gt;По диаграмме можно понять, что пользователь выбирает плейлист в форме AudioPlayerForm, затем SongController на основе запроса пользователя ищет нужную песню и проверяет ее наличие. Если песня найдена, то SongController переключает песню в Playlist и Song проигрывает ее. Если песня не найдена, то SongController не выполняет действие воспроизведения.&lt;/p&gt;" style="text;whiteSpace=wrap;html=1;" parent="1" vertex="1">
          <mxGeometry x="2830" y="-697.9999389648438" width="550" height="465" as="geometry" />
        </mxCell>
        <mxCell id="FDyta-szb_0lJt4S96MW-8" value="" style="ellipse;whiteSpace=wrap;html=1;aspect=fixed;fillColor=#000000;" parent="1" vertex="1">
          <mxGeometry x="2279.5" y="341.5" width="70" height="70" as="geometry" />
        </mxCell>
        <mxCell id="FDyta-szb_0lJt4S96MW-9" value="Выбор плейлиста" style="rounded=1;whiteSpace=wrap;html=1;fontFamily=Times New Roman;fontSize=16;" parent="1" vertex="1">
          <mxGeometry x="1090" y="568" width="261" height="67" as="geometry" />
        </mxCell>
        <mxCell id="FDyta-szb_0lJt4S96MW-10" value="Найти песню" style="rounded=1;whiteSpace=wrap;html=1;fontFamily=Times New Roman;fontSize=16;" parent="1" vertex="1">
          <mxGeometry x="1090" y="680" width="261" height="67" as="geometry" />
        </mxCell>
        <mxCell id="FDyta-szb_0lJt4S96MW-14" value="Найти песню" style="rounded=1;whiteSpace=wrap;html=1;fontFamily=Times New Roman;fontSize=16;" parent="1" vertex="1">
          <mxGeometry x="1090" y="363" width="261" height="67" as="geometry" />
        </mxCell>
        <mxCell id="FDyta-szb_0lJt4S96MW-19" value="" style="endArrow=open;html=1;rounded=0;endFill=0;exitX=0.5;exitY=1;exitDx=0;exitDy=0;entryX=0.5;entryY=0;entryDx=0;entryDy=0;" parent="1" edge="1" target="jp09Y0G8pGPSq42nTGuu-12" source="FDyta-szb_0lJt4S96MW-8">
          <mxGeometry width="50" height="50" relative="1" as="geometry">
            <mxPoint x="1724" y="493.5" as="sourcePoint" />
            <mxPoint x="1724" y="533.5" as="targetPoint" />
          </mxGeometry>
        </mxCell>
        <mxCell id="FDyta-szb_0lJt4S96MW-22" value="" style="group" parent="1" vertex="1" connectable="0">
          <mxGeometry x="2279.5" y="1510" width="70" height="70" as="geometry" />
        </mxCell>
        <mxCell id="FDyta-szb_0lJt4S96MW-20" value="" style="ellipse;whiteSpace=wrap;html=1;aspect=fixed;fillColor=#000000;" parent="FDyta-szb_0lJt4S96MW-22" vertex="1">
          <mxGeometry x="10" y="10" width="50" height="50" as="geometry" />
        </mxCell>
        <mxCell id="FDyta-szb_0lJt4S96MW-21" value="" style="ellipse;whiteSpace=wrap;html=1;aspect=fixed;fillColor=none;" parent="FDyta-szb_0lJt4S96MW-22" vertex="1">
          <mxGeometry width="70" height="70" as="geometry" />
        </mxCell>
        <mxCell id="FDyta-szb_0lJt4S96MW-23" value="Воспроизвести песню" style="rounded=1;whiteSpace=wrap;html=1;fontFamily=Times New Roman;fontSize=16;" parent="1" vertex="1">
          <mxGeometry x="1090" y="803" width="261" height="67" as="geometry" />
        </mxCell>
        <mxCell id="FDyta-szb_0lJt4S96MW-24" value="Переключить песню" style="rounded=1;whiteSpace=wrap;html=1;fontFamily=Times New Roman;fontSize=16;" parent="1" vertex="1">
          <mxGeometry x="1090" y="908" width="261" height="67" as="geometry" />
        </mxCell>
        <mxCell id="jp09Y0G8pGPSq42nTGuu-8" value="&amp;nbsp;" style="shape=note2;boundedLbl=1;whiteSpace=wrap;html=1;size=25;verticalAlign=top;align=center;" vertex="1" parent="1">
          <mxGeometry x="2820" y="-840" width="160" height="80" as="geometry" />
        </mxCell>
        <mxCell id="jp09Y0G8pGPSq42nTGuu-9" value="&lt;&lt;keyword&gt;&gt;" style="resizeWidth=1;part=1;strokeColor=none;fillColor=none;align=left;spacingLeft=5;fontFamily=Times New Roman;fontSize=16;" vertex="1" parent="jp09Y0G8pGPSq42nTGuu-8">
          <mxGeometry width="140" height="30" relative="1" as="geometry" />
        </mxCell>
        <mxCell id="jp09Y0G8pGPSq42nTGuu-20" style="edgeStyle=orthogonalEdgeStyle;rounded=0;orthogonalLoop=1;jettySize=auto;html=1;exitX=0;exitY=0.5;exitDx=0;exitDy=0;entryX=0.5;entryY=0;entryDx=0;entryDy=0;endArrow=open;endFill=0;" edge="1" parent="1" source="jp09Y0G8pGPSq42nTGuu-12" target="jp09Y0G8pGPSq42nTGuu-18">
          <mxGeometry relative="1" as="geometry" />
        </mxCell>
        <mxCell id="jp09Y0G8pGPSq42nTGuu-21" style="edgeStyle=orthogonalEdgeStyle;rounded=0;orthogonalLoop=1;jettySize=auto;html=1;exitX=1;exitY=0.5;exitDx=0;exitDy=0;entryX=0.5;entryY=0;entryDx=0;entryDy=0;endArrow=open;endFill=0;" edge="1" parent="1" source="jp09Y0G8pGPSq42nTGuu-12" target="jp09Y0G8pGPSq42nTGuu-19">
          <mxGeometry relative="1" as="geometry" />
        </mxCell>
        <mxCell id="jp09Y0G8pGPSq42nTGuu-12" value="" style="rhombus;whiteSpace=wrap;html=1;" vertex="1" parent="1">
          <mxGeometry x="2209.25" y="481.5" width="210.5" height="97.73" as="geometry" />
        </mxCell>
        <mxCell id="jp09Y0G8pGPSq42nTGuu-17" style="rounded=0;orthogonalLoop=1;jettySize=auto;html=1;entryX=0;entryY=0;entryDx=0;entryDy=0;endArrow=none;endFill=0;dashed=1;dashPattern=8 8;" edge="1" parent="1" source="jp09Y0G8pGPSq42nTGuu-15" target="jp09Y0G8pGPSq42nTGuu-12">
          <mxGeometry relative="1" as="geometry" />
        </mxCell>
        <mxCell id="jp09Y0G8pGPSq42nTGuu-15" value="&amp;nbsp;" style="shape=note2;boundedLbl=1;whiteSpace=wrap;html=1;size=25;verticalAlign=top;align=center;" vertex="1" parent="1">
          <mxGeometry x="1876" y="371.5" width="190" height="70" as="geometry" />
        </mxCell>
        <mxCell id="jp09Y0G8pGPSq42nTGuu-16" value="Есть ли загруженные &#xa;в систему плагины" style="resizeWidth=1;part=1;strokeColor=none;fillColor=none;align=left;spacingLeft=5;fontSize=16;fontFamily=Times New Roman;" vertex="1" parent="jp09Y0G8pGPSq42nTGuu-15">
          <mxGeometry width="166.25" height="30" relative="1" as="geometry" />
        </mxCell>
        <mxCell id="jp09Y0G8pGPSq42nTGuu-28" style="edgeStyle=orthogonalEdgeStyle;rounded=0;orthogonalLoop=1;jettySize=auto;html=1;entryX=0.42;entryY=0.057;entryDx=0;entryDy=0;entryPerimeter=0;" edge="1" parent="1" source="jp09Y0G8pGPSq42nTGuu-18" target="jp09Y0G8pGPSq42nTGuu-26">
          <mxGeometry relative="1" as="geometry">
            <mxPoint x="2316" y="811.5" as="targetPoint" />
            <Array as="points">
              <mxPoint x="2079" y="761.5" />
              <mxPoint x="2298" y="761.5" />
            </Array>
          </mxGeometry>
        </mxCell>
        <mxCell id="jp09Y0G8pGPSq42nTGuu-18" value="Активация загруженных плагинов и загрузка системы" style="rounded=1;whiteSpace=wrap;html=1;fontFamily=Times New Roman;fontSize=16;" vertex="1" parent="1">
          <mxGeometry x="1948.25" y="631.5" width="261" height="67" as="geometry" />
        </mxCell>
        <mxCell id="jp09Y0G8pGPSq42nTGuu-29" style="edgeStyle=orthogonalEdgeStyle;rounded=0;orthogonalLoop=1;jettySize=auto;html=1;exitX=0.5;exitY=1;exitDx=0;exitDy=0;entryX=0.561;entryY=0.047;entryDx=0;entryDy=0;entryPerimeter=0;" edge="1" parent="1" source="jp09Y0G8pGPSq42nTGuu-19" target="jp09Y0G8pGPSq42nTGuu-26">
          <mxGeometry relative="1" as="geometry">
            <Array as="points">
              <mxPoint x="2557" y="761.5" />
              <mxPoint x="2327" y="761.5" />
            </Array>
          </mxGeometry>
        </mxCell>
        <mxCell id="jp09Y0G8pGPSq42nTGuu-19" value="Загрузка системы" style="rounded=1;whiteSpace=wrap;html=1;fontFamily=Times New Roman;fontSize=16;" vertex="1" parent="1">
          <mxGeometry x="2426" y="631.5" width="261" height="67" as="geometry" />
        </mxCell>
        <mxCell id="jp09Y0G8pGPSq42nTGuu-22" value="True" style="text;html=1;strokeColor=none;fillColor=none;align=center;verticalAlign=middle;whiteSpace=wrap;rounded=0;fontSize=16;fontFamily=Times New Roman;" vertex="1" parent="1">
          <mxGeometry x="2076" y="501.5" width="60" height="30" as="geometry" />
        </mxCell>
        <mxCell id="jp09Y0G8pGPSq42nTGuu-23" value="False" style="text;html=1;strokeColor=none;fillColor=none;align=center;verticalAlign=middle;whiteSpace=wrap;rounded=0;fontSize=16;fontFamily=Times New Roman;" vertex="1" parent="1">
          <mxGeometry x="2506" y="501.5" width="60" height="30" as="geometry" />
        </mxCell>
        <mxCell id="jp09Y0G8pGPSq42nTGuu-24" value="Выбор плейлиста" style="rounded=1;whiteSpace=wrap;html=1;fontFamily=Times New Roman;fontSize=16;" vertex="1" parent="1">
          <mxGeometry x="1090" y="470" width="261" height="67" as="geometry" />
        </mxCell>
        <mxCell id="jp09Y0G8pGPSq42nTGuu-37" style="edgeStyle=orthogonalEdgeStyle;rounded=0;orthogonalLoop=1;jettySize=auto;html=1;entryX=0.5;entryY=0;entryDx=0;entryDy=0;exitX=0;exitY=0.5;exitDx=0;exitDy=0;" edge="1" parent="1" source="jp09Y0G8pGPSq42nTGuu-26" target="jp09Y0G8pGPSq42nTGuu-36">
          <mxGeometry relative="1" as="geometry" />
        </mxCell>
        <mxCell id="jp09Y0G8pGPSq42nTGuu-38" style="edgeStyle=orthogonalEdgeStyle;rounded=0;orthogonalLoop=1;jettySize=auto;html=1;exitX=1;exitY=0.5;exitDx=0;exitDy=0;entryX=0.5;entryY=0;entryDx=0;entryDy=0;" edge="1" parent="1" source="jp09Y0G8pGPSq42nTGuu-26" target="jp09Y0G8pGPSq42nTGuu-35">
          <mxGeometry relative="1" as="geometry" />
        </mxCell>
        <mxCell id="jp09Y0G8pGPSq42nTGuu-26" value="" style="rhombus;whiteSpace=wrap;html=1;" vertex="1" parent="1">
          <mxGeometry x="2209.25" y="851.5" width="210.5" height="97.73" as="geometry" />
        </mxCell>
        <mxCell id="jp09Y0G8pGPSq42nTGuu-32" style="rounded=0;orthogonalLoop=1;jettySize=auto;html=1;entryX=0;entryY=0;entryDx=0;entryDy=0;dashed=1;endArrow=none;endFill=0;dashPattern=8 8;" edge="1" parent="1" source="jp09Y0G8pGPSq42nTGuu-30" target="jp09Y0G8pGPSq42nTGuu-26">
          <mxGeometry relative="1" as="geometry" />
        </mxCell>
        <mxCell id="jp09Y0G8pGPSq42nTGuu-30" value="&amp;nbsp;" style="shape=note2;boundedLbl=1;whiteSpace=wrap;html=1;size=25;verticalAlign=top;align=center;" vertex="1" parent="1">
          <mxGeometry x="1784" y="818" width="200" height="91" as="geometry" />
        </mxCell>
        <mxCell id="jp09Y0G8pGPSq42nTGuu-31" value="Прослушать отдельную&#xa;песню или плейлист" style="resizeWidth=1;part=1;strokeColor=none;fillColor=none;align=left;spacingLeft=5;fontSize=16;fontFamily=Times New Roman;" vertex="1" parent="jp09Y0G8pGPSq42nTGuu-30">
          <mxGeometry width="168.42105263157896" height="50" relative="1" as="geometry" />
        </mxCell>
        <mxCell id="jp09Y0G8pGPSq42nTGuu-49" style="edgeStyle=orthogonalEdgeStyle;rounded=0;orthogonalLoop=1;jettySize=auto;html=1;entryX=0.5;entryY=0;entryDx=0;entryDy=0;" edge="1" parent="1" source="jp09Y0G8pGPSq42nTGuu-35" target="jp09Y0G8pGPSq42nTGuu-46">
          <mxGeometry relative="1" as="geometry" />
        </mxCell>
        <mxCell id="jp09Y0G8pGPSq42nTGuu-35" value="Найти плейлист" style="rounded=1;whiteSpace=wrap;html=1;fontFamily=Times New Roman;fontSize=16;" vertex="1" parent="1">
          <mxGeometry x="2426" y="1001.5" width="261" height="67" as="geometry" />
        </mxCell>
        <mxCell id="jp09Y0G8pGPSq42nTGuu-48" style="edgeStyle=orthogonalEdgeStyle;rounded=0;orthogonalLoop=1;jettySize=auto;html=1;entryX=0.5;entryY=0;entryDx=0;entryDy=0;" edge="1" parent="1" source="jp09Y0G8pGPSq42nTGuu-36" target="jp09Y0G8pGPSq42nTGuu-45">
          <mxGeometry relative="1" as="geometry" />
        </mxCell>
        <mxCell id="jp09Y0G8pGPSq42nTGuu-36" value="Найти песню" style="rounded=1;whiteSpace=wrap;html=1;fontFamily=Times New Roman;fontSize=16;" vertex="1" parent="1">
          <mxGeometry x="1948.25" y="1001.5" width="261" height="67" as="geometry" />
        </mxCell>
        <mxCell id="jp09Y0G8pGPSq42nTGuu-39" value="Песня не найдена" style="text;html=1;strokeColor=none;fillColor=none;align=center;verticalAlign=middle;whiteSpace=wrap;rounded=0;fontSize=16;fontFamily=Times New Roman;" vertex="1" parent="1">
          <mxGeometry x="1873.5" y="1132" width="100" height="40" as="geometry" />
        </mxCell>
        <mxCell id="jp09Y0G8pGPSq42nTGuu-40" value="Плейлист&amp;nbsp; не найден" style="text;html=1;strokeColor=none;fillColor=none;align=center;verticalAlign=middle;whiteSpace=wrap;rounded=0;fontSize=16;fontFamily=Times New Roman;" vertex="1" parent="1">
          <mxGeometry x="2661.75" y="1132" width="80" height="40" as="geometry" />
        </mxCell>
        <mxCell id="jp09Y0G8pGPSq42nTGuu-62" style="edgeStyle=orthogonalEdgeStyle;rounded=0;orthogonalLoop=1;jettySize=auto;html=1;entryX=0.5;entryY=0;entryDx=0;entryDy=0;" edge="1" parent="1" source="jp09Y0G8pGPSq42nTGuu-41" target="jp09Y0G8pGPSq42nTGuu-43">
          <mxGeometry relative="1" as="geometry" />
        </mxCell>
        <mxCell id="jp09Y0G8pGPSq42nTGuu-41" value="Найти плейлист" style="rounded=1;whiteSpace=wrap;html=1;fontFamily=Times New Roman;fontSize=16;" vertex="1" parent="1">
          <mxGeometry x="2426" y="1271.5" width="261" height="67" as="geometry" />
        </mxCell>
        <mxCell id="jp09Y0G8pGPSq42nTGuu-61" style="edgeStyle=orthogonalEdgeStyle;rounded=0;orthogonalLoop=1;jettySize=auto;html=1;entryX=0.5;entryY=0;entryDx=0;entryDy=0;" edge="1" parent="1" source="jp09Y0G8pGPSq42nTGuu-42" target="jp09Y0G8pGPSq42nTGuu-44">
          <mxGeometry relative="1" as="geometry" />
        </mxCell>
        <mxCell id="jp09Y0G8pGPSq42nTGuu-42" value="Найти песню" style="rounded=1;whiteSpace=wrap;html=1;fontFamily=Times New Roman;fontSize=16;" vertex="1" parent="1">
          <mxGeometry x="1948.25" y="1271.5" width="261" height="67" as="geometry" />
        </mxCell>
        <mxCell id="jp09Y0G8pGPSq42nTGuu-75" style="edgeStyle=orthogonalEdgeStyle;rounded=0;orthogonalLoop=1;jettySize=auto;html=1;entryX=1;entryY=0.5;entryDx=0;entryDy=0;" edge="1" parent="1" source="jp09Y0G8pGPSq42nTGuu-43" target="FDyta-szb_0lJt4S96MW-21">
          <mxGeometry relative="1" as="geometry">
            <Array as="points">
              <mxPoint x="2557" y="1510" />
              <mxPoint x="2388" y="1510" />
              <mxPoint x="2388" y="1545" />
            </Array>
          </mxGeometry>
        </mxCell>
        <mxCell id="jp09Y0G8pGPSq42nTGuu-43" value="Прослушать плейлист" style="rounded=1;whiteSpace=wrap;html=1;fontFamily=Times New Roman;fontSize=16;" vertex="1" parent="1">
          <mxGeometry x="2426" y="1381.5" width="261" height="67" as="geometry" />
        </mxCell>
        <mxCell id="jp09Y0G8pGPSq42nTGuu-74" style="edgeStyle=orthogonalEdgeStyle;rounded=0;orthogonalLoop=1;jettySize=auto;html=1;entryX=0;entryY=0.5;entryDx=0;entryDy=0;" edge="1" parent="1" source="jp09Y0G8pGPSq42nTGuu-44" target="FDyta-szb_0lJt4S96MW-21">
          <mxGeometry relative="1" as="geometry">
            <Array as="points">
              <mxPoint x="2079" y="1510" />
              <mxPoint x="2244" y="1510" />
              <mxPoint x="2244" y="1545" />
            </Array>
          </mxGeometry>
        </mxCell>
        <mxCell id="jp09Y0G8pGPSq42nTGuu-44" value="Прослушать песню" style="rounded=1;whiteSpace=wrap;html=1;fontFamily=Times New Roman;fontSize=16;" vertex="1" parent="1">
          <mxGeometry x="1948.25" y="1381.5" width="261" height="67" as="geometry" />
        </mxCell>
        <mxCell id="jp09Y0G8pGPSq42nTGuu-57" style="edgeStyle=orthogonalEdgeStyle;rounded=0;orthogonalLoop=1;jettySize=auto;html=1;" edge="1" parent="1" source="jp09Y0G8pGPSq42nTGuu-45" target="jp09Y0G8pGPSq42nTGuu-42">
          <mxGeometry relative="1" as="geometry" />
        </mxCell>
        <mxCell id="jp09Y0G8pGPSq42nTGuu-45" value="" style="rhombus;whiteSpace=wrap;html=1;" vertex="1" parent="1">
          <mxGeometry x="1973.5" y="1132" width="210.5" height="97.73" as="geometry" />
        </mxCell>
        <mxCell id="jp09Y0G8pGPSq42nTGuu-58" style="edgeStyle=orthogonalEdgeStyle;rounded=0;orthogonalLoop=1;jettySize=auto;html=1;entryX=0.5;entryY=0;entryDx=0;entryDy=0;" edge="1" parent="1" source="jp09Y0G8pGPSq42nTGuu-46" target="jp09Y0G8pGPSq42nTGuu-41">
          <mxGeometry relative="1" as="geometry" />
        </mxCell>
        <mxCell id="jp09Y0G8pGPSq42nTGuu-46" value="" style="rhombus;whiteSpace=wrap;html=1;" vertex="1" parent="1">
          <mxGeometry x="2451.25" y="1132" width="210.5" height="97.73" as="geometry" />
        </mxCell>
        <mxCell id="jp09Y0G8pGPSq42nTGuu-55" value="" style="endArrow=classic;html=1;rounded=0;entryX=0.337;entryY=0.163;entryDx=0;entryDy=0;entryPerimeter=0;exitX=0;exitY=0.5;exitDx=0;exitDy=0;" edge="1" parent="1" source="jp09Y0G8pGPSq42nTGuu-45" target="jp09Y0G8pGPSq42nTGuu-26">
          <mxGeometry width="50" height="50" relative="1" as="geometry">
            <mxPoint x="1920" y="1160" as="sourcePoint" />
            <mxPoint x="1870" y="930" as="targetPoint" />
            <Array as="points">
              <mxPoint x="1690" y="1180" />
              <mxPoint x="1690" y="800" />
              <mxPoint x="2280" y="800" />
            </Array>
          </mxGeometry>
        </mxCell>
        <mxCell id="jp09Y0G8pGPSq42nTGuu-56" value="" style="endArrow=classic;html=1;rounded=0;entryX=1;entryY=0;entryDx=0;entryDy=0;exitX=1;exitY=0.5;exitDx=0;exitDy=0;" edge="1" parent="1" source="jp09Y0G8pGPSq42nTGuu-46" target="jp09Y0G8pGPSq42nTGuu-26">
          <mxGeometry width="50" height="50" relative="1" as="geometry">
            <mxPoint x="3104" y="1176" as="sourcePoint" />
            <mxPoint x="3410" y="870" as="targetPoint" />
            <Array as="points">
              <mxPoint x="2930" y="1180" />
              <mxPoint x="2930" y="1000" />
              <mxPoint x="2930" y="803" />
              <mxPoint x="2367" y="800" />
            </Array>
          </mxGeometry>
        </mxCell>
        <mxCell id="jp09Y0G8pGPSq42nTGuu-59" value="Песня найдена" style="text;html=1;strokeColor=none;fillColor=none;align=center;verticalAlign=middle;whiteSpace=wrap;rounded=0;fontSize=16;fontFamily=Times New Roman;" vertex="1" parent="1">
          <mxGeometry x="2000" y="1229.73" width="76" height="40" as="geometry" />
        </mxCell>
        <mxCell id="jp09Y0G8pGPSq42nTGuu-60" value="Плейлист&amp;nbsp; найден" style="text;html=1;strokeColor=none;fillColor=none;align=center;verticalAlign=middle;whiteSpace=wrap;rounded=0;fontSize=16;fontFamily=Times New Roman;" vertex="1" parent="1">
          <mxGeometry x="2566" y="1229.73" width="80" height="40" as="geometry" />
        </mxCell>
        <mxCell id="jp09Y0G8pGPSq42nTGuu-63" value="&amp;nbsp;" style="shape=note2;boundedLbl=1;whiteSpace=wrap;html=1;size=25;verticalAlign=top;align=center;" vertex="1" parent="1">
          <mxGeometry x="1730" y="1039.25" width="160" height="58.5" as="geometry" />
        </mxCell>
        <mxCell id="jp09Y0G8pGPSq42nTGuu-64" value="Найдена ли песня" style="resizeWidth=1;part=1;strokeColor=none;fillColor=none;align=left;spacingLeft=5;fontSize=16;fontFamily=Times New Roman;" vertex="1" parent="jp09Y0G8pGPSq42nTGuu-63">
          <mxGeometry width="134.73684210526318" height="50" relative="1" as="geometry" />
        </mxCell>
        <mxCell id="jp09Y0G8pGPSq42nTGuu-65" value="&amp;nbsp;" style="shape=note2;boundedLbl=1;whiteSpace=wrap;html=1;size=25;verticalAlign=top;align=center;" vertex="1" parent="1">
          <mxGeometry x="2730" y="1030" width="180" height="58.5" as="geometry" />
        </mxCell>
        <mxCell id="jp09Y0G8pGPSq42nTGuu-66" value="Найден ли плейлист" style="resizeWidth=1;part=1;strokeColor=none;fillColor=none;align=left;spacingLeft=5;fontSize=16;fontFamily=Times New Roman;" vertex="1" parent="jp09Y0G8pGPSq42nTGuu-65">
          <mxGeometry width="151.57894736842107" height="50" relative="1" as="geometry" />
        </mxCell>
        <mxCell id="jp09Y0G8pGPSq42nTGuu-67" style="rounded=0;orthogonalLoop=1;jettySize=auto;html=1;entryX=0.314;entryY=0.179;entryDx=0;entryDy=0;dashed=1;endArrow=none;endFill=0;dashPattern=8 8;exitX=0;exitY=0;exitDx=160;exitDy=41.75;exitPerimeter=0;entryPerimeter=0;" edge="1" parent="1" source="jp09Y0G8pGPSq42nTGuu-63" target="jp09Y0G8pGPSq42nTGuu-45">
          <mxGeometry relative="1" as="geometry">
            <mxPoint x="1906" y="1079.5" as="sourcePoint" />
            <mxPoint x="2184" y="1088.5" as="targetPoint" />
          </mxGeometry>
        </mxCell>
        <mxCell id="jp09Y0G8pGPSq42nTGuu-68" style="rounded=0;orthogonalLoop=1;jettySize=auto;html=1;entryX=0;entryY=0.667;entryDx=0;entryDy=0;dashed=1;endArrow=none;endFill=0;dashPattern=8 8;entryPerimeter=0;exitX=0.707;exitY=0.166;exitDx=0;exitDy=0;exitPerimeter=0;" edge="1" parent="1" source="jp09Y0G8pGPSq42nTGuu-46" target="jp09Y0G8pGPSq42nTGuu-65">
          <mxGeometry relative="1" as="geometry">
            <mxPoint x="2004" y="887" as="sourcePoint" />
            <mxPoint x="2282" y="896" as="targetPoint" />
          </mxGeometry>
        </mxCell>
      </root>
    </mxGraphModel>
  </diagram>
</mxfile>
